<svg height="329.06512" viewBox="0 0 270.93333 87.06515" width="1024" xmlns="http://www.w3.org/2000/svg"><g transform="matrix(1.0715748 0 0 1.0715748 133.84656 -16.411826)"><g fill="#0089d0" stroke-width=".878117"><path d="m-123.91877 50.038843h4.44123q3.03565 0 4.40218.868723 1.37629.858963 1.37629 2.742824 0 1.278683-.60518 2.098601-.59541.819919-1.59103.985855v.09761q1.35677.302589 1.95219 1.132268.60518.82968.60518 2.205972 0 1.952188-1.41534 3.045413-1.40557 1.093225-3.82629 1.093225h-5.33923zm3.02589 5.651583h1.75697q1.22988 0 1.77649-.380677.55637-.380676.55637-1.259161 0-.819918-.60517-1.171312-.59542-.361155-1.89363-.361155h-1.59103zm0 2.401191v3.718917h1.97171q1.2494 0 1.84482-.478286.59541-.478286.59541-1.464141 0-1.77649-2.53784-1.77649z"/><path d="m-102.80727 64.309334h-8.21871v-14.270491h8.21871v2.479278h-5.19282v3.133261h4.83167v2.479278h-4.83167v3.679874h5.19282z"/><path d="m-87.708507 64.309334h-3.845809l-6.207957-10.795597h-.08785q.185458 2.859954.185458 4.080072v6.715525h-2.703775v-14.270491h3.816522l6.198195 10.688227h.06833q-.146414-2.781868-.146414-3.933658v-6.754569h2.723301z"/><path d="m-78.593197 52.352185q-1.708165 0-2.645215 1.288444-.93705 1.278683-.93705 3.572503 0 4.773099 3.582265 4.773099 1.503184 0 3.640829-.751593v2.537844q-1.756968.732071-3.923897.732071-3.113739 0-4.763337-1.883861-1.649599-1.893622-1.649599-5.427082 0-2.225494.810158-3.894614.810158-1.678881 2.323103-2.567126 1.522707-.898007 3.562743-.898007 2.079079 0 4.177681 1.005377l-.976094 2.459756q-.800397-.380676-1.610555-.663744-.810157-.283067-1.591032-.283067z"/><path d="m-60.761372 64.309334h-3.01613v-6.159152h-5.651583v6.159152h-3.02589v-14.270491h3.02589v5.593017h5.651583v-5.593017h3.01613z"/><path d="m-51.655825 64.309334-3.43585-11.195796h-.08785q.185458 3.416328.185458 4.558358v6.637438h-2.70378v-14.270491h4.119116l3.377284 10.912728h.05857l3.582264-10.912728h4.119116v14.270491h-2.820911v-6.754569q0-.478286.0098-1.102986.01952-.6247.136653-3.318719h-.08785l-3.679873 11.176274z"/><path d="m-30.651695 64.309334-1.034659-3.396807h-5.20258l-1.034659 3.396807h-3.260153l5.036643-14.329057h3.699396l5.056166 14.329057zm-1.756968-5.93465q-1.434858-4.616924-1.620316-5.222102-.175697-.605178-.253784-.956572-.322111 1.2494-1.844818 6.178674z"/><path d="m-23.107899 56.373691h.976094q1.434858 0 2.118123-.478285.683266-.478286.683266-1.503185 0-1.015137-.702787-1.444619-.693027-.429481-2.157168-.429481h-.917528zm0 2.459757v5.475886h-3.02589v-14.270491h4.158159q2.908759 0 4.304574 1.063942 1.395814 1.054181 1.395814 3.211349 0 1.259161-.693027 2.245015-.693027.976094-1.961948 1.532468 3.221109 4.812142 4.197203 6.217717h-3.357763l-3.406567-5.475886z"/><path d="m-1.9963955 64.309334h-3.4358501l-3.7384391-6.012738-1.2786833.917528v5.09521h-3.02589v-14.270491h3.02589v6.530067l1.1908348-1.678881 3.8653314-4.851186h3.3577625l-4.9780782 6.315327z"/><path d="m-.73864018 64.309334v-14.270491h3.02589068v14.270491z"/><path d="m18.000947 64.309334h-3.84581l-6.2079559-10.795597h-.087848q.1854578 2.859954.1854578 4.080072v6.715525h-2.7037802v-14.270491h3.8165266l6.1981957 10.688227h.06833q-.146414-2.781868-.146414-3.933658v-6.754569h2.723302z"/><path d="m26.47203 56.295604h5.661344v7.398791q-1.376292.449003-2.596409.6247-1.210356.185458-2.479278.185458-3.230871 0-4.939035-1.893622-1.698403-1.903383-1.698403-5.456364 0-3.455372 1.971709-5.388038 1.981471-1.932666 5.485647-1.932666 2.196211 0 4.236247.878485l-1.005376 2.420712q-1.56175-.780875-3.250392-.780875-1.961949 0-3.143022 1.317727-1.181074 1.317726-1.181074 3.54322 0 2.323103.946811 3.552981.956572 1.220118 2.772106 1.220118.946811 0 1.922905-.195219v-2.977086h-2.70378z"/></g><g fill="#009dee" stroke-width=".681129"><path d="m15.821813 33.472599-2.665076-8.684213h-.06814q.143853 2.649934.143853 3.53577v5.148443h-2.097234v-11.069153h3.195063l2.619649 8.464646h.04543l2.778645-8.464646h3.195063v11.069153h-2.188088v-5.239298q0-.370991.0076-.855551.01514-.484559.105998-2.574221h-.06814l-2.854357 8.66907z"/><path d="m31.343683 33.472599h-6.374985v-11.069153h6.374985v1.923095h-4.0279v2.430368h3.747764v1.923095h-3.747764v2.854357h4.0279z"/><path d="m37.136507 33.472599h-2.347085v-9.115773h-3.005782v-1.95338h8.358649v1.95338h-3.005782z"/><path d="m51.106272 27.92288q0 2.74836-1.362823 4.224752-1.362823 1.476392-3.90676 1.476392-2.543937 0-3.90676-1.476392-1.362823-1.476392-1.362823-4.239895 0-2.763502 1.362823-4.217181 1.370395-1.461249 3.921903-1.461249 2.551508 0 3.899188 1.468821 1.355252 1.46882 1.355252 4.224752zm-8.078513 0q0 1.854954.704125 2.793788.704126.938833 2.104805.938833 2.80893 0 2.80893-3.732621 0-3.740193-2.793787-3.740193-1.40068 0-2.112376.946405-.711697.938834-.711697 2.793788z"/><path d="m61.797688 27.832025q0 2.733218-1.559676 4.186896-1.552104 1.453678-4.489745 1.453678h-3.134494v-11.069153h3.4752q2.710504 0 4.209609 1.430964 1.499106 1.430964 1.499106 3.997615zm-2.43794.06057q0-3.566054-3.149636-3.566054h-1.249254v7.20782h1.006975q3.391915 0 3.391915-3.641766z"/><path d="m73.352227 27.92288q0 2.74836-1.362823 4.224752-1.362824 1.476392-3.90676 1.476392-2.543937 0-3.90676-1.476392-1.362824-1.476392-1.362824-4.239895 0-2.763502 1.362824-4.217181 1.370394-1.461249 3.921902-1.461249 2.551508 0 3.899189 1.468821 1.355252 1.46882 1.355252 4.224752zm-8.078514 0q0 1.854954.704126 2.793788.704125.938833 2.104805.938833 2.80893 0 2.80893-3.732621 0-3.740193-2.793788-3.740193-1.400679 0-2.112376.946405-.711697.938834-.711697 2.793788z"/><path d="m74.85973 33.472599v-11.069153h2.347084v9.130915h4.489746v1.938238z"/><path d="m92.880112 27.92288q0 2.74836-1.362823 4.224752-1.362823 1.476392-3.90676 1.476392-2.543937 0-3.90676-1.476392-1.362823-1.476392-1.362823-4.239895 0-2.763502 1.362823-4.217181 1.370395-1.461249 3.921903-1.461249 2.551508 0 3.899188 1.468821 1.355252 1.46882 1.355252 4.224752zm-8.078513 0q0 1.854954.704125 2.793788.704126.938833 2.104805.938833 2.80893 0 2.80893-3.732621 0-3.740193-2.793787-3.740193-1.40068 0-2.112377.946405-.711696.938834-.711696 2.793788z"/><path d="m98.58965 27.256611h4.39132v5.739q-1.06755.348277-2.01395.484559-.93883.143854-1.923096.143854-2.50608 0-3.831048-1.468821-1.317395-1.476392-1.317395-4.232323 0-2.680219 1.52939-4.179325 1.536962-1.499106 4.255037-1.499106 1.703532 0 3.285922.681412l-.77984 1.877668q-1.2114-.605699-2.521224-.605699-1.521819 0-2.43794 1.022117-.91612 1.022117-.91612 2.74836 0 1.801955.734411 2.755932.741981.946405 2.150232.946405.73441 0 1.491531-.151425v-2.309228h-2.09723z"/><path d="m104.82918 33.472599v-11.069153h2.34708v11.069153z"/><path d="m115.95216 33.472599-.80256-2.634792h-4.03547l-.80255 2.634792h-2.52879l3.90676-11.114581h2.8695l3.9219 11.114581zm-1.36283-4.603314q-1.11297-3.581197-1.25682-4.050614-.13629-.469417-.19686-.741981-.24985.969118-1.43096 4.792595z"/></g><g fill="#0a0a0a" stroke-width=".567107"><path d="m-41.857298 41.222898q0 2.275675-1.298585 3.486006-1.292281 1.210331-3.738159 1.210331h-2.609776v-9.216168h2.893448q2.256763 0 3.504917 1.19142 1.248155 1.19142 1.248155 3.328411zm-2.029827.05043q0-2.969094-2.622384-2.969094h-1.040129v6.001226h.838407q2.824106 0 2.824106-3.032132z"/><path d="m-35.294345 45.919235h-5.307807v-9.216168h5.307807v1.601167h-3.353626v2.023523h3.120385v1.601167h-3.120385v2.376536h3.353626z"/><path d="m-28.586403 43.359889q0 1.248154-.901445 1.966788-.895141.718634-2.496308.718634-1.475091 0-2.609777-.554735v-1.815497q.932964.416052 1.575952.586255.649292.170202 1.185116.170202.642989 0 .983394-.245848.34671-.245849.34671-.731242 0-.271064-.151292-.479089-.151291-.21433-.44757-.409748-.289975-.195418-1.19142-.624077-.84471-.39714-1.267065-.762761-.422356-.365621-.674508-.851014-.252152-.485393-.252152-1.134686 0-1.222938.825799-1.922661.832102-.699723 2.294586-.699723.718634 0 1.367927.170203.655596.170203 1.367926.479089l-.630381 1.519218q-.737545-.302583-1.222939-.422355-.479089-.119772-.945571-.119772-.554735 0-.851014.258456-.296279.258456-.296279.674507 0 .258456.119772.453875.119772.189114.378229.371924.26476.176507 1.24185.642989 1.292281.617773 1.77137 1.24185.47909.617773.47909 1.519218z"/><path d="m-22.262994 45.919235h-5.307807v-9.216168h5.307807v1.601167h-3.353626v2.023523h3.120385v1.601167h-3.120385v2.376536h3.353626z"/><path d="m-17.093182 45.919235-2.21894-7.230468h-.05673q.119772 2.206333.119772 2.943878v4.28659h-1.746155v-9.216168h2.660207l2.181118 7.047658h.03782l2.313498-7.047658h2.660207v9.216168h-1.821801v-4.362235q0-.308887.0063-.712331.01261-.403443.08825-2.143295h-.05673l-2.376536 7.217861z"/><path d="m-7.5233125 41.040087h.6429885q.9014446 0 1.3490151-.353013.4475704-.359317.4475704-1.040128 0-.687116-.3782285-1.014914-.3719248-.327798-1.1725085-.327798h-.888837zm4.4126661-1.462483q0 1.487699-.9329637 2.275675-.9266599.787976-2.6412958.787976h-.8384066v3.27798h-1.9541807v-9.216168h2.9438787q1.6768131 0 2.5467387.724938.8762294.718634.8762294 2.149599z"/><path d="m3.2821074 45.919235h-5.3078069v-9.216168h5.3078069v1.601167h-3.35362621v2.023523h3.12038531v1.601167h-3.12038531v2.376536h3.35362621z"/><path d="m12.725902 45.919235h-2.483701l-4.0092221-6.972012h-.056734q.1197723 1.847016.1197723 2.634992v4.33702h-1.7461552v-9.216168h2.4647892l4.0029188 6.90267h.04413q-.09456-1.796585-.09456-2.540434v-4.362236h1.758763z"/><path d="m21.94276 45.919235h-1.947877v-3.977703h-3.649906v3.977703h-1.95418v-9.216168h1.95418v3.612082h3.649906v-3.612082h1.947877z"/><path d="m31.979111 41.298543q0 2.288283-1.134686 3.517526-1.134685 1.229242-3.252765 1.229242-2.11808 0-3.252765-1.229242-1.134686-1.229243-1.134686-3.530133 0-2.30089 1.134686-3.511222 1.140989-1.216635 3.265372-1.216635 2.124384 0 3.246462 1.222939 1.128382 1.222939 1.128382 3.517525zm-6.726164 0q0 1.544434.586254 2.326106.586254.781672 1.752459.781672 2.338713 0 2.338713-3.107778 0-3.114081-2.326106-3.114081-1.166204 0-1.758762.787976-.592558.781672-.592558 2.326105z"/></g><g fill="#004468" stroke-width=".591012" transform="rotate(-90)"><path d="m-84.620576 46.645512h-2.588395l-4.178222-7.265902h-.05913q.124821 1.924873.124821 2.746064v4.519838h-1.81976v-9.604655h2.568687l4.171652 7.193637h.04599q-.09854-1.872317-.09854-2.647521v-4.546116h1.832899z"/><path d="m-77.353956 46.645512h-5.531546v-9.604655h5.531546v1.668661h-3.494991v2.108819h3.251918v1.668661h-3.251918v2.476714h3.494991z"/><path d="m-72.386673 41.251926h3.810329v4.979705q-.926304.302199-1.747496.42045-.814622.124821-1.668661.124821-2.174515 0-3.324183-1.274489-1.143098-1.281058-1.143098-3.672368 0-2.325614 1.327045-3.626381 1.333615-1.300767 3.692077-1.300767 1.478144 0 2.851177.591258l-.676662 1.629243q-1.051125-.525562-2.187654-.525562-1.320476 0-2.115389.886887-.794913.886886-.794913 2.384739 0 1.563549.637244 2.39131.643814.821191 1.865747.821191.637244 0 1.294198-.13139v-2.003707h-1.819761z"/><path d="m-58.254892 41.830045q0 2.38474-1.182516 3.665799-1.182515 1.281058-3.389878 1.281058-2.207362 0-3.389878-1.281058-1.182515-1.281059-1.182515-3.678938 0-2.397879 1.182515-3.659229 1.189085-1.267919 3.403017-1.267919 2.213932 0 3.383309 1.274489 1.175946 1.274489 1.175946 3.665798zm-7.00969 0q0 1.609535.610967 2.424157.610966.814622 1.826329.814622 2.437296 0 2.437296-3.238779 0-3.245348-2.424157-3.245348-1.215363 0-1.832899.821191-.617536.814622-.617536 2.424157zm1.40588-5.557823v-.177378q1.129959-1.313906 1.54384-1.977429h2.246779v.137961q-.341615.341615-1.169376 1.018277-.821192.670092-1.287628.998569z"/><path d="m-52.867159 38.597836q-1.149668 0-1.780343.867178-.630675.860609-.630675 2.404448 0 3.212501 2.411018 3.212501 1.011707 0 2.450435-.505854v1.708078q-1.182516.492715-2.640952.492715-2.09568 0-3.205931-1.267919-1.110251-1.274489-1.110251-3.65266 0-1.497853.545271-2.621243.545271-1.129959 1.563549-1.727786 1.024847-.604397 2.397879-.604397 1.39931 0 2.811759.676661l-.656953 1.655522q-.538702-.256211-1.083973-.446728-.545271-.190516-1.070833-.190516z"/><path d="m-49.05611 46.645512v-9.604655h2.036554v9.604655z"/><path d="m-36.566717 41.830045q0 2.38474-1.182515 3.665799-1.182516 1.281058-3.389879 1.281058-2.207362 0-3.389878-1.281058-1.182515-1.281059-1.182515-3.678938 0-2.397879 1.182515-3.659229 1.189086-1.267919 3.403018-1.267919 2.213932 0 3.383308 1.274489 1.175946 1.274489 1.175946 3.665798zm-7.00969 0q0 1.609535.610967 2.424157.610966.814622 1.826329.814622 2.437297 0 2.437297-3.238779 0-3.245348-2.424157-3.245348-1.215364 0-1.8329.821191-.617536.814622-.617536 2.424157z"/></g><g fill="#009dee" stroke-width=".264004"><path d="m-82.285807 34.020044h.29933q.419649 0 .628006-.164338.208358-.167273.208358-.484211 0-.319872-.176077-.472472-.173142-.1526-.545837-.1526h-.41378zm2.054226-.68083q0 .692568-.434322 1.059394-.431387.366827-1.229601.366827h-.390303v1.525996h-.909729v-4.290398h1.370463q.780606 0 1.185582.33748.40791.334545.40791 1.000701z"/><path d="m-79.726507 36.291431v-4.290398h.909729v3.539138h1.740223v.75126z"/><path d="m-74.009568 36.291431-.311069-1.021244h-1.564146l-.311069 1.021244h-.98016l1.514259-4.308006h1.112217l1.520127 4.308006zm-.52823-1.784242q-.431387-1.38807-.487145-1.570016-.05282-.181946-.0763-.287592-.09684.37563-.554641 1.857608z"/><path d="m-68.988131 36.291431h-1.156236l-1.866412-3.245677h-.02641q.05576.85984.05576 1.226666v2.019011h-.812887v-4.290398h1.147433l1.863477 3.213397h.02054q-.04402-.836364-.04402-1.182648v-2.030749h.818756z"/><path d="m-64.318848 34.140363q0 1.065263-.528229 1.637512-.52823.572249-1.514259.572249-.986028 0-1.514258-.572249-.52823-.572249-.52823-1.643381 0-1.071133.52823-1.634578.531164-.566379 1.520128-.566379.988963 0 1.511323.569314.525295.569314.525295 1.637512zm-3.131228 0q0 .718979.272919 1.082871.272919.363891.815821.363891 1.08874 0 1.08874-1.446762 0-1.449697-1.08287-1.449697-.542903 0-.818756.366826-.275854.363892-.275854 1.082871z"/></g><g stroke-width=".405133"><g fill="#4d4d4d"><path d="m-109.22267 24.257071q-.78809 0-1.22041.594442-.43232.589938-.43232 1.648224 0 2.202135 1.65273 2.202135.69352 0 1.67975-.346757v1.170869q-.8106.337751-1.81035.337751-1.43656 0-2.19763-.869145-.76106-.873649-.76106-2.50386 0-1.026763.37377-1.796834.37378-.774576 1.0718-1.18438.70252-.414308 1.64372-.414308.95921 0 1.92743.463845l-.45033 1.134843q-.36928-.175631-.74305-.306228-.37378-.130597-.73405-.130597z"/><path d="m-100.6343 26.472717q0 1.634714-.8106 2.512866-.8106.878152-2.32373.878152-1.51312 0-2.32372-.878152-.81061-.878152-.81061-2.521873 0-1.643721.81061-2.508363.8151-.869146 2.33273-.869146 1.51763 0 2.31922.873649.8061.873649.8061 2.512867zm-4.80507 0q0 1.103319.41881 1.661734.41881.558415 1.25193.558415 1.67074 0 1.67074-2.220149 0-2.224653-1.66173-2.224653-.83312 0-1.25643.562918-.42332.558415-.42332 1.661735z"/><path d="m-96.950072 29.773668-1.585177-5.165336h-.04053q.08556 1.576171.08556 2.103062v3.062274h-1.247426v-6.58389h1.900411l1.558158 5.03474h.02702l1.652727-5.03474h1.900412v6.58389h-1.301467v-3.116314q0-.220664.0045-.508878.009-.288214.06305-1.531137h-.04053l-1.697761 5.156329z"/><path d="m-90.113503 26.28808h.459341q.643978 0 .963715-.252188.319738-.25669.319738-.743052 0-.490864-.270201-.725038-.265697-.234174-.837622-.234174h-.634971zm3.152341-1.044776q0 1.062789-.666495 1.625707-.661992.562918-1.886902.562918h-.598944v2.341739h-1.396037v-6.58389h2.103062q1.197889 0 1.819351.517885.625965.513381.625965 1.535641z"/><path d="m-82.155601 29.773668-.477354-1.567164h-2.400283l-.477354 1.567164h-1.504117l2.323725-6.61091h1.706768l2.332733 6.61091zm-.810602-2.738033q-.661991-2.130082-.747555-2.40929-.08106-.279207-.117087-.441327-.14861.576428-.851132 2.850617z"/><path d="m-78.894689 26.112449h.450335q.661991 0 .977226-.220664.315234-.220664.315234-.693515 0-.468348-.324241-.666495-.319738-.198147-.995239-.198147h-.423315zm0 1.134843v2.526376h-1.396036v-6.58389h1.918424q1.341997 0 1.985975.490865.643979.486361.643979 1.4816 0 .580932-.319738 1.03577-.319737.450334-.905172.707025 1.486104 2.220149 1.936438 2.86863h-1.54915l-1.571668-2.526376z"/><path d="m-70.639564 29.773668-.477354-1.567164h-2.400283l-.477354 1.567164h-1.504117l2.323725-6.61091h1.706768l2.332733 6.61091zm-.810602-2.738033q-.661991-2.130082-.747555-2.40929-.08106-.279207-.117087-.441327-.14861.576428-.851132 2.850617z"/><path d="m-67.378654 26.112449h.450335q.661992 0 .977226-.220664.315234-.220664.315234-.693515 0-.468348-.324241-.666495-.319737-.198147-.995239-.198147h-.423315zm0 1.134843v2.526376h-1.396036v-6.58389h1.918424q1.341997 0 1.985975.490865.643979.486361.643979 1.4816 0 .580932-.319738 1.03577-.319737.450334-.905172.707025 1.486104 2.220149 1.936438 2.86863h-1.54915l-1.571668-2.526376z"/></g><g fill="#00517c"><path d="m-44.644706 30.416742-.477354-1.567164h-2.400283l-.477355 1.567164h-1.504117l2.323726-6.61091h1.706768l2.332732 6.61091zm-.810602-2.738033q-.661992-2.130082-.747555-2.40929-.08106-.279207-.117087-.441327-.14861.576428-.851132 2.850617z"/><path d="m-42.779829 30.416742v-6.58389h1.396037v5.431034h2.670483v1.152856z"/><path d="m-34.281527 23.832852h1.409547l-2.238162 6.58389h-1.522131l-2.233659-6.58389h1.409547l1.23842 3.91791q.103577.346758.211657.810602.112584.459341.139604.639475.04954-.414307.337751-1.450077z"/><path d="m-26.535282 27.115791q0 1.634714-.810602 2.512866-.810602.878152-2.323726.878152-1.513124 0-2.323726-.878152-.810602-.878152-.810602-2.521873 0-1.643721.810602-2.508363.815105-.869145 2.332732-.869145 1.517628 0 2.319223.873648.806099.873649.806099 2.512867zm-4.805069 0q0 1.103319.418811 1.661734.418811.558415 1.25193.558415 1.670741 0 1.670741-2.220149 0-2.224653-1.661735-2.224653-.833118 0-1.256433.562919-.423314.558414-.423314 1.661734z"/></g><g fill="#1a1a1a" transform="rotate(-90)"><path d="m-42.861448-52.639015h-1.396037v-5.422027h-1.787828v-1.161863h4.971693v1.161863h-1.787828z"/><path d="m-36.736408-52.639015h-3.791816v-6.58389h3.791816v1.143849h-2.395779v1.445574h2.229156v1.14385h-2.229156v1.697761h2.395779z"/><path d="m-33.043173-52.639015-1.585178-5.165337h-.04053q.08556 1.576171.08556 2.103062v3.062275h-1.247427v-6.58389h1.900412l1.558157 5.034739h.02702l1.652728-5.034739h1.900411v6.58389h-1.301466v-3.116315q0-.220664.0045-.508878.009-.288214.06305-1.531137h-.04053l-1.697761 5.15633z"/><path d="m-26.206605-56.124604h.459341q.643978 0 .963716-.252187.319737-.256691.319737-.743052 0-.490865-.2702-.725039-.265698-.234174-.837622-.234174h-.634972zm3.152341-1.044776q0 1.062789-.666495 1.625708-.661991.562918-1.886901.562918h-.598945v2.341739h-1.396037v-6.58389h2.103062q1.19789 0 1.819351.517885.625965.513381.625965 1.53564z"/><path d="m-16.303257-55.939967q0 1.634714-.810602 2.512866-.810602.878153-2.323726.878153-1.513124 0-2.323726-.878153-.810602-.878152-.810602-2.521873 0-1.64372.810602-2.508362.815105-.869146 2.332733-.869146 1.517627 0 2.319222.873649.806099.873649.806099 2.512866zm-4.805069 0q0 1.10332.418811 1.661734.418811.558415 1.25193.558415 1.670741 0 1.670741-2.220149 0-2.224652-1.661734-2.224652-.833119 0-1.256434.562918-.423314.558415-.423314 1.661734z"/></g><g fill="#005f91" transform="rotate(-90)"><path d="m-69.435612 53.049947q0 1.634714-.810602 2.512866-.810602.878153-2.323726.878153-1.513124 0-2.323726-.878153-.810602-.878152-.810602-2.521873 0-1.64372.810602-2.508363.815106-.869145 2.332733-.869145 1.517627 0 2.319222.873649.806099.873649.806099 2.512866zm-4.805069 0q0 1.10332.418811 1.661734.418811.558415 1.25193.558415 1.670741 0 1.670741-2.220149 0-2.224652-1.661734-2.224652-.833119 0-1.256433.562918-.423315.558415-.423315 1.661734z"/><path d="m-68.538955 49.767009h2.049022q1.40054 0 2.031009.400798.634971.396294.634971 1.265439 0 .589939-.279207.968219-.274704.378281-.734045.454838v.04503q.625965.139603.900669.522388.279207.382784.279207 1.017756 0 .900669-.652985 1.405043-.648482.504375-1.765311.504375h-2.46333zm1.396037 2.607436h.810602q.567422 0 .819609-.17563.256691-.17563.256691-.580931 0-.378281-.279208-.540402-.274704-.166624-.873648-.166624h-.734046zm0 1.107823v1.715775h.909676q.576428 0 .851132-.220664.274704-.220664.274704-.675502 0-.819609-1.170869-.819609z"/><path d="m-63.49922 58.287337q-.472851 0-.824112-.09907v-1.161867q.360268.09007.657488.09007.459342 0 .657489-.288214.198147-.28371.198147-.891662v-6.169582h1.396037v6.160575q0 1.152857-.526892 1.756305-.526891.603448-1.558157.603448z"/><path d="m-56.43298 56.350899h-3.791816v-6.58389h3.791816v1.143849h-2.395779v1.445574h2.229155v1.14385h-2.229155v1.697761h2.395779z"/><path d="m-52.98743 56.350899h-1.396037v-5.422027h-1.787828v-1.161863h4.971692v1.161863h-1.787827z"/><path d="m-50.654205 56.350899v-6.58389h1.396037v6.58389z"/><path d="m-44.313005 49.767009h1.409547l-2.238162 6.58389h-1.52213l-2.233659-6.58389h1.409546l1.23842 3.91791q.103577.346757.211657.810602.112584.459341.139604.639475.04954-.414308.337751-1.450077z"/><path d="m-36.566761 53.049947q0 1.634714-.810602 2.512866-.810602.878153-2.323726.878153-1.513124 0-2.323726-.878153-.810602-.878152-.810602-2.521873 0-1.64372.810602-2.508363.815105-.869145 2.332733-.869145 1.517627 0 2.319222.873649.806099.873649.806099 2.512866zm-4.805069 0q0 1.10332.418811 1.661734.418811.558415 1.25193.558415 1.670741 0 1.670741-2.220149 0-2.224652-1.661734-2.224652-.833119 0-1.256434.562918-.423314.558415-.423314 1.661734z"/></g><g fill="#808080"><path d="m-17.403585 86.72997h.450335q.661992 0 .977226-.220664.315234-.220663.315234-.693515 0-.468347-.324241-.666495-.319737-.198147-.995239-.198147h-.423315zm0 1.134843v2.526377h-1.396036v-6.58389h1.918424q1.341997 0 1.985975.490864.643979.486361.643979 1.481601 0 .580931-.319738 1.035769-.319737.450334-.905172.707025 1.486104 2.220149 1.936438 2.868631h-1.54915l-1.571668-2.526377z"/><path d="m-9.3871391 90.39119h-3.7918159v-6.58389h3.7918159v1.143849h-2.3957789v1.445574h2.2291551v1.143849h-2.2291551v1.697761h2.3957789z"/><path d="m-4.5950892 88.562832q0 .891662-.6439783 1.405043-.6394749.513381-1.7833244.513381-1.0537827 0-1.8643847-.396294v-1.296963q.666495.297221 1.1258361.418811.4638445.12159.8466288.12159.4593412 0 .7025218-.17563.247684-.175631.247684-.522388 0-.193644-.1080803-.342254-.1080803-.153114-.3197375-.292718-.2071538-.139603-.8511321-.445831-.6034482-.283711-.9051723-.544905-.3017241-.261194-.4818579-.607951-.1801338-.346758-.1801338-.810602 0-.873649.5899382-1.37352.5944415-.499872 1.6392174-.499872.5133813 0 .9772258.121591.4683479.12159.9772258.342254l-.4503344 1.085306q-.5268914-.216161-.8736489-.301724-.3422542-.08556-.6755017-.08556-.3962943 0-.6079515.184638-.2116572.184637-.2116572.481857 0 .184638.085564.324241.085564.135101.2702007.265698.1891405.126093.8871589.459341.9231856.441327 1.2654398.887159.3422542.441327.3422542 1.085306z"/><path d="m1.489422 83.8073v4.260164q0 .729542-.3287441 1.27895-.32424085.549408-.94119906.842125-.61695822.292717-1.45908364.292717-1.2699432 0-1.972465-.648481-.7025218-.652985-.7025218-1.783325v-4.24215h1.3915335v4.030493q0 .761065.3062275 1.11683.3062274.355764 1.0132525.355764.68450841 0 .99073585-.355764.31073078-.360268.31073078-1.125837v-4.021486z"/><path d="m2.6337626 90.39119v-6.58389h1.3960368v5.431033h2.6704834v1.152857z"/><path d="m9.9161626 90.39119h-1.3960368v-5.422027h-1.7878278v-1.161863h4.971692v1.161863h-1.7878274z"/><path d="m16.279881 90.39119-.477354-1.567164h-2.400283l-.477354 1.567164h-1.504117l2.323725-6.61091h1.706768l2.332733 6.61091zm-.810602-2.738034q-.661991-2.130082-.747555-2.409289-.08106-.279208-.117087-.441328-.14861.576428-.851132 2.850617z"/><path d="m23.607314 87.036198q0 1.625707-.927689 2.490349-.923186.864643-2.670484.864643h-1.864384v-6.58389h2.067035q1.612197 0 2.503859.851132.891663.851132.891663 2.377766zm-1.450077.03603q0-2.121076-1.873392-2.121076h-.743052v4.287184h.598945q2.017499 0 2.017499-2.166108z"/><path d="m30.47991 87.090238q0 1.634714-.810602 2.512866-.810602.878152-2.323726.878152-1.513124 0-2.323726-.878152-.810602-.878152-.810602-2.521873 0-1.643721.810602-2.508363.815105-.869145 2.332732-.869145 1.517628 0 2.319223.873649.806099.873648.806099 2.512866zm-4.805069 0q0 1.103319.418811 1.661734.418811.558415 1.25193.558415 1.670741 0 1.670741-2.220149 0-2.224652-1.661735-2.224652-.833118 0-1.256433.562918-.423314.558415-.423314 1.661734z"/></g><g fill="#0a0a0a" transform="rotate(-90)"><path d="m-92.148184-47.983238q-.788085 0-1.220406.594442-.432322.589938-.432322 1.648224 0 2.202136 1.652728 2.202136.693515 0 1.679748-.346758v1.17087q-.810603.33775-1.810345.33775-1.436567 0-2.197632-.869145-.761065-.873649-.761065-2.50386 0-1.026762.373777-1.796834.373778-.774576 1.071796-1.18438.702522-.414308 1.643721-.414308.959212 0 1.927431.463845l-.450334 1.134843q-.369274-.175631-.743052-.306228-.373777-.130597-.734045-.130597z"/><path d="m-84.176772-49.05053v4.260164q0 .729542-.328744 1.27895-.324241.549408-.941199.842125-.616958.292717-1.459084.292717-1.269943 0-1.972465-.648481-.702522-.652985-.702522-1.783325v-4.24215h1.391534v4.030493q0 .761065.306227 1.11683.306228.355764 1.013253.355764.684508 0 .990736-.355764.310731-.360268.310731-1.125837v-4.021486z"/><path d="m-79.146044-44.294998q0 .891662-.643978 1.405043-.639475.513381-1.783325.513381-1.053782 0-1.864384-.396294v-1.296963q.666495.297221 1.125836.418811.463844.12159.846629.12159.459341 0 .702521-.17563.247684-.175631.247684-.522388 0-.193644-.10808-.342254-.10808-.153114-.319738-.292718-.207153-.139604-.851132-.445831-.603448-.283711-.905172-.544905-.301724-.261194-.481858-.607951-.180134-.346758-.180134-.810602 0-.873649.589939-1.37352.594441-.499872 1.639217-.499872.513381 0 .977226.121591.468348.12159.977226.342254l-.450335 1.085306q-.526891-.216161-.873649-.301724-.342254-.08556-.675501-.08556-.396295 0-.607952.184637-.211657.184638-.211657.481858 0 .184637.08556.324241.08556.1351.270201.265697.189141.126094.887159.459342.923186.441327 1.26544.887159.342254.441327.342254 1.085306z"/><path d="m-75.880627-42.46664h-1.396036v-5.422027h-1.787828v-1.161863h4.971692v1.161863h-1.787828z"/><path d="m-67.571465-45.767592q0 1.634714-.810602 2.512866-.810602.878152-2.323726.878152-1.513123 0-2.323725-.878152-.810603-.878152-.810603-2.521873 0-1.643721.810603-2.508363.815105-.869145 2.332732-.869145 1.517627 0 2.319223.873649.806098.873648.806098 2.512866zm-4.805068 0q0 1.103319.418811 1.661734.418811.558415 1.251929.558415 1.670741 0 1.670741-2.220149 0-2.224652-1.661734-2.224652-.833119 0-1.256433.562918-.423314.558414-.423314 1.661734z"/></g></g><g fill="#666" stroke-width=".268194"><path d="m61.497471 73.83197v-4.358466h.924162v4.358466z"/><path d="m67.07556 73.83197h-1.17458l-1.896022-3.297171h-.02683q.05664.873482.05664 1.246128v2.051043h-.825784v-4.358466h1.165637l1.893041 3.264378h.02087q-.04472-.849633-.04472-1.20141v-2.062968h.831746z"/><path d="m68.772169 73.83197h-.909256v-4.358466h2.498218v.757216h-1.588962v1.1239h1.478659v.754236h-1.478659z"/><path d="m74.860038 71.646775q0 1.082163-.53661 1.663491-.53661.581328-1.538282.581328-1.001672 0-1.538283-.581328-.53661-.581328-.53661-1.669454 0-1.088126.53661-1.66051.539592-.575365 1.544245-.575365 1.004653 0 1.535301.578347.533629.578346.533629 1.663491zm-3.180905 0q0 .730386.277248 1.10005.277249.369665.828765.369665 1.106013 0 1.106013-1.469715 0-1.472697-1.100051-1.472697-.551516 0-.831746.372646-.280229.369665-.280229 1.100051z"/><path d="m76.377777 71.408281h.298117q.438232 0 .646913-.146077.208682-.146077.208682-.4591 0-.310041-.214644-.441212-.211663-.131172-.658838-.131172h-.28023zm0 .751254v1.672435h-.924161v-4.358466h1.269977q.888387 0 1.314694.324947.426307.321966.426307.980804 0 .384571-.211663.685669-.211662.298116-.599214.468043.983785 1.469715 1.281902 1.899003h-1.025522l-1.040427-1.672435z"/><path d="m81.019781 73.83197-1.049371-3.419398h-.02683q.05664 1.043408.05664 1.392205v2.027193h-.825783v-4.358466h1.258052l1.031484 3.332945h.01789l1.094088-3.332945h1.258053v4.358466h-.861557v-2.062967q0-.146078.003-.336872.006-.190795.04174-1.013597h-.02683l-1.1239 3.413436z"/><path d="m87.2895 73.83197-.316004-1.037446h-1.588962l-.316004 1.037446h-.995709l1.538282-4.376353h1.129862l1.544245 4.376353zm-.53661-1.812549q-.438232-1.410092-.494874-1.594925-.05366-.184832-.07751-.292154-.09838.381589-.563441 1.887079z"/><path d="m90.375334 70.180041q-.521704 0-.807896.393514-.286192.390533-.286192 1.091107 0 1.45779 1.094088 1.45779.4591 0 1.111975-.229549v.775103q-.53661.223588-1.198429.223588-.950992 0-1.45481-.575366-.503817-.578346-.503817-1.657529 0-.679706.247437-1.189485.247437-.512761.709518-.784047.465062-.274268 1.088126-.274268.634988 0 1.275939.307061l-.298116.751254q-.244456-.116266-.491893-.20272-.247437-.08645-.48593-.08645zm.4591 4.397221q0 .381589-.226569.551516-.223588.169926-.694612.169926-.232531 0-.43525-.0626v-.500836q.08049.02087.214644.04174.137133.02087.211662.02087.214644 0 .214644-.184832 0-.247437-.494873-.321966l.232531-.4591h.575365l-.08049.181851q.220606.07155.351777.220607.131172.152039.131172.342834z"/><path d="m94.772881 73.83197-.316004-1.037446h-1.588962l-.316003 1.037446h-.99571l1.538282-4.376353h1.129862l1.544245 4.376353zm-.53661-1.812549q-.438231-1.410092-.494874-1.594925-.05366-.184832-.07751-.292154-.09838.381589-.563441 1.887079zm-1.061295-3.207736q-.09242 0-.17887.08049-.08347.07751-.122228.238494h-.444194q.03279-.432269.244456-.676725.214644-.244456.566421-.244456.122228 0 .238494.05068.119246.0477.232531.107322.116265.05664.226568.104341.110304.0477.217626.0477.09242 0 .175888-.07751.08645-.07751.125209-.238493h.444194q-.03279.432269-.250418.676725-.214644.244455-.560459.244455-.122228 0-.241475-.0477-.116265-.05068-.232531-.107322-.113284-.05962-.223587-.107322-.110303-.05068-.217625-.05068z"/><path d="m99.963417 71.646775q0 1.082163-.53661 1.663491-.53661.581328-1.538282.581328-1.001672 0-1.538282-.581328-.53661-.581328-.53661-1.669454 0-1.088126.53661-1.66051.539591-.575365 1.544244-.575365 1.004654 0 1.535301.578347.533629.578346.533629 1.663491zm-3.180905 0q0 .730386.277248 1.10005.277249.369665.828765.369665 1.106013 0 1.106013-1.469715 0-1.472697-1.100051-1.472697-.551516 0-.831745.372646-.28023.369665-.28023 1.100051z"/></g><g fill="#006da6" stroke-width=".296663" transform="rotate(-90)"><path d="m-88.307887 111.62244h.336357q.47156 0 .705691-.18467.234132-.18796.234132-.54411 0-.35944-.197858-.53091-.19456-.17148-.613358-.17148h-.464964zm2.308335-.76505q0 .77824-.488048 1.19044-.48475.4122-1.381703.4122h-.438584v1.71477h-1.022263v-4.82113h1.539989q.877168 0 1.33224.37923.458369.37593.458369 1.12449z"/><path d="m-84.409737 111.49383h.329762q.484751 0 .715584-.16158.230834-.16159.230834-.50784 0-.34295-.237429-.48805-.234131-.14509-.728775-.14509h-.309976zm0 .831v1.84997h-1.022263v-4.82113h1.404787q.982692 0 1.454251.35944.47156.35615.47156 1.08492 0 .4254-.234131.75846-.234131.32976-.662822.51772 1.088216 1.62573 1.417978 2.10059h-1.134382l-1.15087-1.84997z"/><path d="m-76.940263 111.75764q0 1.19704-.593572 1.84007-.593572.64304-1.701573.64304-1.108001 0-1.701573-.64304-.593572-.64303-.593572-1.84667 0-1.20363.593572-1.83677.59687-.63644 1.708168-.63644 1.111299 0 1.698276.63974.590274.63974.590274 1.84007zm-3.518563 0q0 .80792.306679 1.21682.306679.40891.916739.40891 1.223418 0 1.223418-1.62573 0-1.62903-1.216823-1.62903-.61006 0-.920036.41221-.309977.4089-.309977 1.21682z"/><path d="m-74.235851 110.13521q-.577084 0-.893656.43529-.316572.43198-.316572 1.20693 0 1.61253 1.210228 1.61253.507833 0 1.230013-.25391v.85738q-.593572.24732-1.325644.24732-1.051942 0-1.60924-.63644-.557298-.63974-.557298-1.83348 0-.75186.273703-1.31575.273702-.56719.784834-.86728.514429-.30338 1.203632-.30338.702393 0 1.411382.33966l-.329762.831q-.270405-.12861-.544108-.22424-.273703-.0956-.537512-.0956z"/><path d="m-69.546272 114.1748h-2.776598v-4.82113h2.776598v.8376h-1.754335v1.05854h1.632323v.83759h-1.632323v1.24321h1.754335z"/><path d="m-66.037243 112.83596q0 .65293-.47156 1.02886-.468262.37593-1.305858.37593-.771643 0-1.365215-.29019v-.94972q.488048.21765.824405.30668.339655.089.619953.089.336357 0 .514429-.12861.181369-.12861.181369-.38252 0-.1418-.07914-.25062-.07914-.11212-.234131-.21435-.15169-.10222-.62325-.32646-.441882-.20775-.662822-.39901-.220941-.19127-.352846-.44518-.131905-.25392-.131905-.59358 0-.63973.431989-1.00577.435286-.36604 1.200334-.36604.375929 0 .715584.089.342953.089.715584.25062l-.329762.79473q-.385822-.15829-.639739-.22095-.250619-.0627-.494643-.0627-.290191 0-.445179.1352-.154988.13521-.154988.35285 0 .1352.06265.23743.06265.0989.197858.19456.1385.0923.649631.33635.676013.32317.926632.64964.250619.32316.250619.79472z"/><path d="m-62.660116 112.83596q0 .65293-.47156 1.02886-.468262.37593-1.305858.37593-.771644 0-1.365216-.29019v-.94972q.488048.21765.824406.30668.339655.089.619953.089.336357 0 .514429-.12861.181369-.12861.181369-.38252 0-.1418-.07914-.25062-.07914-.11212-.234131-.21435-.151691-.10222-.623251-.32646-.441881-.20775-.662822-.39901-.22094-.19127-.352845-.44518-.131905-.25392-.131905-.59358 0-.63973.431988-1.00577.435286-.36604 1.200335-.36604.375929 0 .715584.089.342952.089.715584.25062l-.329762.79473q-.385822-.15829-.639739-.22095-.250619-.0627-.494643-.0627-.290191 0-.445179.1352-.154989.13521-.154989.35285 0 .1352.06266.23743.06265.0989.197857.19456.138501.0923.649632.33635.676013.32317.926632.64964.250619.32316.250619.79472z"/><path d="m-57.752894 111.75764q0 1.19704-.593572 1.84007-.593572.64304-1.701573.64304-1.108001 0-1.701573-.64304-.593572-.64303-.593572-1.84667 0-1.20363.593572-1.83677.596869-.63644 1.708168-.63644 1.111298 0 1.698275.63974.590275.63974.590275 1.84007zm-3.518563 0q0 .80792.306679 1.21682.306678.40891.916739.40891 1.223417 0 1.223417-1.62573 0-1.62903-1.216822-1.62903-.61006 0-.920037.41221-.309976.4089-.309976 1.21682z"/></g><g fill="#4d4d4d" stroke-width=".59709"><path d="m-39.135283 77.427567v-9.703383h2.057488v9.703383z"/><path d="m-26.716623 77.427567h-2.615002l-4.22117-7.340589h-.05973q.126104 1.944658.126104 2.774291v4.566298h-1.838465v-9.703383h2.59509l4.214534 7.267581h.04646q-.09956-1.891562-.09956-2.674735v-4.592846h1.85174z"/><path d="m-16.912964 72.482956q0 2.395979-1.367234 3.670295-1.360598 1.274316-3.935777 1.274316h-2.747743v-9.703383h3.04641q2.376068 0 3.690206 1.254404 1.314138 1.254405 1.314138 3.504368zm-2.137133.0531q0-3.126056-2.761018-3.126056h-1.095115v6.318482h.882729q2.973404 0 2.973404-3.192426z"/><path d="m-15.591468 77.427567v-9.703383h2.057489v9.703383z"/><path d="m-7.6594608 69.297167q-1.1614856 0-1.7986434.876092-.6371578.869455-.6371578 2.429165 0 3.245522 2.4358012 3.245522 1.0221073 0 2.4756236-.511054v1.725636q-1.1946709.49778-2.6680984.49778-2.1172223 0-3.2388854-1.280953-1.121663-1.28759-1.121663-3.690206 0-1.513249.550876-2.648187.550876-1.141574 1.57962-1.745547 1.0353815-.610609 2.4225272-.610609 1.4136939 0 2.8406619.683617l-.663706 1.672539q-.544239-.258845-1.095115-.45132-.5508761-.192475-1.0818409-.192475z"/><path d="m2.1309242 77.427567-.7035285-2.309698h-3.5375532l-.7035284 2.309698h-2.2167783l3.4247233-9.743205h2.51544592l3.43799738 9.743205zm-1.19467094-4.035333q-.9756479-3.13933-1.10175205-3.550828-.11946709-.411497-.17256357-.650432-.219023.849544-1.25440444 4.20126z"/><path d="m12.930142 72.482956q0 2.395979-1.367234 3.670295-1.360598 1.274316-3.935777 1.274316h-2.7477431v-9.703383h3.0464108q2.3760673 0 3.6902053 1.254404 1.314138 1.254405 1.314138 3.504368zm-2.137133.0531q0-3.126056-2.7610173-3.126056h-1.095115v6.318482h.8827291q2.9734032 0 2.9734032-3.192426z"/><path d="m23.059017 72.562601q0 2.409253-1.194671 3.70348-1.194671 1.294227-3.424723 1.294227-2.230053 0-3.424723-1.294227-1.194671-1.294227-1.194671-3.716754 0-2.422527 1.194671-3.696843 1.201307-1.280952 3.437997-1.280952 2.236689 0 3.418086 1.287589 1.188034 1.28759 1.188034 3.70348zm-7.081744 0q0 1.62608.617247 2.449075.617247.822996 1.845103.822996 2.462349 0 2.462349-3.272071 0-3.278708-2.449075-3.278708-1.227856 0-1.85174.829633-.623884.822995-.623884 2.449075z"/><path d="m26.437998 72.031636h.663706q.975648 0 1.440242-.325216.464595-.325216.464595-1.022107 0-.690254-.477869-.982285-.471231-.292031-1.46679-.292031h-.623884zm0 1.67254v3.723391h-2.057489v-9.703383h2.827388q1.977844 0 2.926944.72344.9491.716802.9491 2.183593 0 .85618-.471232 1.526523-.471231.663707-1.334049 1.042019 2.19023 3.272071 2.853936 4.227808h-2.283149l-2.316334-3.723391z"/></g><g fill="#009dee" stroke-width=".361997"><path d="m63.992235 51.556265h2.333832v3.050077q-.567363.185097-1.070344.257526-.498957.07645-1.022057.07645-1.331893 0-2.036067-.780626-.700149-.784651-.700149-2.249331 0-1.424442.812817-2.221164.816841-.796722 2.261402-.796722.905366 0 1.74635.362146l-.414456.997915q-.643816-.321908-1.339941-.321908-.808794 0-1.295679.543219-.486886.54322-.486886 1.460657 0 .957676.390313 1.464681.394337.50298 1.142773.50298.390313 0 .792698-.08048v-1.227274h-1.114606z"/><path d="m70.696405 54.859844h-3.38808v-5.882865h3.38808v1.022057h-2.140687v1.291655h1.991804v1.022058h-1.991804v1.51699h2.140687z"/><path d="m72.75303 51.588456h.402385q.591505 0 .873175-.197168.281669-.197169.281669-.619673 0-.41848-.289717-.595529-.285693-.17705-.88927-.17705h-.378242zm0 1.01401v2.257378h-1.247393v-5.882865h1.714159q1.199107 0 1.774517.438599.57541.434576.57541 1.323846 0 .519077-.285693.925485-.285693.402385-.808793.631744 1.327869 1.983757 1.730254 2.563191h-1.384203l-1.404323-2.257378z"/><path d="m79.915918 54.859844h-3.38808v-5.882865h3.38808v1.022057h-2.140687v1.291655h1.991804v1.022058h-1.991804v1.51699h2.140687z"/><path d="m85.944081 54.859844h-1.585396l-2.559168-4.450375h-.03621q.07645 1.178987.07645 1.681968v2.768407h-1.114607v-5.882865h1.573325l2.555143 4.406113h.02817q-.06036-1.146796-.06036-1.62161v-2.784503h1.122654z"/><path d="m89.505625 49.930631q-.704173 0-1.090462.531148-.38629.527124-.38629 1.472728 0 1.967661 1.476752 1.967661.619673 0 1.500896-.309836v1.046201q-.724293.301788-1.617587.301788-1.283608 0-1.963638-.776602-.68003-.780627-.68003-2.23726 0-.917437.333979-1.605515.33398-.692102.957676-1.058272.62772-.370194 1.468704-.370194.85708 0 1.722207.414456l-.402385 1.01401q-.329955-.15693-.663934-.273622-.33398-.116691-.655888-.116691z"/><path d="m91.839894 54.859844v-5.882865h1.247393v5.882865z"/><path d="m97.751365 54.859844-.426528-1.400299h-2.14471l-.426528 1.400299h-1.343965l2.076305-5.907008h1.525038l2.084353 5.907008zm-.724292-2.446499q-.591506-1.90328-.667959-2.152759-.07243-.249478-.10462-.394337-.132787.515053-.760507 2.547096z"/><path d="m101.90844 54.859844-1.41639-4.615353h-.0362q.0765 1.408347.0765 1.879137v2.736216h-1.11461v-5.882865h1.69806l1.39225 4.498662h.0241l1.47675-4.498662h1.69806v5.882865h-1.16289v-2.784502q0-.197169.004-.454695.008-.257526.0563-1.368108h-.0362l-1.51699 4.607305z"/><path d="m110.15777 54.859844h-3.38808v-5.882865h3.38808v1.022057h-2.14069v1.291655h1.99181v1.022058h-1.99181v1.51699h2.14069z"/><path d="m116.18593 54.859844h-1.5854l-2.55916-4.450375h-.0362q.0765 1.178987.0765 1.681968v2.768407h-1.11467v-5.882865h1.57332l2.55515 4.406113h.0282q-.0603-1.146796-.0603-1.62161v-2.784503h1.12265z"/><path d="m119.51812 54.859844h-1.2474v-4.844712h-1.59746v-1.038153h4.44232v1.038153h-1.59746z"/><path d="m126.94255 51.910364q0 1.460657-.72429 2.245307-.72429.78465-2.07631.78465-1.35201 0-2.0763-.78465-.72429-.78465-.72429-2.253355 0-1.468704.72429-2.241283.72832-.776603 2.08435-.776603 1.35604 0 2.07228.780627.72027.780626.72027 2.245307zm-4.29344 0q0 .985843.37421 1.4848.37422.498957 1.11863.498957 1.49285 0 1.49285-1.983757 0-1.987781-1.4848-1.987781-.74441 0-1.12265.502981-.37824.498957-.37824 1.4848z"/></g><g fill="#004367" stroke-width=".575779"><path d="m68.012862 36.885655h2.003261l-3.180897 9.357086h-2.163266l-3.174497-9.357086h2.003261l1.760054 5.56817q.147205.492815.300809 1.152035.160005.65282.198406.908828.0704-.588818.480015-2.060863z"/><path d="m76.257013 46.242741-.678421-2.227268h-3.411304l-.678421 2.227268h-2.137665l3.302501-9.395487h2.425674l3.315301 9.395487zm-1.152035-3.891319q-.940829-3.027293-1.062433-3.424105-.115203-.396812-.166405-.627219-.211206.819225-1.209637 4.051324z"/><path d="m78.907391 46.242741v-9.357086h1.984061v7.718636h3.795316v1.63845z"/><path d="m94.140555 41.551397q0 2.323271-1.152035 3.571309-1.152035 1.248039-3.302501 1.248039-2.150465 0-3.3025-1.248039-1.152036-1.248038-1.152036-3.584109 0-2.336071 1.152036-3.564909 1.158435-1.235238 3.315301-1.235238 2.156866 0 3.2961 1.241638 1.145635 1.241638 1.145635 3.571309zm-6.829008 0q0 1.568048.595218 2.361672.595218.793625 1.779254.793625 2.374473 0 2.374473-3.155297 0-3.161696-2.361672-3.161696-1.184036 0-1.785655.800024-.601618.793625-.601618 2.361672z"/><path d="m97.398952 41.039382h.640019q.940829 0 1.388843-.31361.448013-.313609.448013-.98563 0-.66562-.460814-.947229-.454414-.281608-1.414443-.281608h-.601618zm0 1.612849v3.59051h-1.984061v-9.357086h2.726483q1.907256 0 2.822486.697621.91523.691221.91523 2.105665 0 .825625-.45442 1.472044-.45441.64002-1.28643 1.004831 2.11206 3.155296 2.75208 4.076925h-2.20167l-2.233666-3.59051z"/></g><g fill="#005481" stroke-width=".405133"><path d="m-119.14855 75.797825q-.78809 0-1.22041.594442-.43232.589938-.43232 1.648224 0 2.202136 1.65273 2.202136.69351 0 1.67975-.346758v1.17087q-.8106.337751-1.81035.337751-1.43656 0-2.19763-.869146-.76106-.873649-.76106-2.50386 0-1.026762.37377-1.796834.37378-.774575 1.0718-1.18438.70252-.414308 1.64372-.414308.95921 0 1.92743.463845l-.45033 1.134843q-.36928-.175631-.74306-.306228-.37377-.130597-.73404-.130597z"/><path d="m-110.56018 78.013471q0 1.634714-.8106 2.512866-.8106.878153-2.32373.878153-1.51312 0-2.32372-.878153-.81061-.878152-.81061-2.521873 0-1.643721.81061-2.508363.8151-.869145 2.33273-.869145 1.51763 0 2.31922.873649.8061.873649.8061 2.512866zm-4.80507 0q0 1.103319.41881 1.661734.41881.558415 1.25193.558415 1.67074 0 1.67074-2.220149 0-2.224652-1.66173-2.224652-.83312 0-1.25643.562918-.42332.558415-.42332 1.661734z"/><path d="m-103.82268 81.314423h-1.77432l-2.86413-4.9807h-.0405q.0856 1.31948.0856 1.882398v3.098302h-1.24742v-6.58389h1.76081l2.85962 4.931162h.0315q-.0675-1.283453-.0675-1.814848v-3.116314h1.25644z"/><path d="m-97.238303 81.314423h-1.391534v-2.841611h-2.607433v2.841611h-1.39604v-6.58389h1.39604v2.580416h2.607433v-2.580416h1.391534z"/><path d="m-92.252608 81.314423h-3.791816v-6.58389h3.791816v1.143849h-2.395779v1.445574h2.229156v1.143849h-2.229156v1.697761h2.395779z"/><path d="m-88.550368 75.797825q-.788085 0-1.220406.594442-.432321.589938-.432321 1.648224 0 2.202136 1.652727 2.202136.693516 0 1.679748-.346758v1.17087q-.810602.337751-1.810345.337751-1.436566 0-2.197632-.869146-.761065-.873649-.761065-2.50386 0-1.026762.373778-1.796834.373777-.774575 1.071796-1.18438.702521-.414308 1.64372-.414308.959213 0 1.927432.463845l-.450335 1.134843q-.369274-.175631-.743051-.306228-.373778-.130597-.734046-.130597z"/><path d="m-85.937937 81.314423v-6.58389h1.396037v6.58389z"/><path d="m-80.564955 81.314423-1.585177-5.165337h-.04053q.08556 1.576171.08556 2.103062v3.062275h-1.247426v-6.58389h1.900411l1.558157 5.034739h.02702l1.652728-5.034739h1.900411v6.58389h-1.301466v-3.116315q0-.220664.0045-.508878.009-.288214.06305-1.531137h-.04053l-1.697761 5.15633z"/><path d="m-71.332606 81.314423h-3.791816v-6.58389h3.791816v1.143849h-2.395779v1.445574h2.229156v1.143849h-2.229156v1.697761h2.395779z"/><path d="m-64.586105 81.314423h-1.774317l-2.864128-4.9807h-.04053q.08556 1.31948.08556 1.882398v3.098302h-1.247427v-6.58389h1.760808l2.859624 4.931162h.03152q-.06755-1.283453-.06755-1.814848v-3.116314h1.256433z"/><path d="m-60.856844 81.314423h-1.396037v-5.422027h-1.787827v-1.161863h4.971692v1.161863h-1.787828z"/><path d="m-52.54768 78.013471q0 1.634714-.810602 2.512866-.810602.878153-2.323726.878153-1.513124 0-2.323726-.878153-.810602-.878152-.810602-2.521873 0-1.643721.810602-2.508363.815106-.869145 2.332733-.869145 1.517627 0 2.319222.873649.806099.873649.806099 2.512866zm-4.805069 0q0 1.103319.418811 1.661734.418811.558415 1.25193.558415 1.670741 0 1.670741-2.220149 0-2.224652-1.661734-2.224652-.833119 0-1.256433.562918-.423315.558415-.423315 1.661734z"/></g><g fill="#0a0a0a" stroke-width=".405133"><path d="m-103.71703 45.955242-1.58518-5.165336h-.0405q.0856 1.57617.0856 2.103062v3.062274h-1.24743v-6.58389h1.90041l1.55816 5.03474h.027l1.65273-5.03474h1.900409v6.58389h-1.301469v-3.116314q0-.220664.005-.508878.009-.288214.063-1.531137h-.0405l-1.69776 5.156329z"/><path d="m-94.48468 45.955242h-3.791817v-6.58389h3.791817v1.14385h-2.39578v1.445573h2.229156v1.14385h-2.229156v1.697761h2.39578z"/><path d="m-92.18298 42.294023h.450335q.661992 0 .977226-.220664.315234-.220664.315234-.693515 0-.468348-.324241-.666495-.319738-.198147-.995239-.198147h-.423315zm0 1.134843v2.526376h-1.396036v-6.58389h1.918424q1.341997 0 1.985975.490865.643979.486361.643979 1.4816 0 .580932-.319738 1.03577-.319737.450334-.905172.707025 1.486104 2.220149 1.936438 2.86863h-1.54915l-1.571668-2.526376z"/><path d="m-85.161774 40.438645q-.788085 0-1.220406.594441-.432321.589939-.432321 1.648225 0 2.202135 1.652727 2.202135.693515 0 1.679748-.346757v1.170869q-.810602.337751-1.810345.337751-1.436567 0-2.197632-.869145-.761065-.873649-.761065-2.50386 0-1.026763.373777-1.796835.373778-.774575 1.071796-1.184379.702522-.414308 1.643721-.414308.959213 0 1.927432.463845l-.450335 1.134842q-.369274-.17563-.743052-.306227-.373777-.130597-.734045-.130597z"/><path d="m-78.518848 45.955242-.477354-1.567164h-2.400283l-.477354 1.567164h-1.504117l2.323725-6.61091h1.706768l2.332733 6.61091zm-.810602-2.738033q-.661991-2.130082-.747555-2.40929-.08106-.279207-.117087-.441328-.14861.576429-.851132 2.850618z"/><path d="m-71.191413 42.60025q0 1.625708-.927689 2.49035-.923186.864642-2.670484.864642h-1.864384v-6.58389h2.067035q1.612197 0 2.503859.851132.891663.851133.891663 2.377766zm-1.450077.03603q0-2.121075-1.873392-2.121075h-.743052v4.287184h.598945q2.017499 0 2.017499-2.166109z"/><path d="m-64.318817 42.654291q0 1.634714-.810602 2.512866-.810602.878152-2.323726.878152-1.513124 0-2.323726-.878152-.810602-.878152-.810602-2.521873 0-1.643721.810602-2.508363.815105-.869146 2.332732-.869146 1.517628 0 2.319223.873649.806099.873649.806099 2.512867zm-4.805069 0q0 1.103319.418811 1.661734.418811.558414 1.25193.558414 1.670741 0 1.670741-2.220148 0-2.224653-1.661735-2.224653-.833118 0-1.256433.562918-.423314.558415-.423314 1.661735z"/></g><g stroke-width=".505596"><path d="m66.229565 65.533432h-4.732097v-8.21654h4.732097v1.427497h-2.989876v1.804042h2.781934v1.427498h-2.781934v2.118765h2.989876z"/><path d="m74.649042 65.533432h-2.214307l-3.574363-6.215796h-.05058q.106781 1.64668.106781 2.349189v3.866607h-1.556759v-8.21654h2.197447l3.568744 6.153975h.03934q-.0843-1.60172-.0843-2.264888v-3.889087h1.567999z"/><path d="m80.865452 65.533432h-4.732097v-8.21654h4.732097v1.427497h-2.989876v1.804042h2.781934v1.427498h-2.781934v2.118765h2.989876z"/><path d="m83.737921 60.964316h.562007q.82615 0 1.219554-.275383.393405-.275383.393405-.86549 0-.584488-.404645-.831771-.399025-.247283-1.242035-.247283h-.528286zm0 1.416258v3.152858h-1.742221v-8.21654h2.394149q1.67478 0 2.47845.612587.80367.606968.80367 1.849003 0 .724989-.399025 1.292616-.399025.562007-1.129634.88235 1.854623 2.770694 2.416629 3.579984h-1.933303l-1.961404-3.152858z"/><path d="m92.129297 60.919356h3.25964v4.260012q-.79243.258523-1.494938.359684-.696889.106781-1.427498.106781-1.860242 0-2.843754-1.090293-.977892-1.095913-.977892-3.141618 0-1.989504 1.135254-3.102278 1.140873-1.112773 3.158478-1.112773 1.264515 0 2.43911.505806l-.578867 1.393777q-.899211-.449606-1.871483-.449606-1.129634 0-1.809662.758709-.680028.75871-.680028 2.040085 0 1.337577.545146 2.045705.550767.702509 1.5961.702509.545146 0 1.107153-.112402v-1.714121h-1.556759z"/><path d="m96.76085 65.533432v-8.21654h1.742221v8.21654z"/><path d="m105.01734 65.533432-.59572-1.955784h-2.9955l-.59573 1.955784h-1.877101l2.899951-8.25026h2.13001l2.9112 8.25026zm-1.01161-3.417002q-.82615-2.658292-.93293-3.006736-.10116-.348444-.14612-.550767-.18546.719369-1.0622 3.557503z"/></g><g fill="#0089d0" stroke-width=".294834" transform="rotate(-90)"><path d="m-92.041484 106.82877-.347394-1.1405h-1.7468l-.347394 1.1405h-1.094618l1.691087-4.81107h1.242096l1.697641 4.81107zm-.589914-1.99259q-.481763-1.55017-.544031-1.75336-.05899-.20319-.08521-.32118-.108151.4195-.61941 2.07454z"/><path d="m-87.856015 105.49819q0 .64891-.468654 1.02252-.465376.37361-1.297811.37361-.766888 0-1.356802-.2884v-.94387q.485041.21631.819325.30479.337562.0885.616133.0885.334284 0 .511258-.12781.180252-.12782.180252-.38017 0-.14092-.07865-.24908-.07866-.11142-.232689-.21302-.150755-.1016-.619409-.32445-.439158-.20647-.658737-.39656-.21958-.19008-.350672-.44243-.131092-.25235-.131092-.58992 0-.63579.429327-.99957.432603-.36378 1.192937-.36378.373612 0 .711174.0885.340839.0885.711174.24907l-.32773.78983q-.383444-.15731-.635796-.21958-.249075-.0623-.491595-.0623-.288403 0-.442436.13437-.154033.13437-.154033.35067 0 .13437.06227.23597.06227.0983.196638.19336.137647.0918.645628.33428.671846.32118.920921.64563.249075.32118.249075.78983z"/><path d="m-86.312049 104.29214h.334284q.468654 0 .701342-.18353.232689-.1868.232689-.54075 0-.35723-.196638-.52764-.193361-.17042-.609578-.17042h-.462099zm2.294109-.76033q0 .77344-.48504 1.18311-.481763.40966-1.373189.40966h-.43588v1.70419h-1.015963v-4.79141h1.530499q.871761 0 1.324029.37689.455544.37361.455544 1.11756z"/><path d="m-80.694401 106.82877h-2.759486v-4.79141h2.759486v.83244h-1.743523v1.05201h1.622263v.83243h-1.622263v1.23554h1.743523z"/><path d="m-78.000103 102.81408q-.573528 0-.888148.4326-.314621.42933-.314621 1.1995 0 1.6026 1.202769 1.6026.504704 0 1.222433-.25236v.8521q-.589914.2458-1.317475.2458-1.045459 0-1.599322-.63252-.553864-.6358-.553864-1.82218 0-.74722.272016-1.30764.272016-.5637.779997-.86193.511259-.30151 1.196215-.30151.698065 0 1.402684.33756l-.32773.82588q-.268739-.12782-.540754-.22286-.272016-.095-.5342-.095z"/><path d="m-74.250515 106.82877h-1.015963v-3.94587h-1.301088v-.84554h3.618139v.84554h-1.301088z"/><path d="m-68.203541 104.42651q0 1.18966-.589914 1.82874-.589914.63907-1.691086.63907-1.101173 0-1.691087-.63907-.589914-.63908-.589914-1.83529 0-1.19622.589914-1.82546.593191-.63252 1.697641-.63252 1.10445 0 1.68781.6358.586636.6358.586636 1.82873zm-3.496878 0q0 .80294.304788 1.20933.304789.40638.91109.40638 1.215878 0 1.215878-1.61571 0-1.61898-1.209324-1.61898-.6063 0-.914366.40966-.308066.40638-.308066 1.20932z"/></g></g></svg>