<svg height="288.12613" viewBox="0 0 270.93333 76.233374" width="1024" xmlns="http://www.w3.org/2000/svg"><g transform="matrix(.22987642 0 0 .22987642 -84.211004 -95.865067)"><ellipse cx="1434.3887" cy="555.6032" fill="#f2f2f2" fill-opacity=".890151" rx="84.085182" ry="84.06768"/><g fill="#808080" stroke-width="1.05425"><g transform="translate(0 1877.4803)"><path d="m1378.1085-1153.6263q0 5.9509-2.9509 9.1477-2.9509 3.1969-8.4593 3.1969-5.5083 0-8.4592-3.1969-2.9509-3.1968-2.9509-9.1805 0-5.9838 2.9509-9.1314 2.9673-3.1641 8.492-3.1641 5.5247 0 8.4429 3.1805 2.9345 3.1804 2.9345 9.1478zm-17.4923 0q0 4.0165 1.5246 6.0493 1.5246 2.0328 4.5575 2.0328 6.0821 0 6.0821-8.0821 0-8.0986-6.0493-8.0986-3.0329 0-4.5739 2.0492-1.541 2.0329-1.541 6.0494z"/><path d="m1392.7482-1141.2817q-3.2296 0-5.0657-2.3444h-.2623q.2623 2.2952.2623 2.6558v7.4265h-5.0001v-26.3942h4.0656l.705 2.3771h.2295q1.7541-2.7214 5.1969-2.7214 3.246 0 5.0821 2.5083 1.8361 2.5083 1.8361 6.9674 0 2.9345-.8689 5.0985-.8525 2.164-2.4427 3.2952-1.5902 1.1312-3.7378 1.1312zm-1.4754-15.0005q-1.8526 0-2.705 1.1476-.8525 1.1312-.8853 3.7542v.541q0 2.9509.8689 4.2296.8852 1.2788 2.7869 1.2788 3.3608 0 3.3608-5.5412 0-2.705-.8361-4.0493-.8197-1.3607-2.5902-1.3607z"/><path d="m1411.5192-1156.7248q-1.5902 0-2.4919 1.0164-.9016 1.0001-1.0328 2.8526h7.0166q-.033-1.8525-.9672-2.8526-.9345-1.0164-2.5247-1.0164zm.705 15.4431q-4.4264 0-6.9183-2.4427-2.4918-2.4427-2.4918-6.9183 0-4.6066 2.2951-7.1149 2.3115-2.5247 6.3772-2.5247 3.8854 0 6.0494 2.2132 2.164 2.2132 2.164 6.1149v2.4263h-11.82q.082 2.1312 1.2623 3.328 1.1804 1.1967 3.3116 1.1967 1.6558 0 3.1312-.3442 1.4755-.3443 3.0821-1.0984v3.8689q-1.3116.6558-2.8034.9673-1.4918.3279-3.6394.3279z"/><path d="m1433.9952-1160.2823q1.0165 0 1.6886.1476l-.377 4.6886q-.6066-.1639-1.4755-.1639-2.3935 0-3.7378 1.2295-1.3279 1.2296-1.3279 3.4428v9.3281h-5.0001v-18.3284h3.7869l.7378 3.0821h.2459q.8525-1.5411 2.2951-2.4755 1.4591-.9509 3.164-.9509z"/><path d="m1450.6514-1141.6096-.9672-2.4919h-.1311q-1.2624 1.5902-2.6067 2.2132-1.3279.6066-3.4755.6066-2.6394 0-4.164-1.5083-1.5083-1.5082-1.5083-4.2952 0-2.9181 2.0329-4.2952 2.0492-1.3935 6.1641-1.541l3.1804-.098v-.8033q0-2.7869-2.8525-2.7869-2.1968 0-5.1641 1.3279l-1.6558-3.3772q3.164-1.6558 7.0166-1.6558 3.6886 0 5.6559 1.6066 1.9672 1.6066 1.9672 4.8854v12.2135zm-1.4754-8.4921-1.9345.066q-2.1804.066-3.246.7869-1.0656.7214-1.0656 2.1968 0 2.1148 2.4263 2.1148 1.7378 0 2.7706-1 1.0492-1 1.0492-2.6558z"/><path d="m1466.7339-1141.2817q-8.5577 0-8.5577-9.3937 0-4.6723 2.328-7.1314 2.3279-2.4755 6.6723-2.4755 3.1804 0 5.7051 1.246l-1.4755 3.8689q-1.1803-.4754-2.1968-.7705-1.0164-.3115-2.0328-.3115-3.9018 0-3.9018 5.5412 0 5.3772 3.9018 5.3772 1.4427 0 2.6722-.3771 1.2295-.3934 2.4591-1.2131v4.2788q-1.2132.7705-2.4591 1.0656-1.2295.2951-3.1148.2951zm3.1312 3.7706q0 2.0984-1.2459 3.0328-1.2296.9345-3.8198.9345-1.2787 0-2.3935-.3443v-2.7542q.4426.1148 1.1803.2295.7542.1148 1.164.1148 1.1804 0 1.1804-1.0164 0-1.3607-2.7214-1.7706l1.2787-2.5246h3.164l-.4426 1q1.2131.3935 1.9345 1.2132.7213.836.7213 1.8853z"/><path d="m1488.1935-1141.6096-.9673-2.4919h-.1311q-1.2624 1.5902-2.6067 2.2132-1.3279.6066-3.4755.6066-2.6394 0-4.164-1.5083-1.5082-1.5082-1.5082-4.2952 0-2.9181 2.0328-4.2952 2.0492-1.3935 6.1641-1.541l3.1804-.098v-.8033q0-2.7869-2.8525-2.7869-2.1968 0-5.1641 1.3279l-1.6558-3.3772q3.164-1.6558 7.0166-1.6558 3.6886 0 5.6559 1.6066 1.9673 1.6066 1.9673 4.8854v12.2135zm-1.4755-8.4921-1.9345.066q-2.1804.066-3.246.7869-1.0656.7214-1.0656 2.1968 0 2.1148 2.4263 2.1148 1.7378 0 2.7706-1 1.0492-1 1.0492-2.6558zm-5.1313-13.5741q-.5082 0-.9836.4426-.459.4263-.6722 1.3115h-2.4426q.1803-2.3771 1.3443-3.7214 1.1803-1.3443 3.1148-1.3443.6721 0 1.3115.2787.6558.2623 1.2787.5902.6394.3115 1.246.5738.6065.2623 1.1967.2623.5082 0 .9673-.4262.4754-.4263.6885-1.3116h2.4427q-.1803 2.3772-1.3771 3.7215-1.1804 1.3443-3.082 1.3443-.6722 0-1.328-.2623-.6393-.2787-1.2787-.5902-.6229-.3279-1.2295-.5902-.6066-.2787-1.1968-.2787z"/><path d="m1500.8168-1150.8066q0 2.7214.8852 4.1149.9017 1.3935 2.9182 1.3935 2 0 2.8689-1.3771.8853-1.3935.8853-4.1313 0-2.7214-.8853-4.0821-.8853-1.3607-2.9017-1.3607-2.0001 0-2.8854 1.3607-.8852 1.3443-.8852 4.0821zm12.6725 0q0 4.4755-2.3608 7.0002-2.3607 2.5247-6.5739 2.5247-2.6394 0-4.6559-1.1476-2.0164-1.164-3.0984-3.328-1.082-2.164-1.082-5.0493 0-4.4919 2.3443-6.9838 2.3443-2.4919 6.5903-2.4919 2.6395 0 4.6559 1.1476 2.0165 1.1476 3.0985 3.2952 1.082 2.1476 1.082 5.0329z"/></g><g transform="translate(0 1877.4803)"><path d="m1007.8358-1141.4937v-23.9678h5.0821v23.9678z"/><path d="m1034.9677-1141.4937h-5.0002v-10.7052q0-1.9836-.6721-2.9673-.6558-1-2.0821-1-1.918 0-2.7869 1.4099-.8689 1.4099-.8689 4.6395v8.6231h-5.0001v-18.3283h3.8197l.6722 2.3443h.2787q.7377-1.2623 2.1312-1.9673 1.3935-.7213 3.1968-.7213 4.1149 0 5.5739 2.6886h.4427q.7377-1.2787 2.164-1.9837 1.4426-.7049 3.2459-.7049 3.1149 0 4.7051 1.6066 1.6066 1.5902 1.6066 5.1149v11.9511h-5.0165v-10.7052q0-1.9836-.6722-2.9673-.6557-1-2.082-1-1.8361 0-2.7542 1.3115-.9016 1.3115-.9016 4.1641z"/><path d="m1061.5913-1141.1658q-3.2296 0-5.0657-2.3443h-.2623q.2623 2.2951.2623 2.6558v7.4264h-5.0001v-26.3941h4.0657l.7049 2.3771h.2295q1.7542-2.7214 5.1969-2.7214 3.246 0 5.0821 2.5083 1.8361 2.5082 1.8361 6.9674 0 2.9345-.8689 5.0985-.8524 2.164-2.4427 3.2951-1.5902 1.1312-3.7378 1.1312zm-1.4754-15.0004q-1.8525 0-2.705 1.1476-.8525 1.1312-.8853 3.7542v.541q0 2.9509.8689 4.2296.8853 1.2787 2.787 1.2787 3.3607 0 3.3607-5.5411 0-2.705-.8361-4.0493-.8197-1.3607-2.5902-1.3607z"/><path d="m1077.7721-1141.4937h-5.0001v-25.5089h5.0001z"/><path d="m1090.6085-1156.6088q-1.5902 0-2.4918 1.0164-.9017 1-1.0329 2.8525h7.0166q-.033-1.8525-.9672-2.8525-.9345-1.0164-2.5247-1.0164zm.705 15.443q-4.4264 0-6.9183-2.4427-2.4918-2.4427-2.4918-6.9182 0-4.6067 2.2951-7.1149 2.3116-2.5247 6.3772-2.5247 3.8854 0 6.0494 2.2132 2.164 2.2132 2.164 6.1149v2.4263h-11.82q.082 2.1312 1.2623 3.328 1.1804 1.1967 3.3116 1.1967 1.6558 0 3.1312-.3443 1.4755-.3442 3.0821-1.0984v3.869q-1.3115.6558-2.8034.9672-1.4918.3279-3.6394.3279z"/><path d="m1119.2651-1141.4937h-5.0002v-10.7052q0-1.9836-.6721-2.9673-.6558-1-2.082-1-1.9181 0-2.787 1.4099-.8689 1.4099-.8689 4.6395v8.6231h-5.0001v-18.3283h3.8198l.6721 2.3443h.2787q.7377-1.2623 2.1312-1.9673 1.3935-.7213 3.1968-.7213 4.1149 0 5.5739 2.6886h.4427q.7377-1.2787 2.164-1.9837 1.4426-.7049 3.246-.7049 3.1148 0 4.705 1.6066 1.6066 1.5902 1.6066 5.1149v11.9511h-5.0165v-10.7052q0-1.9836-.6722-2.9673-.6557-1-2.082-1-1.8361 0-2.7542 1.3115-.9016 1.3115-.9016 4.1641z"/><path d="m1143.4133-1156.6088q-1.5902 0-2.4919 1.0164-.9017 1-1.0328 2.8525h7.0166q-.033-1.8525-.9673-2.8525-.9344-1.0164-2.5246-1.0164zm.7049 15.443q-4.4263 0-6.9182-2.4427-2.4919-2.4427-2.4919-6.9182 0-4.6067 2.2952-7.1149 2.3115-2.5247 6.3772-2.5247 3.8853 0 6.0493 2.2132 2.164 2.2132 2.164 6.1149v2.4263h-11.82q.082 2.1312 1.2624 3.328 1.1803 1.1967 3.3115 1.1967 1.6558 0 3.1313-.3443 1.4754-.3442 3.082-1.0984v3.869q-1.3115.6558-2.8033.9672-1.4919.3279-3.6395.3279z"/><path d="m1172.578-1141.4937h-5.0001v-10.7052q0-1.9836-.705-2.9673-.7049-1-2.2459-1-2.0985 0-3.0329 1.4099-.9345 1.3935-.9345 4.6395v8.6231h-5.0001v-18.3283h3.8198l.6721 2.3443h.2787q.8361-1.3279 2.2952-2.0001 1.4754-.6885 3.3443-.6885 3.1968 0 4.8526 1.7378 1.6558 1.7213 1.6558 4.9837z"/><path d="m1185.4472-1145.1495q1.3115 0 3.1477-.5738v3.7214q-1.869.8361-4.5903.8361-3.0001 0-4.3772-1.5082-1.3607-1.5246-1.3607-4.5575v-8.8363h-2.3935v-2.1148l2.7542-1.6722 1.4426-3.869h3.1968v3.9018h5.1313v3.7542h-5.1313v8.8363q0 1.0656.5902 1.5738.6066.5082 1.5902.5082z"/><path d="m1203.9395-1141.4937-.9672-2.4918h-.1312q-1.2623 1.5902-2.6066 2.2132-1.3279.6065-3.4755.6065-2.6394 0-4.164-1.5082-1.5083-1.5083-1.5083-4.2952 0-2.9181 2.0329-4.2952 2.0492-1.3935 6.1641-1.541l3.1804-.098v-.8033q0-2.787-2.8525-2.787-2.1968 0-5.1641 1.3279l-1.6558-3.3771q3.164-1.6558 7.0166-1.6558 3.6886 0 5.6559 1.6066 1.9672 1.6066 1.9672 4.8854v12.2134zm-1.4754-8.492-1.9345.066q-2.1804.066-3.246.7869-1.0656.7213-1.0656 2.1968 0 2.1148 2.4263 2.1148 1.7378 0 2.7706-1 1.0492-1.0001 1.0492-2.6559z"/><path d="m1220.022-1141.1658q-8.5577 0-8.5577-9.3937 0-4.6722 2.328-7.1313 2.3279-2.4755 6.6723-2.4755 3.1804 0 5.7051 1.2459l-1.4755 3.869q-1.1803-.4754-2.1968-.7705-1.0164-.3115-2.0328-.3115-3.9018 0-3.9018 5.5411 0 5.3772 3.9018 5.3772 1.4427 0 2.6722-.377 1.2295-.3935 2.4591-1.2132v4.2788q-1.2132.7705-2.4591 1.0656-1.2295.2951-3.1148.2951zm3.1312 3.7706q0 2.0984-1.2459 3.0329-1.2296.9344-3.8198.9344-1.2788 0-2.3935-.3442v-2.7542q.4426.1148 1.1803.2295.7541.1148 1.164.1148 1.1804 0 1.1804-1.0165 0-1.3606-2.7214-1.7705l1.2787-2.5247h3.164l-.4426 1.0001q1.2131.3934 1.9345 1.2131.7213.8361.7213 1.8853z"/><path d="m1241.4816-1141.4937-.9673-2.4918h-.1311q-1.2624 1.5902-2.6067 2.2132-1.3279.6065-3.4755.6065-2.6394 0-4.164-1.5082-1.5083-1.5083-1.5083-4.2952 0-2.9181 2.0329-4.2952 2.0492-1.3935 6.1641-1.541l3.1804-.098v-.8033q0-2.787-2.8525-2.787-2.1968 0-5.1641 1.3279l-1.6558-3.3771q3.164-1.6558 7.0166-1.6558 3.6886 0 5.6559 1.6066 1.9673 1.6066 1.9673 4.8854v12.2134zm-1.4755-8.492-1.9345.066q-2.1804.066-3.246.7869-1.0656.7213-1.0656 2.1968 0 2.1148 2.4263 2.1148 1.7378 0 2.7706-1 1.0492-1.0001 1.0492-2.6559zm-5.1313-13.5741q-.5082 0-.9836.4426-.459.4262-.6722 1.3115h-2.4427q.1804-2.3771 1.3443-3.7214 1.1804-1.3443 3.1149-1.3443.6721 0 1.3115.2787.6558.2623 1.2787.5902.6394.3115 1.246.5738.6065.2623 1.1967.2623.5082 0 .9673-.4263.4754-.4262.6885-1.3115h2.4427q-.1803 2.3771-1.3771 3.7214-1.1804 1.3443-3.0821 1.3443-.6721 0-1.3279-.2623-.6393-.2787-1.2787-.5902-.6229-.3278-1.2295-.5901-.6066-.2787-1.1968-.2787z"/><path d="m1254.1049-1150.6906q0 2.7214.8852 4.1148.9017 1.3935 2.9181 1.3935 2.0001 0 2.869-1.3771.8852-1.3934.8852-4.1312 0-2.7214-.8852-4.0821-.8853-1.3607-2.9017-1.3607-2.0001 0-2.8854 1.3607-.8852 1.3443-.8852 4.0821zm12.6724 0q0 4.4755-2.3607 7.0002-2.3607 2.5246-6.5739 2.5246-2.6394 0-4.6559-1.1475-2.0164-1.164-3.0984-3.328-1.082-2.164-1.082-5.0493 0-4.492 2.3443-6.9838 2.3443-2.4919 6.5903-2.4919 2.6395 0 4.6559 1.1476 2.0165 1.1475 3.0984 3.2951 1.082 2.1476 1.082 5.033z"/></g><g transform="matrix(1.3989455 0 0 1.3989455 -165.53641 -1687.2522)"><path d="m409.16016 1716.2222q-2.05079 0-3.17579 1.5469-1.125 1.5351-1.125 4.289 0 5.7305 4.30079 5.7305 1.80468 0 4.37109-.9023v3.0468q-2.10938.879-4.71094.879-3.73828 0-5.71875-2.2618-1.98047-2.2734-1.98047-6.5156 0-2.6719.97266-4.6758.97266-2.0156 2.78906-3.082 1.82813-1.0781 4.27735-1.0781 2.49609 0 5.01562 1.207l-1.17187 2.9531q-.96094-.457-1.9336-.7968-.97265-.3399-1.91015-.3399z"/><path d="m419.74219 1724.0035q0 1.9453.63281 2.9414.64453.9961 2.08594.9961 1.42968 0 2.05078-.9844.63281-.9961.63281-2.9531 0-1.9454-.63281-2.918-.63281-.9727-2.07422-.9727-1.42969 0-2.0625.9727-.63281.9609-.63281 2.918zm9.05859 0q0 3.1992-1.6875 5.0039-1.6875 1.8047-4.69922 1.8047-1.88672 0-3.32812-.8204-1.44141-.832-2.21485-2.3789-.77343-1.5468-.77343-3.6093 0-3.211 1.67578-4.9922 1.67578-1.7813 4.71093-1.7813 1.88672 0 3.32813.8203 1.44141.8203 2.21484 2.3555.77344 1.5352.77344 3.5977z"/><path d="m443.84766 1730.5777h-3.57422v-7.6524q0-1.4179-.50391-2.1211-.50391-.7148-1.60547-.7148-1.5 0-2.16797 1.0078-.66797.9961-.66797 3.3164v6.1641h-3.57421v-13.1016h2.73046l.48047 1.6758h.19922q.59766-.9492 1.64063-1.4297 1.05468-.4922 2.39062-.4922 2.28516 0 3.46875 1.2422 1.1836 1.2305 1.1836 3.5625z"/><path d="m452.84766 1730.8121q-6.11719 0-6.11719-6.7149 0-3.3398 1.66406-5.0976 1.66406-1.7696 4.76953-1.7696 2.27344 0 4.07813.8906l-1.05469 2.7657q-.84375-.3399-1.57031-.5508-.72657-.2227-1.45313-.2227-2.78906 0-2.78906 3.961 0 3.8437 2.78906 3.8437 1.03125 0 1.91016-.2695.8789-.2813 1.75781-.8672v3.0586q-.86719.5508-1.75781.7617-.87891.211-2.22656.211z"/><path d="m465.29297 1719.773q-1.13672 0-1.78125.7266-.64453.7148-.73828 2.039h5.01562q-.0234-1.3242-.6914-2.039-.66797-.7266-1.80469-.7266zm.5039 11.0391q-3.16406 0-4.94531-1.7461-1.78125-1.7461-1.78125-4.9454 0-3.2929 1.64063-5.0859 1.65234-1.8047 4.55859-1.8047 2.77734 0 4.32422 1.5821 1.54687 1.582 1.54687 4.371v1.7344h-8.44921q.0586 1.5235.90234 2.3789.84375.8555 2.36719.8555 1.18359 0 2.23828-.2461 1.05469-.2461 2.20312-.7852v2.7657q-.9375.4687-2.0039.6914-1.06641.2344-2.60157.2344z"/><path d="m473.89453 1714.0894q0-1.7461 1.94531-1.7461 1.94532 0 1.94532 1.7461 0 .832-.49219 1.3008-.48047.457-1.45313.457-1.94531 0-1.94531-1.7578zm3.72656 16.4883h-3.57422v-13.1016h3.57422z"/><path d="m486.89062 1727.9644q.9375 0 2.25-.4102v2.6602q-1.33593.5977-3.28125.5977-2.14453 0-3.1289-1.0782-.97266-1.0898-.97266-3.2578v-6.3164h-1.71094v-1.5117l1.96875-1.1953 1.03125-2.7656h2.28516v2.789h3.66797v2.6836h-3.66797v6.3164q0 .7617.42188 1.125.43359.3633 1.13671.3633z"/><path d="m494.63672 1724.0035q0 1.9453.63281 2.9414.64453.9961 2.08594.9961 1.42969 0 2.05078-.9844.63281-.9961.63281-2.9531 0-1.9454-.63281-2.918-.63281-.9727-2.07422-.9727-1.42969 0-2.0625.9727-.63281.9609-.63281 2.918zm9.05859 0q0 3.1992-1.6875 5.0039-1.6875 1.8047-4.69922 1.8047-1.88672 0-3.32812-.8204-1.44141-.832-2.21485-2.3789-.77343-1.5468-.77343-3.6093 0-3.211 1.67578-4.9922 1.67578-1.7813 4.71094-1.7813 1.88671 0 3.32812.8203 1.44141.8203 2.21484 2.3555.77344 1.5352.77344 3.5977z"/></g><g transform="translate(334.08123 -1006.4542)"><path d="m407.82515 1729.7519h1.67217q2.34433 0 3.5083-.9181 1.16397-.9344 1.16397-2.705 0-1.7869-.98364-2.6394-.96724-.8525-3.04926-.8525h-2.31154zm11.47572-3.8034q0 3.869-2.42629 5.9182-2.4099 2.0492-6.86904 2.0492h-2.18039v8.5249h-5.08211v-23.9679h7.65595q4.36078 0 6.62313 1.8853 2.27875 1.8689 2.27875 5.5903z"/><path d="m433.66193 1723.7681q1.01642 0 1.68857.1476l-.37706 4.6886q-.60658-.1639-1.47545-.1639-2.39351 0-3.73781 1.2295-1.32791 1.2296-1.32791 3.4427v9.3282h-5.00013v-18.3284h3.78699l.73772 3.082h.24591q.85248-1.541 2.29515-2.4754 1.45905-.9509 3.16402-.9509z"/><path d="m442.66218 1733.2438q0 2.7214.88527 4.1148.90166 1.3935 2.91811 1.3935 2.00005 0 2.86893-1.3771.88527-1.3934.88527-4.1312 0-2.7214-.88527-4.0821-.88527-1.3607-2.90172-1.3607-2.00005 0-2.88532 1.3607-.88527 1.3443-.88527 4.0821zm12.67248 0q0 4.4755-2.36072 7.0002-2.36073 2.5246-6.57396 2.5246-2.63941 0-4.65586-1.1475-2.01645-1.164-3.09845-3.328-1.082-2.164-1.082-5.0493 0-4.4919 2.34433-6.9838 2.34433-2.4919 6.59035-2.4919 2.63941 0 4.65586 1.1476 2.01645 1.1476 3.09845 3.2952 1.082 2.1476 1.082 5.0329z"/><path d="m457.99047 1750.5066q-1.91809 0-3.29517-.4099v-3.9345q1.14757.3115 2.34432.3115 1.26233 0 1.83612-.705.59018-.7049.59018-2.082v-19.5743h5.00014v20.312q0 2.9181-1.68857 4.4919-1.68858 1.5903-4.78702 1.5903zm1.26233-31.1321q0-2.4426 2.72139-2.4426 2.72138 0 2.72138 2.4426 0 1.164-.68854 1.8198-.67215.6393-2.03284.6393-2.72139 0-2.72139-2.4591z"/><path d="m477.30248 1727.3256q-1.59021 0-2.49187 1.0164-.90167 1-1.03282 2.8525h7.01659q-.0328-1.8525-.96724-2.8525-.93445-1.0164-2.52466-1.0164zm.70494 15.443q-4.42636 0-6.91823-2.4427-2.49187-2.4426-2.49187-6.9182 0-4.6067 2.29514-7.1149 2.31154-2.5247 6.37723-2.5247 3.88535 0 6.04935 2.2132 2.16399 2.2132 2.16399 6.1149v2.4263h-11.82q.082 2.1312 1.26233 3.328 1.18036 1.1967 3.31157 1.1967 1.65578 0 3.13123-.3443 1.47546-.3442 3.08206-1.0983v3.8689q-1.31151.6558-2.80336.9673-1.49184.3278-3.63944.3278z"/><path d="m497.27025 1738.7849q1.31151 0 3.14762-.5738v3.7214q-1.8689.8361-4.59029.8361-3.00008 0-4.37717-1.5082-1.36069-1.5246-1.36069-4.5575v-8.8363h-2.39351v-2.1148l2.75418-1.6722 1.44266-3.869h3.19681v3.9018h5.13129v3.7542h-5.13129v8.8363q0 1.0656.59018 1.5738.60657.5082 1.59021.5082z"/><path d="m508.10661 1733.2438q0 2.7214.88527 4.1148.90167 1.3935 2.91811 1.3935 2.00006 0 2.86894-1.3771.88527-1.3934.88527-4.1312 0-2.7214-.88527-4.0821-.88527-1.3607-2.90172-1.3607-2.00006 0-2.88533 1.3607-.88527 1.3443-.88527 4.0821zm12.67248 0q0 4.4755-2.36072 7.0002-2.36072 2.5246-6.57395 2.5246-2.63942 0-4.65587-1.1475-2.01645-1.164-3.09844-3.328-1.082-2.164-1.082-5.0493 0-4.4919 2.34433-6.9838 2.34432-2.4919 6.59034-2.4919 2.63942 0 4.65587 1.1476 2.01645 1.1476 3.09845 3.2952 1.08199 2.1476 1.08199 5.0329z"/></g></g><path d="m1461.5781 1463.7012-.6953 8.9707 1.7539 7.709-9.7129 4.0234-4.209-6.6914-6.8359-5.8516-21.0801 21.0801 5.8516 6.8359 6.6914 4.209-4.0234 9.7129-7.709-1.7539-8.9707.6953v26.8125c2.3086-1.3791 5.0378-2.0976 7.959-2.0976 4.1042 0 7.8403 1.3672 10.4668 4.1172 2.6361 2.7601 3.8769 6.5817 3.8769 10.8457v4.957l.3086-.1934v-17.2382l-2.2812-5.5079-11.8086 2.6875-2.4493-.1914v-18.5703l2.4493-.1894 11.8086 2.6855 7.9453-19.1816-10.25-6.4492-1.5977-1.8653 13.1328-13.1328 1.8653 1.5977 6.4492 10.25 19.1836-7.9473-2.6875-11.8066.1894-2.4493h18.5723l.1894 2.4493-2.6875 11.8066 19.1817 7.9473 6.4492-10.25 1.8672-1.5977 13.1308 13.1328-1.5976 1.8653-10.2481 6.4492 7.9454 19.1816 2.498-.5683 9.3086-2.1172 2.4492.1894v18.5703l-2.4492.1914-11.8066-2.6875-1.2715 3.0684c3.6452.2351 6.9354 1.5794 9.3125 4.0684.3451.3614.6632.7441.9609 1.1406l2.3555.5351 8.9726-.6953v-29.8125l-8.9726-.6953-7.7071 1.7539-4.0234-9.7129 6.6895-4.209 5.8535-6.8359-21.0801-21.0801-6.8359 5.8516-4.211 6.6914-9.7129-4.0234 1.7539-7.709-.6953-8.9707zm14.9063 41.7676c-12.1575 0-22.0781 9.9206-22.0782 22.0781 0 3.8135.9763 7.4067 2.6915 10.5429l.7031.1524-.094.8867c.2273.3667.4672.7241.7149 1.0762l.4043-.211c1.6835-.8789 3.5087-1.5281 5.4433-1.9629.033-.01.065-.012.098-.019-2.4188-2.8021-3.8867-6.4504-3.8867-10.4648 0-8.8754 7.1285-16.0039 16.0039-16.0039 8.8753 0 16.0058 7.1285 16.0058 16.0039 0 1.5316-.226 3.0062-.623 4.4062h5.1327v3.7227c1.004-2.5189 1.5625-5.2599 1.5625-8.1289 0-12.1575-9.9207-22.0781-22.0781-22.0781zm5.1894 37.2167c-.1149.039-.2256.086-.3418.1231.1177.2136.2353.4273.3418.6484zm-6.2968 1.17c.01.01.01.02.018.029.01.01.011.01.021.014zm42.1796 3.8281c-.9558 0-1.4141.2074-1.8418.5703h3.629c-.3789-.3675-.7778-.5703-1.7872-.5703zm-48.0254.047c-.5756 0-1.1254.049-1.6601.1386.3584.1529.7221.2957 1.0898.4297.2517-.016.4986-.035.7598-.043l1.3086-.041c-.01-.013-.021-.1404-.031-.1484l-.02-.021-.019-.023c-.056-.06-.2866-.291-1.4278-.291zm13.2481.4316c.014.179.056.346.096.5137.5041-.1532.9981-.326 1.4863-.5137zm-58.7598 10.2285-1.6133 1.8828c1.1574-.029 2.2292-.1305 3.1817-.3339 1.1153-.2503 2.3773-.674 3.7695-1.2911l.5821-.2578zm95.7813 0 2.5039 1.5762.014.016c.076-.015.1572-.027.2324-.043 1.1152-.2503 2.3773-.674 3.7695-1.2911l.582-.2578zm10.8066 1.9356v3.3906l1.5645-1.5645zm-80.0937 2.7929-3.5723 5.6758v1.5469h-.9726l-1.9043 3.0254-1.8653 1.5976-4.623-4.623h-2.3262v-2.3242l-1.623-1.6231v1.5117l-1.7305.8243c-1.0733.5116-2.1698.9205-3.2832 1.2363l13.2656 13.2676 6.8359-5.8535 4.209-6.6895 9.7129 4.0215-1.7539 7.709.6953 8.9726h29.8125l.6953-8.9726-1.7539-7.709 9.7129-4.0215 4.211 6.6895 6.8359 5.8535 12.8691-12.8711c-1.6331.3133-3.4121.457-5.3554.457-1.1731 0-2.3146-.093-3.4121-.2773l-4.4219 4.4218-1.8672-1.5976-4.0977-6.5117v1.9609l-1.8242.793c-.9288.4046-1.9299.6647-3.0605.8672-1.1691.2284-2.3735.3437-3.6035.3437-2.7128 0-5.2566-.6694-7.2051-2.1758l-5.8399 2.42 2.6875 11.8066-.1894 2.4492h-18.5723l-.1894-2.4492 2.6875-11.8066-1.0684-.4434c-.8973.1279-1.8301.1992-2.8164.1992-3.1443 0-6.082-.9242-8.1953-2.9453l-.01-.01-.01-.01c-.7776-.7518-1.3994-1.6269-1.8789-2.5879zm-73.9785 1.2461-19.0723 11.0118 9.2344 9.2011-3.8106 6.5977-12.582-3.3946v26.3243l12.582-3.3965 3.8106 6.5976-9.2344 9.2012 22.7969 13.1621 3.3515-12.5957h7.6192l3.3515 12.5957 22.795-13.1621-9.2325-9.2012 3.8086-6.5976 12.5821 3.3965v-26.3243l-12.5821 3.3946-3.8086-6.5977 9.2325-9.2011-14.9102-8.6094c-2.3876 2.6123-5.7926 4.0527-9.4824 4.0527-.231 0-.456-.022-.6836-.035l-1.0703 4.0253h-3.0039v6.0743h7.6718l2.5118-9.4453 9.0644 5.2343-6.9238 6.8965 8.4765 14.6856 2.2539-.6075 7.1836-1.9394v10.4668l-9.4375-2.5469-8.4765 14.6856 6.9238 6.9003-9.0644 5.2305-2.5118-9.4453h-16.955l-2.5118 9.4453-9.0644-5.2305 6.9238-6.9003-8.4785-14.6856-9.4375 2.5469v-10.4668l9.4375 2.5469 8.4785-14.6856-6.9238-6.8965 9.0644-5.2343.1036.3886zm10.8847 21.9239c-8.0569 0-14.6523 6.5973-14.6523 14.6543 0 8.0569 6.5954 14.6523 14.6523 14.6523 8.057 0 14.6543-6.5954 14.6543-14.6523 0-8.057-6.5973-14.6543-14.6543-14.6543zm0 6.0742c4.7749 0 8.5801 3.8052 8.5801 8.5801s-3.8052 8.58-8.5801 8.58c-4.7748 0-8.5801-3.8051-8.5801-8.58s3.8053-8.5801 8.5801-8.5801z" fill="#0089d0" transform="translate(.000004 -1000)"/><path d="m1356.3594 531.8105c-5.2753 0-9.3387 1.5456-12.1914 4.6368-2.8369 3.0912-4.2559 7.5209-4.2559 13.289s1.4115 10.2224 4.2324 13.3614c2.8369 3.123 6.8927 4.6855 12.168 4.6855 5.2115 0 9.2354-1.5775 12.0723-4.7324 2.8527-3.155 4.2793-7.5772 4.2793-13.2656 0-5.7044-1.4191-10.1267-4.2559-13.2657s-6.8533-4.709-12.0488-4.709zm134.1367 3.1797-1.9121 5.5938-3.8731 2.0547v2.4863h3.6094v14.2441c0 5.6088 2.6613 8.4141 7.9844 8.4141 1.0519 0 2.0649-.096 3.0371-.2871.9881-.1753 1.7925-.3991 2.4141-.6699v-4.2305c-1.3707.4302-2.7408.6445-4.1114.6445-1.0996 0-1.9924-.3177-2.6777-.955-.6694-.6533-1.0039-1.6574-1.0039-3.0118v-14.1484h7.5293v-4.2559h-7.5293v-5.8789zm-134.1367 1.7207c3.3946 0 5.9451 1.1075 7.6504 3.3223 1.7212 2.2148 2.582 5.4657 2.582 9.752 0 4.3499-.8683 7.6233-2.6055 9.8222-1.7212 2.1989-4.2792 3.2988-7.6738 3.2988-3.4106 0-5.9855-1.1074-7.7227-3.3222-1.7371-2.2308-2.6054-5.4967-2.6054-9.7988 0-4.2863.8683-7.5372 2.6054-9.752 1.7531-2.2148 4.3431-3.3223 7.7696-3.3223zm36.7207 3.6817c-3.5062 0-6.1375 1.3367-7.8906 4.0136h-.2872c-.3984-1.8641-.6596-3.0431-.7871-3.5371h-4.5429v38.1954h5.6172v-10.8282c0-.478-.1109-1.8317-.334-4.0625h.334c1.8487 2.4061 4.448 3.6094 7.7949 3.6094 3.299 0 5.8794-1.2108 7.7441-3.6328 1.8806-2.422 2.8223-5.7932 2.8223-10.1113 0-4.3182-.9247-7.6724-2.7735-10.0625-1.8327-2.3901-4.3982-3.584-7.6972-3.584zm27.5156 0c-3.7612 0-6.7176 1.2333-8.8691 3.7031-2.1516 2.4698-3.2286 5.8635-3.2286 10.1816 0 4.2066 1.1559 7.5139 3.4668 9.92 2.3269 2.3901 5.5464 3.5859 9.6582 3.5859 1.801 0 3.4022-.1354 4.8047-.4062 1.4025-.2709 2.7896-.7335 4.1602-1.3868v-4.5664c-1.5459.6852-2.9969 1.1797-4.3516 1.4824-1.3387.287-2.7877.4297-4.3496.4297-2.3746 0-4.2166-.6843-5.5234-2.0547-1.3069-1.3861-2.0004-3.3623-2.0801-5.9277h17.6191v-3.0351c0-3.7127-1.0111-6.6289-3.0351-8.7481-2.0241-2.1192-4.7812-3.1777-8.2715-3.1777zm31.1016 0c-1.6256 0-3.148.4606-4.5664 1.3847-1.4025.9242-2.5415 2.1766-3.418 3.7539h-.2871l-.7422-4.6621h-4.3984v26.4356h5.6171v-13.8145c0-2.3423.6936-4.2469 2.0801-5.7129 1.4025-1.4659 3.2275-2.1992 5.4746-2.1992.8606 0 1.6895.096 2.4864.2871l.5507-5.2343c-.7331-.1594-1.6653-.2383-2.7968-.2383zm18.0722 0c-1.514 0-3.1228.1993-4.8281.5976-1.7053.3825-3.2766.9464-4.7109 1.6953l1.8183 4.0157c1.1475-.5418 2.3429-1.0118 3.586-1.4102 1.2431-.3983 2.5419-.5976 3.8964-.5976 1.6576 0 2.8754.423 3.6563 1.2675.7969.8286 1.1953 2.0864 1.1953 3.7754v1.4102l-4.5664.1445c-4.1437.1275-7.226.8833-9.25 2.2695-2.024 1.3863-3.0371 3.4433-3.0371 6.168 0 2.5654.7255 4.549 2.1758 5.9512 1.4662 1.4022 3.4979 2.1035 6.0957 2.1035 2.024 0 3.6817-.2877 4.9726-.8613 1.291-.5896 2.5747-1.6895 3.8496-3.2989h.1915l1.123 3.6817h4.0156v-17.8067c0-3.139-.8608-5.4422-2.582-6.9082-1.7053-1.4659-4.2388-2.1972-7.6016-2.1972zm47.7871 0c-3.7612 0-6.7176 1.2333-8.8691 3.7031s-3.2266 5.8635-3.2266 10.1816c0 4.2066 1.1559 7.5139 3.4668 9.92 2.3269 2.3901 5.5464 3.5859 9.6582 3.5859 1.801 0 3.4022-.1354 4.8047-.4062 1.4025-.2709 2.7896-.7335 4.1602-1.3868v-4.5664c-1.5459.6852-2.9969 1.1797-4.3516 1.4824-1.3387.287-2.7897.4297-4.3515.4297-2.3747 0-4.2147-.6843-5.5215-2.0547-1.3069-1.3861-2.0004-3.3623-2.0801-5.9277h17.6191v-3.0351c0-3.7127-1.013-6.6289-3.0371-8.7481-2.024-2.1192-4.7812-3.1777-8.2715-3.1777zm-96.9609 4.2539c1.785 0 3.187.5659 4.207 1.6973 1.02 1.1152 1.5463 2.7643 1.5782 4.9472h-12.002c.2072-2.167.8443-3.8159 1.9121-4.9472 1.0838-1.1315 2.5197-1.6973 4.3047-1.6973zm96.9609 0c1.785 0 3.189.5659 4.209 1.6973 1.02 1.1152 1.5463 2.7643 1.5782 4.9472h-12.002c.2072-2.167.8443-3.8159 1.9121-4.9472 1.0837-1.1315 2.5178-1.6973 4.3027-1.6973zm-125.9355.334c2.024 0 3.5539.7652 4.5898 2.2949 1.0519 1.5137 1.5782 3.7531 1.5782 6.7168 0 2.9478-.5263 5.2171-1.5782 6.8105-1.0518 1.5934-2.5497 2.3907-4.4941 2.3907-2.3109 0-3.9761-.7164-4.9961-2.1504-1.02-1.45-1.5312-3.7853-1.5312-7.0039v-.836c0-2.8681.5112-4.9551 1.5312-6.2617 1.0359-1.3066 2.6692-1.9609 4.9004-1.9609zm82.7148 9.705v2.293c0 2.0555-.6221 3.6575-1.8652 4.8047-1.2272 1.1313-2.8604 1.6973-4.9004 1.6973-1.4025 0-2.455-.3197-3.1562-.9571-.7013-.6533-1.0508-1.5689-1.0508-2.748 0-1.6253.5977-2.8286 1.7929-3.6094 1.2114-.7967 3.1396-1.2423 5.7852-1.3379z" fill="#0089d0"/><g stroke-width="1.15608" transform="matrix(.9965509 0 0 .99462644 1.535122 15.678454)"><ellipse cx="795.84229" cy="555.6032" fill="#f2f2f2" fill-opacity=".890151" rx="84.085182" ry="84.06768"/><path d="m871.07031 1476.8457c-.45535-.01-.91364.01-1.37304.053-2.75642.2586-5.5431 1.4499-7.8086 3.7149l-48.01367 48.0039c.356.2154.69149.4701.99414.7695 1.2214 1.1954 1.74805 2.9216 1.74805 4.4805 0 .2173-.0352.4368-.0606.6562l49.625-49.6152c1.56006-1.5597 3.07863-2.0687 4.73828-2.002.2371.01.47734.031.7207.063 1.94701.2528 4.08805 1.3848 5.75 3.0488 1.66199 1.664 2.79209 3.807 3.04493 5.7558.25283 1.9487-.15808 3.6741-1.9336 5.4493l-40.61718 40.6093h7.56054 1.02735l36.32226-36.3144c3.0163-3.0157 4.12458-6.9608 3.66211-10.5254-.46247-3.5645-2.28127-6.7763-4.76953-9.2676-2.48826-2.4912-5.69766-4.3157-9.26367-4.7793-.44575-.058-.89816-.092-1.35352-.1zm-60.76953 56.9258c.002.035.006.022.006.096 0 .046-.002.036-.004.053.027 0 .0371-.01.14649-.01.0745 0 .054.001.0957 0-.00007-.026-.002-.01-.002-.045 0-.074.00084-.052 0-.094-.0418-.001-.0205 0-.0937 0-.10478 0-.10596 0-.14844 0zm-5.05078 3.4687-.5918.5918h.98828c-.1493-.1864-.26973-.3908-.39648-.5918zm-.68359.6836-1.78321 1.7832 1.78321.8106zm0 3.9805-3.4668 8.0723 3.4668-3.4649zm25.60547 5.1328c-1.03984 0-1.25951.1881-1.44922.3945-.18695.212-.46289.7122-.46289 1.9942 0 1.1302.2329 1.5083.43164 1.7207.21027.2163.46577.4062 1.48047.4062 1.08473 0 1.31861-.2086 1.4414-.3398s.39844-.5709.39844-1.834c0-1.2409-.26714-1.7403-.46289-1.9629l-.0195-.021-.0176-.022c-.13294-.1568-.27793-.3359-1.33984-.3359zm-35.80469 1.0859-.38086.379c.26658.1195.49622.229.96484.4101h.002c2.02234.7823 3.58985 1.5043 4.88086 2.3301l.86329-.8613-2.57227-1.0645c-1.46197-.6043-2.69601-.9684-3.75781-1.1934zm24.78515 8.4375-2.89257 2.8907v7.4394c.27791-.449.4606-.9564.81835-1.3476l.0156-.018.0137-.016c.45887-.487 1.04824-.8204 1.5957-1.2032-.39141-.8806-.67773-1.8133-.67773-2.7871 0-1.5618.51192-3.19 1.51953-4.4277.0165-.02.0458-.031.0625-.051-.14725-.1644-.30274-.3212-.45508-.4805zm-33.70703.4805-1.67383 1.6758c2.57834 1.1448 4.86849 1.6904 6.86719 1.7207l.79883-.7988c-.67751-.3294-1.51739-.7057-2.64453-1.1426-1.23889-.4799-2.35051-.952-3.34766-1.4551zm-6.33789 10.8652-1.72851.8243c-1.58643.7561-3.22246 1.3046-4.89063 1.6269-.14131.027-.29008.045-.43359.07l-31.4043 31.3984-13.08984 31.5235 33.89062-10.5157 52.50586-52.4941h-8.58984l-47.14844 47.1387-20.08008 6.2304 7.65821-18.4414 35.94531-35.9394c-.32468-.1347-.64459-.2764-.95508-.4317l-1.67969-.8398z" fill="#0089d0" transform="translate(.000004 -1000)"/><g fill="none" stroke="#0089d0" stroke-width="7.02102" transform="translate(0 1877.4803)"><path d="m862.092-1392.7761c3.53786 8.3693 9.97982 12.8919 16.61275 16.6093"/><path d="m742.89595-1273.177c12.28148-.6874 15.80292 6.7096 16.61275 16.6092"/><path d="m703.63374-1241.4303h184.41714"/><path d="m852.67025-1382.6499c3.53786 8.3693 9.9799 12.8919 16.61274 16.6093"/></g><ellipse cx="1137.3065" cy="555.6032" fill="#f2f2f2" fill-opacity=".890151" rx="84.085182" ry="84.06768"/><path d="m1221.0145-1402.0006-6.7067 20.8939-15.0876 5.3716-9.1434-13.1463 6.7032-20.8828-13.2351 7.8137-6.2116 18.39 17.8256 21.9352 27.4876-9.1227 5.4294-16.9144z" fill="none" stroke="#0089d0" stroke-linecap="square" stroke-width="7.02088" transform="translate(0 1877.4803)"/><path d="m1187.0527 1508.6543-9.3437 29.1016c2.1163.4885 3.9735 1.4404 5.3672 2.9863.014.015.025.032.039.047l9.7188-30.2774zm12.2598 3.9336-9.7305 30.3144c.2033-.2701.4002-.5449.6231-.8007 1.9269-2.212 4.4984-3.6507 7.3984-4.3145l7.4922-23.3418zm-25.2129 36.416-2.3945 7.457-2.3535-.7558v6.3769l.498.1602 4.4961 1.4434v-12.6856c0-.9266-.1168-1.562-.2461-1.9961zm12.1621 4.2402-.2246.7032v13.4902l1.8574.5957 1.8301.5879-15.0566 46.9062-21.7032-6.9648 12.2715-38.2305h-6.3789l-13.5312 42.1582 33.2676 10.6739 17.166-53.4844c-1.9766-.7472-3.7399-1.8623-5.1993-3.3613l-.01-.01-.01-.01c-2.9233-3.0437-4.3125-7.261-4.3125-12.0235 0-.35.02-.6897.033-1.0332z" fill="#0089d0" transform="translate(.000004 -1000)"/><ellipse cx="471.46704" cy="555.6032" fill="#ececec" fill-opacity=".890151" rx="84.085182" ry="84.06768"/><path d="m470.25586 1465.1035c-35.74986 0-64.63867 28.7582-64.63867 64.377v.084l.006.082c.15695 2.8689.50162 5.6072.99609 8.2285 1.39204-.3359 2.86038-.5195 4.39063-.5195.58263 0 1.15635.03 1.72265.084-.51006-2.5498-.87841-5.215-1.03711-8.0372.0425-32.3086 26.08281-58.2246 58.56055-58.2246h2.42187c32.49365 0 58.54549 25.9408 58.5625 58.2715-.0652 2.7667-.4869 5.5747-1.16992 8.3848h1.07031l2.8379 8.1113c1.95339-5.3 3.21041-10.8078 3.33593-16.3965l.002-.035v-.033c0-35.6188-28.88882-64.377-64.63868-64.377zm-59.34375 82.9141c-.6134 0-1.02946.057-1.37891.1445 1.30933 3.4461 2.86711 6.6442 4.59961 9.5957.27743-.8946.48438-2.095.48438-3.7187 0-2.643-.53921-4.2485-1.08399-4.9805-.54479-.732-1.05416-1.041-2.62109-1.041zm113.33984 4.5527c-.68903 1.2903-1.42191 2.5598-2.17383 3.8164v10.916.1426c1.72159-2.3748 3.40291-4.8698 4.98829-7.4648zm-99.48047 9.9551c-.6256 1.3483-1.42004 2.5851-2.41406 3.6719-.42816.4681-.89486.8883-1.3789 1.2851 1.73799 2.0993 3.51221 4.0332 5.25781 5.8145 4.67411 4.7696 9.17134 8.5079 12.20508 11.3691 1.51686 1.4306 2.65816 2.661 3.22461 3.4883.39317.5742.4314.7866.44531.7773l-.0703.2598v30.4824c0 4.8595-.0244 8.5632.44726 11.6895.47162 3.1263 1.6599 5.9731 4.08789 7.7597 2.42799 1.7867 5.45737 2.3826 9.38672 2.7032s8.90659.3125 15.50391.3125c6.58631 0 11.55734.01 15.48828-.3164 3.93093-.3256 6.97513-.9361 9.4043-2.752 2.42914-1.8158 3.60847-4.6843 4.08203-7.8555.47355-3.1711.45117-6.9421.45117-11.8945v-28.4141c1.47769-1.2857 8.94118-7.8633 17.29883-18.3457.57812-.725 1.15798-1.4661 1.73632-2.2207h-7.77929c-8.36303 10.1763-16.25977 16.9375-16.25977 16.9375l-1.07031.9082v31.1348c0 4.9503-.0272 8.6035-.38477 10.9981-.35759 2.3946-.83631 3.2329-1.71093 3.8867-.87463.6538-2.7806 1.2756-6.26758 1.5644-3.48698.2889-8.40105.295-14.98828.295-6.59771 0-11.51717-.01-15.00977-.2911-3.49259-.2849-5.41082-.9024-6.28125-1.5429-.87042-.6405-1.33078-1.4347-1.68359-3.7735-.35281-2.3387-.37696-5.9236-.37696-10.7832v-29.8515c.30776-1.9399-.48198-3.7042-1.4375-5.0996-1.04562-1.5272-2.42866-2.9282-4.06835-4.4747-2.94979-2.782-6.76434-6.0137-10.71485-9.9082h-5.03711v-5.3164c-.70345-.807-1.39915-1.6411-2.08594-2.498z" fill="#008bd0" transform="translate(.000004 -1000)"/><g fill="none" stroke="#008bd0" transform="translate(0 1877.4803)"><path d="m477.87438-1385.216c18.94683-2.726 32.75085 19.2927 28.27767 35.9833" stroke-width="7.02088"/><g stroke-width="7.02102"><path d="m445.07899-1261.6225 53.69122-6.954"/><g stroke-linecap="square"><path d="m514.67057-1420.896c1.77857-5.3152 12.42879-30.9832 12.42879-30.9832"/><path d="m535.69301-1406.565c3.74904-4.167 23.74448-23.4693 23.74448-23.4693"/><path d="m545.9368-1385.3596c5.32852-1.7412 32.28985-8.4953 32.28985-8.4953"/></g><path d="m445.07899-1250.0003 53.69122-6.954"/></g></g><g fill="#0089d0" stroke-width="1.15657" transform="matrix(.93270156 0 0 .93250743 -136.52113 -864.39582)"><path d="m558.53501 1502.5668q-5.27996 0-8.30441 3.7421-3.02445 3.7421-3.02445 10.3292 0 6.8948 2.89629 10.4318 2.92193 3.5371 8.43257 3.5371 2.38368 0 4.61357-.4614 2.22988-.487 4.63919-1.2303v5.2544q-4.40852 1.666-9.99605 1.666-8.22752 0-12.63604-4.9724-4.40852-4.998-4.40852-14.2764 0-5.8439 2.12737-10.2268 2.153-4.3828 6.20268-6.7153 4.04968-2.3324 9.50906-2.3324 5.74133 0 10.6112 2.4093l-2.20426 5.1006q-1.89669-.8971-4.02405-1.5635-2.10174-.692-4.43415-.692z"/><path d="m600.36465 1521.0979q0 6.946-3.5627 10.8419-3.56269 3.8959-9.91916 3.8959-3.97279 0-7.02287-1.7942-3.05007-1.7941-4.69045-5.1518-1.64038-3.3576-1.64038-7.7918 0-6.8947 3.53707-10.765 3.53706-3.8702 9.97042-3.8702 6.15141 0 9.73974 3.9728 3.58833 3.9471 3.58833 10.6624zm-20.63288 0q0 9.8167 7.25355 9.8167 7.17665 0 7.17665-9.8167 0-9.7141-7.22792-9.7141-3.79337 0-5.51064 2.5118-1.69164 2.5119-1.69164 7.2023z"/><path d="m632.22386 1535.3231h-6.04889v-17.429q0-3.2808-1.33281-4.8955-1.30717-1.6148-4.17783-1.6148-3.81901 0-5.58754 2.2555-1.76853 2.2555-1.76853 7.5611v14.1227h-6.02327v-28.3478h4.71609l.84582 3.7165h.30757q1.28155-2.0249 3.63959-3.127 2.35804-1.1021 5.2287-1.1021 10.2011 0 10.2011 10.3805z"/><path d="m652.03655 1535.8357q-6.43336 0-9.791-3.7421-3.33202-3.7678-3.33202-10.7906 0-7.1511 3.4858-10.9957 3.51144-3.8446 10.12421-3.8446 4.48541 0 8.07373 1.666l-1.81979 4.8442q-3.81901-1.4866-6.3052-1.4866-7.35607 0-7.35607 9.7654 0 4.7674 1.81979 7.1767 1.84543 2.3836 5.38249 2.3836 4.02405 0 7.61238-1.9992v5.2544q-1.61475.9483-3.46017 1.3584-1.8198.4101-4.43415.4101z"/><path d="m678.97463 1535.8357q-6.61277 0-10.35488-3.8446-3.71648-3.8703-3.71648-10.6369 0-6.9459 3.46017-10.9187 3.46017-3.9728 9.50906-3.9728 5.61317 0 8.8683 3.4089 3.25512 3.4089 3.25512 9.3809v3.2551h-18.88997q.12815 4.1266 2.22988 6.3565 2.10174 2.2042 5.92074 2.2042 2.51183 0 4.66483-.4613 2.17862-.487 4.66482-1.5891v4.8955q-2.20426 1.0508-4.45977 1.4866-2.25552.4357-5.15182.4357zm-1.10213-24.8107q-2.87066 0-4.61356 1.8198-1.71727 1.8198-2.05047 5.3056h12.86671q-.0513-3.5115-1.69164-5.3056-1.64037-1.8198-4.51104-1.8198z"/><path d="m702.86264 1535.3231h-6.02326v-28.3478h6.02326zm-6.3821-35.8577q0-1.6147.87145-2.4862.89709-.8714 2.53746-.8714 1.58912 0 2.46057.8714.89708.8715.89708 2.4862 0 1.5379-.89708 2.435-.87145.8714-2.46057.8714-1.64037 0-2.53746-.8714-.87145-.8971-.87145-2.435z"/><path d="m717.9336 1535.3231-10.76498-28.3478h6.35647l5.76695 16.4807q1.48659 4.1522 1.79416 6.7153h.20505q.23068-1.8455 1.79416-6.7153l5.76696-16.4807h6.40772l-10.81624 28.3478z"/><path d="m751.94582 1535.8357q-6.61278 0-10.35489-3.8446-3.71648-3.8703-3.71648-10.6369 0-6.9459 3.46017-10.9187 3.46017-3.9728 9.50907-3.9728 5.61317 0 8.86829 3.4089 3.25513 3.4089 3.25513 9.3809v3.2551h-18.88998q.12815 4.1266 2.22989 6.3565 2.10173 2.2042 5.92074 2.2042 2.51183 0 4.66482-.4613 2.17863-.487 4.66483-1.5891v4.8955q-2.20426 1.0508-4.45978 1.4866-2.25552.4357-5.15181.4357zm-1.10213-24.8107q-2.87066 0-4.61356 1.8198-1.71728 1.8198-2.05048 5.3056h12.86672q-.0513-3.5115-1.69164-5.3056-1.64038-1.8198-4.51104-1.8198z"/></g><path d="m1080 1465.5371-2.9434.75-51.3593 13.1094 14.8418 58.1484c2.2843.3763 4.3298 1.2889 5.9433 2.6563.2735-.2256.5514-.4446.836-.6563l-14.2325-55.7656 42.5293-10.8555 17.0274 66.711c.9876.6875 1.8857 1.508 2.6367 2.4863 2.388 3.0896 3.4043 7.1647 3.4043 11.9141 0 2.2673-.2447 4.3795-.7539 6.3125l1.2109 4.7441v-24.5606zm-29.6777 85.7734c-.08.5748-.1407 1.211-.1407 1.9805v14.0059 3.0351h-1.2734l21.8672 85.6739 54.3008-13.8594-18.3282-71.8067h-6.2675l17.209 67.4239-42.5313 10.8554-19.9805-78.2851v-.01z" fill="#0089d0" transform="translate(.000004 -1000)"/><path d="m1088.7026 607.88553 23.2806-5.94205" fill="none" stroke="#0089d0" stroke-width="7.02222"/><path d="m1093.5443 626.85497 23.2806-5.94205" fill="none" stroke="#0089d0" stroke-width="7.02222"/><path d="m1096.707 1542.0918-1.2304.3144c1.193 1.6277 2.0209 3.5163 2.5351 5.6231l.1973-.051zm-12.9863 5.9258c-1.6255.0003-2.1321.333-2.5078.8027-.3211.4164-.7608 1.6571-.8496 3.7129l6.1933-1.5801c-.1962-.8956-.4635-1.55-.7382-1.9453l-.012-.016-.01-.014c-.5208-.769-.8174-.9607-2.0742-.9609zm15.4199 13.6601-1.7695.4512c-.5354 1.4162-1.2434 2.7138-2.1426 3.8731v.01c-2.393 3.1019-6.1062 4.8086-10.1445 4.8086-1.6764 0-3.2638-.3535-4.7559-.9063v2.8359l18.8125-4.8027z" fill="#0089d0" transform="translate(.000004 -1000)"/><g fill="none" stroke="#0089d0" stroke-width="7.02222"><path d="m1075.8724 590.95507 31.4973-8.03926"/><path d="m1059.6526 494.06898 23.2806-5.94206"/><path d="m1064.4942 513.03839 23.2807-5.94202"/></g><g fill="#0089d0"><path d="m1091.8654 523.12374-31.4975 8.03888 1.503 5.88553 31.4975-8.03888z"/><path d="m810.44922 1530.7363c-1.01999 0-1.80938.2708-2.36719.8125-.54187.5418-.8125 1.3146-.8125 2.3184 0 .9561.27063 1.7118.8125 2.2695.55781.5417 1.3472.8125 2.36719.8125.98811 0 1.75305-.2708 2.29492-.8125.55781-.5577.83594-1.3134.83594-2.2695 0-1.0038-.27813-1.7766-.83594-2.3184-.54187-.5417-1.30681-.8125-2.29492-.8125zm-90.2207 1.625v34.9434h9.77734c6.02431 0 10.6384-1.5211 13.8418-4.5645 3.2034-3.0593 4.80468-7.474 4.80468-13.2422 0-5.4334-1.54683-9.6489-4.63867-12.6445s-7.41834-4.4922-12.98047-4.4922zm5.71289 4.7793h4.94921c7.82523 0 11.73633 4.1835 11.73633 12.5489 0 8.5406-4.20618 12.8105-12.62109 12.8105h-4.06445zm40.13867 3.252c-3.76121 0-6.7176 1.2333-8.86914 3.7031s-3.22852 5.8636-3.22852 10.1816c0 4.2066 1.15589 7.5139 3.4668 9.92 2.32685 2.39 5.54637 3.5859 9.6582 3.5859 1.80092 0 3.4022-.1354 4.80469-.4062 1.40248-.271 2.78954-.7335 4.16016-1.3868v-4.5664c-1.54592.6852-2.99689 1.1797-4.35157 1.4824-1.33873.2868-2.78775.4297-4.34961.4297-2.37466 0-4.21658-.6844-5.52343-2.0547-1.30686-1.3862-2.0004-3.3623-2.08008-5.9277h17.61914v-3.0351c0-3.7127-1.01111-6.6289-3.03516-8.7481-2.02403-2.1192-4.78121-3.1777-8.27148-3.1777zm26.20117 0c-3.13965 0-5.6262.6279-7.45898 1.8867-1.81686 1.2428-2.72657 2.9971-2.72657 5.2598 0 1.8802.53377 3.4088 1.60157 4.5879 1.08374 1.1791 3.14933 2.3579 6.19335 3.5371 1.56186.6055 2.7797 1.147 3.65626 1.625.87655.478 1.50617.9405 1.88867 1.3867.38249.4462.57422 1.0046.57422 1.6738 0 2.0873-1.7291 3.1309-5.1875 3.1309-2.67748 0-5.56997-.7183-8.67774-2.1524v4.8535c2.1356 1.0676 4.96418 1.6016 8.48633 1.6016 3.50621 0 6.19948-.6863 8.08008-2.0566 1.8806-1.3863 2.82031-3.3699 2.82031-5.9512 0-1.2747-.23868-2.3652-.7168-3.2734-.47811-.9242-1.2111-1.7384-2.19922-2.4395-.98811-.7011-2.57439-1.4738-4.75781-2.3184-2.59778-1.0038-4.28743-1.7916-5.06836-2.3652-.76499-.5736-1.14648-1.2749-1.14648-2.1035 0-1.689 1.48292-2.5332 4.44726-2.5332 1.94436 0 4.34254.5884 7.19532 1.7676l1.8164-4.2305c-2.77308-1.2588-5.71252-1.8867-8.82031-1.8867zm37.9375 0c-3.34684 0-5.92924.7878-7.74609 2.3652-1.80092 1.5775-2.70118 3.7998-2.70118 6.668 0 1.7845.4229 3.3471 1.26758 4.6855.86062 1.3226 1.97705 2.2777 3.34766 2.8672-1.09967.6692-1.92852 1.3461-2.48633 2.0313s-.83789 1.5218-.83789 2.5097c0 .7808.24063 1.531.71875 2.2481.49406.7011 1.11423 1.2106 1.86328 1.5293-1.84873.4302-3.29024 1.1955-4.32617 2.2949-1.01999 1.1154-1.53125 2.486-1.53125 4.1113 0 2.3582.94916 4.1745 2.8457 5.4492 1.89654 1.2748 4.64621 1.9122 8.24805 1.9122 4.66963 0 8.2387-.8142 10.70898-2.4395 2.47029-1.6252 3.70508-3.9341 3.70508-6.9297 0-2.3423-.75548-4.136-2.26953-5.3789-1.51405-1.2428-3.72996-1.8633-6.64648-1.8633h-4.61329c-1.51404 0-2.55905-.1523-3.13281-.4551-.5578-.3027-.83593-.7558-.83593-1.3613-.00001-1.0038.60517-1.8819 1.8164-2.6308.68531.1275 1.45024.1914 2.29492.1914 3.29902 0 5.88893-.7803 7.76953-2.3418 1.88061-1.5616 2.82032-3.7051 2.82032-6.4297 0-.9083-.13531-1.7674-.40625-2.5801-.27093-.8126-.61297-1.499-1.02735-2.0566l4.51758-.836v-3.084h-9.15625c-.41437-.1115-1.03454-.2149-1.86328-.3105-.8128-.1115-1.5947-.166-2.34375-.166zm32.00977 0c-1.78499 0-3.41072.3422-4.87696 1.0273-1.46622.6852-2.59766 1.6572-3.39453 2.916h-.28711l-.78711-3.4668h-4.40039v26.4356h5.61914v-13.1699c0-3.2984.54877-5.6486 1.64844-7.0508s2.83822-2.1035 5.21289-2.1035c1.78498 0 3.08368.5019 3.89649 1.5058.82873 1.0038 1.24218 2.5249 1.24218 4.5645v16.2539h5.64258v-17.2324c0-6.4533-3.17257-9.6797-9.51562-9.6797zm-54.625.4765v26.4356h5.61914v-26.4356zm22.56836 3.1309c1.64153 0 2.85938.47 3.65624 1.4102.8128.9241 1.22071 2.2479 1.22071 3.9687 0 3.4736-1.62575 5.2109-4.87695 5.2109-1.59374 0-2.82103-.4475-3.68165-1.3398-.84468-.8923-1.26757-2.1671-1.26757-3.8242 0-1.7687.41539-3.1149 1.24414-4.0391.84468-.9242 2.07947-1.3867 3.70508-1.3867zm-64.0918.6465c1.78498 0 3.18704.5659 4.20703 1.6973 1.01993 1.1153 1.54619 2.7642 1.57812 4.9472h-12.00195c.20718-2.167.84431-3.8159 1.91211-4.9472 1.08374-1.1314 2.51971-1.6973 4.30469-1.6973zm61.98828 22.5625h4.25391c2.23122 0 3.7536.2387 4.5664.7168.82875.4939 1.24414 1.3136 1.24414 2.4609 0 1.45-.74993 2.6139-2.24804 3.4903-1.49811.8763-3.77793 1.3144-6.83789 1.3144-1.97623 0-3.51361-.3271-4.61329-.9805-1.08374-.6533-1.625-1.5839-1.625-2.7949 0-1.2906.46986-2.3191 1.41016-3.084.95625-.7489 2.23994-1.123 3.84961-1.123z" transform="translate(.000004 -1000)"/></g></g></g></svg>