<svg height="256" viewBox="0 0 67.733333 67.733335" width="256" xmlns="http://www.w3.org/2000/svg"><ellipse cx="33.866676" cy="33.866669" fill="#f2f2f2" rx="20.391712" ry="20.391724" stroke-width=".306756"/><path d="m33.572314 11.914866c-8.68845 0-15.709429 6.975724-15.709429 15.615592v.02037l.0015.01991c.03815.695898.121911 1.360112.242086 1.995947.33831-.08148.695169-.126012 1.067074-.126012.141599 0 .281032.0073.418661.0204-.12396-.618492-.213481-1.264975-.252052-1.949545.01031-7.836927 6.339023-14.123234 14.232237-14.123234h.588595c7.897083 0 14.228578 6.292323 14.23271 14.134612-.01586.671106-.118331 1.352228-.284329 2.03386h.260123l.689708 1.967514c.47474-1.285592.780241-2.62159.810745-3.977214l.000614-.0085v-.008c0-8.639869-7.020983-15.615593-15.709433-15.615593zm-14.42258 20.11204c-.149081 0-.250197.01384-.335125.03505.318213.835902.696809 1.611649 1.117866 2.327575.06742-.216996.117721-.508172.117721-.902023 0-.6411-.131046-1.030536-.263449-1.208096-.132402-.177557-.256196-.25251-.637013-.25251zm27.545494 1.104327c-.167455.31298-.345573.620918-.528314.925723v2.647836.03459c.418406-.576046.827024-1.181243 1.212326-1.810701zm-24.177189 2.414756c-.152044.327051-.345119.627053-.586702.890673-.104055.113546-.217481.215469-.335119.31172.422391.509219.853586.978314 1.277827 1.410392 1.135972 1.156938 2.228954 2.063719 2.966258 2.757744.368651.347012.646026.645464.783692.846141.09556.13928.104847.1908.108227.188545l-.01709.06302v7.393959c0 1.178742-.0059 2.07713.108699 2.83546.11462.758329.403412 1.448863.993498 1.88223.590086.433391 1.326329.577935 2.281296.655701.954969.07777 2.164608.0758 3.767987.0758 1.600701 0 2.808834.0025 3.764187-.07675.955353-.07898 1.695197-.227064 2.285568-.667539.590365-.44045.876986-1.136247.992075-1.905466.115089-.769198.10965-1.683912.10965-2.885189v-6.89226c.359129-.311864 2.173017-1.907359 4.204214-4.45002.140503-.175857.28143-.355623.421986-.538664h-1.890638c-2.032504 2.468413-3.951682 4.108444-3.951682 4.108444l-.260124.220297v7.552205c0 1.200768-.0066 2.086907-.09351 2.667753-.08691.580847-.203251.784186-.415812.942776-.212567.15859-.675784.309416-1.523242.379467-.847454.07008-2.041743.07156-3.642668.07156-1.603471 0-2.79907-.0025-3.647892-.07061-.84882-.06911-1.315016-.218889-1.526561-.374252-.211543-.15536-.323426-.348009-.409171-.915318-.08574-.567285-.09162-1.436856-.09162-2.615623v-7.240924c.0748-.470552-.117138-.898508-.349362-1.236983-.25412-.370446-.590246-.71028-.98875-1.085406-.716899-.674815-1.643969-1.45871-2.604077-2.403381h-1.224194v-1.289571c-.170961-.19575-.340039-.398074-.506952-.605926z" fill="#008bd0" stroke-width=".306756"/><path d="m35.423877 18.50312c4.604733-.661232 7.959587 4.679729 6.872449 8.728282" fill="none" stroke="#008bd0" stroke-width="1.70467"/><path d="m27.453465 48.482551 13.04882-1.686795" fill="none" stroke="#008bd0" stroke-width="1.7047"/><path d="m46.927584 1.2187723-.327233.7868793s-.647983 1.5586724-1.350366 3.2794563c-.70238 1.7207809-1.443737 3.5538561-1.691409 4.2925869l-.271028.8078372 1.616152.542051.271029-.808316c.184581-.5505509.953441-2.4755641 1.653306-4.1901761.699865-1.7146151 1.346078-3.2689775 1.346078-3.2689775l.327233-.7868793z" fill="#008bd0" stroke-width=".306756"/><g fill="none" stroke="#008bd0" stroke-width="1.7047"><path d="m49.4758 13.324602c.911147-1.010766 5.77073-5.6928227 5.77073-5.6928227" stroke-linecap="square"/><path d="m51.965396 18.468288c1.295012-.422355 7.847547-2.060661 7.847547-2.060661" stroke-linecap="square"/><path d="m27.453465 51.301689 13.04882-1.686795"/></g><g fill="#0089d0" stroke-width=".261889"><path d="m12.712534 29.295943q-1.196854 0-1.882432.846439-.685579.846439-.685579 2.336398 0 1.559559.656527 2.359605.66234.800069 1.911484.800069.54033 0 1.045798-.104366.505467-.110156 1.051606-.278286v1.188511q-.999318.376839-2.265892.376839-1.865003 0-2.8643206-1.124725-.9993175-1.130515-.9993175-3.229228 0-1.321852.4822294-2.313236.4880392-.991361 1.4060157-1.518957.917976-.527574 2.155501-.527574 1.301437 0 2.405333.544968l-.499659 1.153723q-.429939-.202918-.912166-.353654-.47642-.156526-1.005128-.156526z"/><path d="m22.194422 33.487557q0 1.57114-.807588 2.452368-.807586.881227-2.248462.881227-.900547 0-1.591935-.405837-.691386-.405813-1.063225-1.165303-.371839-.759467-.371839-1.762455 0-1.559536.801778-2.434972.801776-.875414 2.260082-.875414 1.394393 0 2.207791.898621.813398.892808.813398 2.411765zm-4.677034 0q0 2.220474 1.644225 2.220474 1.626794 0 1.626794-2.220474 0-2.197266-1.638415-2.197266-.859877 0-1.249145.568153-.383459.568176-.383459 1.629113z"/><path d="m29.416226 36.705205h-1.371154v-3.942326q0-.742096-.30212-1.10733-.296307-.365258-.947025-.365258-.865688 0-1.266576.51018-.400888.510179-.400888 1.710271v3.194463h-1.365347v-6.412088h1.069037l.191729.840648h.06972q.2905-.458019.825018-.707307.534517-.249287 1.185234-.249287 2.312372 0 2.312372 2.348001z"/><path d="m33.907341 36.821152q-1.458306 0-2.219411-.846439-.755298-.852252-.755298-2.440763 0-1.617532.790157-2.487156.795968-.869623 2.294942-.869623 1.016747 0 1.830143.376838l-.412508 1.095726q-.865688-.336259-1.429254-.336259-1.667465 0-1.667465 2.20887 0 1.078355.412508 1.623323.41832.539155 1.220096.539155.912166 0 1.725564-.452206v1.188511q-.366029.214499-.784347.307261-.41251.09276-1.005127.09276z"/><path d="m40.01363 36.821152q-1.498974 0-2.347231-.869624-.842447-.875436-.842447-2.405997 0-1.571117.784347-2.469739.784347-.898621 2.155501-.898621 1.272386 0 2.010255.771071.737866.771071.737866 2.121898v.736282h-4.281953q.02905.93341.505466 1.437799.47642.498576 1.342105.498576.569379 0 1.057418-.104343.493847-.110156 1.057415-.359444v1.10733q-.499658.237684-1.010935.336259-.511278.09855-1.167807.09855zm-.24983-5.612019q-.650717 0-1.045795.411627-.389269.411627-.464798 1.200092h2.916609q-.011629-.794278-.383459-1.200092-.371837-.411627-1.022557-.411627z"/><path d="m45.428532 36.705205h-1.365344v-6.412088h1.365344zm-1.446686-8.110778q0-.365235.19754-.562362.203351-.197105.575188-.197105.360219 0 .557758.197105.203349.197127.203349.562362 0 .347863-.203349.550781-.197539.197105-.557758.197105-.371837 0-.575188-.197105-.19754-.202918-.19754-.550781z"/><path d="m48.844798 36.705205-2.440192-6.412088h1.440877l1.307244 3.727827q.336979.939201.406698 1.518957h.04648q.05229-.41744.406697-1.518957l1.307247-3.727827h1.452494l-2.451811 6.412088z"/><path d="m56.554643 36.821152q-1.498976 0-2.347232-.869624-.842447-.875436-.842447-2.405997 0-1.571117.784347-2.469739.784346-.898621 2.155503-.898621 1.272386 0 2.010252.771071.737869.771071.737869 2.121898v.736282h-4.281956q.02905.93341.505469 1.437799.476417.498576 1.342105.498576.569379 0 1.057416-.104343.493848-.110156 1.057417-.359444v1.10733q-.499659.237684-1.010937.336259-.511278.09855-1.167806.09855zm-.249829-5.612019q-.650717 0-1.045796.411627-.38927.411627-.4648 1.200092h2.916611q-.01163-.794278-.383458-1.200092-.37184-.411627-1.022557-.411627z"/></g></svg>