<svg height="102.16605" viewBox="0 0 205.31666 27.031437" width="776" xmlns="http://www.w3.org/2000/svg"><g fill="#008bd0" stroke-width="1.07713" transform="matrix(.35198616 0 0 .35198616 -17.524897 185.634111)"><path d="m199.3215-508.96551q0 5.21604-1.82561 9.07218-1.82561 3.83752-5.29055 5.84942-3.44631 2.0119-8.14075 2.0119h-8.40155l5.75627-27.23518h7.37697q5.02976 0 7.76818 2.66391 2.75704 2.6639 2.75704 7.63777zm-14.99611 12.16455q2.75705 0 4.80621-1.41578 2.04916-1.41579 3.20414-4.15421 1.15498-2.75705 1.15498-6.2965 0-2.86882-1.3599-4.35912-1.34126-1.50893-3.87477-1.50893h-2.1423l-3.763 17.73454z"/><path d="m216.18049-498.5148h-8.81138l-3.20414 6.48279h-5.96119l14.26959-27.34695h6.94851l2.73842 27.34695h-5.53272zm-.27943-4.84347-.48435-6.52005q-.18629-2.44036-.18629-4.71306v-.67064q-.81966 2.23545-2.03053 4.7317l-3.50219 7.17205z"/><path d="m240.65862-492.03201h-15.21966l5.75627-27.23518h15.23829l-1.00595 4.73169h-9.5379l-1.24813 5.97982h8.8859l-1.02458 4.73169h-8.8859l-1.49029 7.02303h9.5379z"/><path d="m246.11682-492.03201 5.75627-27.23518h5.70039l-4.76895 22.46623h9.5379l-1.00595 4.76895z"/><path d="m288.12457-492.03201h-6.37102l-6.63182-20.60336h-.11177l-.0745.59612q-.59611 4.0238-1.22949 7.19068l-2.70116 12.81656h-5.1229l5.75627-27.23518h6.65045l6.33376 20.06312h.0745q.22354-1.41578.72652-4.04243.50297-2.62665 3.35317-16.02069h5.10426z"/></g><g fill="#333" stroke-width=".747928" transform="matrix(.35198616 0 0 .35198616 -17.524897 185.634111)"><path d="m185.57554-476.3188q0 3.37715-1.35863 5.965-1.35862 2.58785-3.88177 3.98529-2.52316 1.39744-5.91324 1.39744h-4.55462l3.99823-18.91719h4.42522q3.57124 0 5.42155 1.94088 1.86326 1.92795 1.86326 5.62858zm-11.01131 9.44566q2.61373 0 4.59343-1.17747 1.97971-1.19041 3.02779-3.35127 1.06102-2.16086 1.06102-4.9428 0-2.78194-1.33274-4.20526-1.33275-1.43625-3.90766-1.43625h-2.30319l-3.23481 15.11305z"/><path d="m192.76976-464.71228q-2.38082 0-3.73944-1.41038-1.35862-1.41038-1.35862-3.90766 0-2.43258.9575-4.65813.97044-2.23849 2.56197-3.48066 1.59153-1.24217 3.50654-1.24217 1.97971 0 2.97603.86693.99632.85399.99632 2.39376 0 2.32907-2.14791 3.66181-2.14792 1.31981-6.14615 1.31981h-.427l-.0517 1.03514q0 1.69504.78929 2.65254.80224.94457 2.4714.94457.81517 0 1.66917-.23291.86693-.2329 2.14791-.85399v1.88913q-1.21629.56933-2.14791.7893-.93163.23291-2.05735.23291zm1.79856-12.84869q-1.33274 0-2.51022 1.21629-1.16453 1.21629-1.78561 3.37715h.15527q2.95015 0 4.5158-.76342 1.57859-.77635 1.57859-2.23849 0-.68578-.47875-1.13865-.46582-.45288-1.47508-.45288z"/><path d="m206.52419-464.71228q-1.2551 0-2.19967-.64697-.94457-.64696-1.46214-1.81149h-.12939l-.0518.49169q-.0388.32348-.14233.90575-.0906.58226-1.47507 7.16835h-2.14792l4.34759-20.54755h1.79856l-.33642 2.70431h.10351q2.31613-2.93721 4.8134-2.93721 1.77268 0 2.79488 1.26804 1.02221 1.25511 1.02221 3.53242 0 2.74312-.89281 5.03337-.89281 2.29025-2.4714 3.57124-1.57859 1.26805-3.57124 1.26805zm2.4067-12.87457q-1.24216 0-2.53609 1.22923-1.28099 1.22923-2.0444 3.09249-.75048 1.86325-.75048 3.81708 0 1.42332.71166 2.18673.7246.75048 2.08322.75048 1.28099 0 2.38082-1.04808 1.11278-1.04808 1.78562-2.97603.67284-1.94089.67284-4.11468 0-2.93722-2.30319-2.93722z"/><path d="m223.03469-479.41128q1.19041 0 2.12204.64696.93162.63403 1.44919 1.83738h.14233l.86694-2.22556h1.64328l-3.01485 14.18143h-1.72092l.33642-2.7043h-.10351q-2.31613 2.96309-4.8781 2.96309-1.79856 0-2.82076-1.28099-1.0222-1.28099-1.0222-3.50654 0-2.69137.91869-4.99455.91868-2.30319 2.53609-3.61006 1.61741-1.30686 3.54536-1.30686zm-2.45846 12.90044q1.25511 0 2.49728-1.19041 1.24216-1.20335 2.01852-3.11836.77636-1.92795.77636-3.8559 0-1.33275-.7246-2.12204-.7246-.7893-1.90207-.7893-1.34569 0-2.51022 1.11278-1.15159 1.11278-1.8115 3.01485-.6599 1.90207-.6599 4.01117 0 1.47507.60815 2.21261.60814.7246 1.70798.7246z"/><path d="m239.46754-479.41128q.89281 0 1.55271.18115l-.46581 1.94089q-.68578-.16821-1.35862-.16821-1.17747 0-2.21262.77635-1.0222.77636-1.79855 2.16086-.76342 1.37156-1.12572 3.05366l-1.3845 6.49551h-2.17379l3.02778-14.18143h1.79856l-.28466 2.62667h.12939q.93163-1.22923 1.53977-1.75974.60815-.54344 1.26805-.82811.67284-.2976 1.48801-.2976z"/><path d="m245.34196-466.48496q.71166 0 1.86326-.33642v1.66916q-.43994.18115-1.0869.31054-.64696.1294-1.03514.1294-1.61741 0-2.48434-.76342-.85399-.77636-.85399-2.30319 0-.85399.23291-1.94089l1.64328-7.78943h-2.22555l.18115-.94457 2.39376-1.00926 1.61741-2.95015h1.26805l-.71166 3.26069h3.54535l-.33642 1.64329h-3.53241l-1.66917 7.81531q-.2329 1.12572-.2329 1.70798 0 .7246.37523 1.11278.37524.38818 1.04808.38818z"/><path d="m257.09082-479.41128q1.19041 0 2.12204.64696.93162.63403 1.44919 1.83738h.14233l.86693-2.22556h1.64329l-3.01485 14.18143h-1.72092l.33642-2.7043h-.10351q-2.31613 2.96309-4.8781 2.96309-1.79856 0-2.82076-1.28099-1.0222-1.28099-1.0222-3.50654 0-2.69137.91869-4.99455.91868-2.30319 2.53609-3.61006 1.61741-1.30686 3.54536-1.30686zm-2.45846 12.90044q1.25511 0 2.49728-1.19041 1.24216-1.20335 2.01852-3.11836.77635-1.92795.77635-3.8559 0-1.33275-.72459-2.12204-.7246-.7893-1.90207-.7893-1.34569 0-2.51022 1.11278-1.15159 1.11278-1.8115 3.01485-.6599 1.90207-.6599 4.01117 0 1.47507.60815 2.21261.60814.7246 1.70798.7246z"/><path d="m272.79907-464.97107 1.91501-8.95397q.23291-1.21629.23291-1.7468 0-.90574-.40112-1.41037-.40111-.50464-1.37156-.50464-1.0869 0-2.12204.77636-1.0222.77636-1.81149 2.22555-.77636 1.43626-1.20335 3.46772l-1.30687 6.14615h-2.17379l3.02778-14.18143h1.79856l-.28466 2.62667h.12939q1.12571-1.53977 2.23849-2.21261 1.12572-.67284 2.31613-.67284 1.46213 0 2.25143.84105.78929.84105.93162 2.34201h.10352q1.11277-1.61741 2.36788-2.39377 1.25511-.78929 2.5361-.78929 1.64328 0 2.53609.87987.90575.87987.90575 2.56197 0 .87987-.28466 2.30319l-1.86326 8.69518h-2.19967l1.91501-8.95397q.25878-1.34568.25878-1.88913 0-.80223-.45287-1.28098-.43993-.4917-1.39744-.4917-1.04808 0-2.07028.75048-1.0222.75048-1.79856 2.13498-.76341 1.37156-1.16453 3.26069l-1.3845 6.46963z"/><path d="m293.26898-464.71228q-2.38083 0-3.73945-1.41038-1.35862-1.41038-1.35862-3.90766 0-2.43258.9575-4.65813.97045-2.23849 2.56198-3.48066 1.59153-1.24217 3.50654-1.24217 1.9797 0 2.97603.86693.99632.85399.99632 2.39376 0 2.32907-2.14792 3.66181-2.14791 1.31981-6.14615 1.31981h-.42699l-.0518 1.03514q0 1.69504.7893 2.65254.80223.94457 2.47139.94457.81518 0 1.66917-.23291.86693-.2329 2.14792-.85399v1.88913q-1.21629.56933-2.14792.7893-.93163.23291-2.05734.23291zm1.79855-12.84869q-1.33274 0-2.51021 1.21629-1.16454 1.21629-1.78562 3.37715h.15527q2.95015 0 4.5158-.76342 1.57859-.77635 1.57859-2.23849 0-.68578-.47875-1.13865-.46581-.45288-1.47508-.45288z"/><path d="m309.40423-464.97107 1.91501-8.95397q.25879-1.34568.25879-1.86325 0-.81517-.46582-1.30686-.45287-.4917-1.46213-.4917-1.1516 0-2.25143.77636-1.0869.77636-1.92795 2.21261-.82812 1.43626-1.25511 3.48066l-1.30687 6.14615h-2.17379l3.02778-14.18143h1.79856l-.28466 2.62667h.12939q1.24217-1.57859 2.39376-2.22555 1.16454-.6599 2.4067-.6599 1.64329 0 2.58786.90575.9575.89281.9575 2.51021 0 1.0222-.2976 2.32907l-1.85032 8.69518z"/><path d="m320.37672-466.48496q.71166 0 1.86326-.33642v1.66916q-.43994.18115-1.0869.31054-.64696.1294-1.03514.1294-1.61741 0-2.48434-.76342-.85399-.77636-.85399-2.30319 0-.85399.23291-1.94089l1.64328-7.78943h-2.22555l.18115-.94457 2.39376-1.00926 1.61741-2.95015h1.26805l-.71166 3.26069h3.54535l-.33642 1.64329h-3.53241l-1.66917 7.81531q-.23291 1.12572-.23291 1.70798 0 .7246.37524 1.11278.37524.38818 1.04808.38818z"/><path d="m332.17732-479.33365q2.45846 0 3.88178 1.46214 1.42331 1.4492 1.42331 3.99823 0 2.43258-.93162 4.59344-.93163 2.16085-2.52316 3.33833-1.59153 1.17747-3.59711 1.17747-2.48434 0-3.89472-1.46214-1.41038-1.46213-1.41038-3.99823 0-2.45846.94457-4.61931.94456-2.1738 2.54903-3.32539 1.60447-1.16454 3.5583-1.16454zm3.05366 5.16277q0-1.48802-.81517-2.4067-.80223-.93163-2.18673-.93163-1.41038 0-2.5361.95751-1.11277.9575-1.73386 2.66548-.60814 1.69504-.60814 3.77827 0 1.69504.81517 2.62666.82811.91869 2.36788.91869 1.34569 0 2.41964-.94456 1.07396-.94457 1.66917-2.67843.60814-1.7468.60814-3.98529z"/><path d="m356.12789-470.98782h-6.41787l-3.17012 6.01675h-2.44552l10.33847-18.91719h2.25143l2.38082 18.91719h-2.19967zm-.2329-2.01853-.45288-3.86884q-.31054-2.31612-.37524-4.52874-.47875 1.13866-1.04808 2.26437-.55638 1.12572-3.22187 6.13321z"/><path d="m366.86747-464.71228q-2.51022 0-3.89472-1.3845-1.3845-1.38451-1.3845-3.90766 0-2.58785.95751-4.77459.9575-2.18673 2.63961-3.40302 1.69504-1.22923 3.80414-1.22923 1.77268 0 3.46772.6599l-.60815 1.82444q-1.55271-.65991-2.83369-.65991-1.4492 0-2.65255.99633-1.19041.98338-1.87619 2.75606-.67284 1.75974-.67284 3.83002 0 1.65622.85399 2.57491.86693.91869 2.38082.91869.93163 0 1.75974-.25879.82811-.25878 1.63035-.60814v1.85031q-1.60447.81518-3.57124.81518z"/><path d="m380.5184-479.41128q1.19041 0 2.12204.64696.93162.63403 1.44919 1.83738h.14234l.86693-2.22556h1.64328l-3.01484 14.18143h-1.72093l.33642-2.7043h-.10351q-2.31613 2.96309-4.8781 2.96309-1.79856 0-2.82076-1.28099-1.0222-1.28099-1.0222-3.50654 0-2.69137.91869-4.99455.91869-2.30319 2.53609-3.61006 1.61741-1.30686 3.54536-1.30686zm-2.45846 12.90044q1.25511 0 2.49728-1.19041 1.24217-1.20335 2.01852-3.11836.77636-1.92795.77636-3.8559 0-1.33275-.7246-2.12204-.7246-.7893-1.90207-.7893-1.34569 0-2.51022 1.11278-1.15159 1.11278-1.81149 3.01485-.65991 1.90207-.65991 4.01117 0 1.47507.60815 2.21261.60814.7246 1.70798.7246z"/><path d="m395.48912-479.3854q2.51021 0 3.63593 2.45846h.12939q.21997-2.00559.58227-3.54536l1.00926-4.63225h2.14792l-4.26996 20.13348h-1.79855l.28466-2.7043h-.10352q-1.30686 1.6174-2.44551 2.29024-1.13866.67285-2.35495.67285-1.79856 0-2.80782-1.26805-1.00926-1.26805-1.00926-3.51948 0-2.769.93163-5.07219.93162-2.30319 2.51021-3.55829 1.59153-1.25511 3.5583-1.25511zm-2.45846 12.87456q1.21629 0 2.51021-1.20335 1.29393-1.21629 2.04441-3.09248.76341-1.88914.76341-3.84296 0-1.43626-.69872-2.18674-.69872-.75048-2.03146-.75048-1.30686 0-2.43258 1.07396-1.11278 1.06102-1.79856 3.00191-.67284 1.92795-.67284 4.06293 0 2.93721 2.31613 2.93721z"/><path d="m408.88125-464.71228q-2.38082 0-3.73944-1.41038-1.35863-1.41038-1.35863-3.90766 0-2.43258.95751-4.65813.97044-2.23849 2.56197-3.48066 1.59153-1.24217 3.50654-1.24217 1.97971 0 2.97603.86693.99632.85399.99632 2.39376 0 2.32907-2.14791 3.66181-2.14792 1.31981-6.14615 1.31981h-.427l-.0518 1.03514q0 1.69504.78929 2.65254.80223.94457 2.4714.94457.81517 0 1.66916-.23291.86693-.2329 2.14792-.85399v1.88913q-1.21629.56933-2.14792.7893-.93162.23291-2.05734.23291zm1.79856-12.84869q-1.33275 0-2.51022 1.21629-1.16453 1.21629-1.78562 3.37715h.15528q2.95015 0 4.5158-.76342 1.57859-.77635 1.57859-2.23849 0-.68578-.47876-1.13865-.46581-.45288-1.47507-.45288zm4.33465-3.46772h-1.33274q-.73754-.62108-2.08322-2.44552-1.73386 1.53977-3.1313 2.44552h-1.41038v-.34936q1.87619-1.72092 2.6396-2.54903.77636-.84105 1.07396-1.34568h2.04441q.47875 1.28098 1.65622 3.04072l.54345.85399z"/><path d="m424.58951-464.97107 1.91501-8.95397q.23291-1.21629.23291-1.7468 0-.90574-.40112-1.41037-.40112-.50464-1.37156-.50464-1.0869 0-2.12204.77636-1.0222.77636-1.8115 2.22555-.77635 1.43626-1.20335 3.46772l-1.30686 6.14615h-2.1738l3.02779-14.18143h1.79856l-.28467 2.62667h.12939q1.12572-1.53977 2.2385-2.21261 1.12571-.67284 2.31612-.67284 1.46214 0 2.25143.84105.7893.84105.93163 2.34201h.10351q1.11278-1.61741 2.36789-2.39377 1.25511-.78929 2.53609-.78929 1.64329 0 2.5361.87987.90575.87987.90575 2.56197 0 .87987-.28467 2.30319l-1.86325 8.69518h-2.19968l1.91501-8.95397q.25879-1.34568.25879-1.88913 0-.80223-.45287-1.28098-.43994-.4917-1.39744-.4917-1.04808 0-2.07028.75048-1.02221.75048-1.79856 2.13498-.76342 1.37156-1.16453 3.26069l-1.38451 6.46963z"/><path d="m441.63049-464.97107h-2.17379l3.02779-14.18143h2.17379zm1.46214-17.80442q0-.7246.41406-1.17747.41405-.46581 1.07396-.46581 1.13865 0 1.13865 1.16453 0 .71166-.43993 1.20335-.427.49169-.99633.49169-.51757 0-.85399-.31054-.33642-.32348-.33642-.90575z"/><path d="m451.96897-464.71228q-2.51021 0-3.89472-1.3845-1.3845-1.38451-1.3845-3.90766 0-2.58785.95751-4.77459.9575-2.18673 2.63961-3.40302 1.69504-1.22923 3.80414-1.22923 1.77268 0 3.46772.6599l-.60814 1.82444q-1.55272-.65991-2.8337-.65991-1.4492 0-2.65255.99633-1.19041.98338-1.87619 2.75606-.67284 1.75974-.67284 3.83002 0 1.65622.85399 2.57491.86693.91869 2.38082.91869.93163 0 1.75974-.25879.82811-.25878 1.63035-.60814v1.85031q-1.60447.81518-3.57124.81518z"/><path d="m465.67164-479.33365q2.45846 0 3.88178 1.46214 1.42332 1.4492 1.42332 3.99823 0 2.43258-.93163 4.59344-.93163 2.16085-2.52315 3.33833-1.59153 1.17747-3.59712 1.17747-2.48433 0-3.89471-1.46214-1.41038-1.46213-1.41038-3.99823 0-2.45846.94456-4.61931.94457-2.1738 2.54904-3.32539 1.60446-1.16454 3.55829-1.16454zm3.05367 5.16277q0-1.48802-.81518-2.4067-.80223-.93163-2.18673-.93163-1.41038 0-2.5361.95751-1.11277.9575-1.73386 2.66548-.60814 1.69504-.60814 3.77827 0 1.69504.81517 2.62666.82812.91869 2.36789.91869 1.34568 0 2.41964-.94456 1.07396-.94457 1.66916-2.67843.60815-1.7468.60815-3.98529z"/><path d="m487.37077-479.3854q2.51022 0 3.63593 2.45846h.12939q.21997-2.00559.58227-3.54536l1.00926-4.63225h2.14792l-4.26996 20.13348h-1.79855l.28466-2.7043h-.10351q-1.30687 1.6174-2.44552 2.29024-1.13866.67285-2.35495.67285-1.79855 0-2.80782-1.26805-1.00926-1.26805-1.00926-3.51948 0-2.769.93163-5.07219.93163-2.30319 2.51021-3.55829 1.59153-1.25511 3.5583-1.25511zm-2.45846 12.87456q1.21629 0 2.51022-1.20335 1.29392-1.21629 2.0444-3.09248.76342-1.88914.76342-3.84296 0-1.43626-.69872-2.18674-.69872-.75048-2.03147-.75048-1.30686 0-2.43258 1.07396-1.11277 1.06102-1.79855 3.00191-.67285 1.92795-.67285 4.06293 0 2.93721 2.31613 2.93721z"/><path d="m500.76292-464.71228q-2.38082 0-3.73945-1.41038-1.35862-1.41038-1.35862-3.90766 0-2.43258.95751-4.65813.97044-2.23849 2.56197-3.48066 1.59153-1.24217 3.50654-1.24217 1.97971 0 2.97603.86693.99632.85399.99632 2.39376 0 2.32907-2.14792 3.66181-2.14791 1.31981-6.14614 1.31981h-.427l-.0518 1.03514q0 1.69504.7893 2.65254.80223.94457 2.4714.94457.81517 0 1.66916-.23291.86693-.2329 2.14792-.85399v1.88913q-1.21629.56933-2.14792.7893-.93163.23291-2.05734.23291zm1.79856-12.84869q-1.33275 0-2.51022 1.21629-1.16453 1.21629-1.78562 3.37715h.15527q2.95015 0 4.5158-.76342 1.57859-.77635 1.57859-2.23849 0-.68578-.47875-1.13865-.46581-.45288-1.47507-.45288z"/><path d="m524.97227-464.97107h-9.51036l3.99823-18.91719h9.51036l-.41406 1.9797h-7.32362l-1.26805 6.06851h6.81899l-.37524 1.96677h-6.84486l-1.47508 6.93544h7.31068z"/><path d="m530.80786-464.97107h-2.17379l4.29583-20.13348h2.1738z"/><path d="m540.99107-464.71228q-2.38082 0-3.73945-1.41038-1.35862-1.41038-1.35862-3.90766 0-2.43258.95751-4.65813.97044-2.23849 2.56197-3.48066 1.59153-1.24217 3.50654-1.24217 1.9797 0 2.97603.86693.99632.85399.99632 2.39376 0 2.32907-2.14792 3.66181-2.14791 1.31981-6.14614 1.31981h-.427l-.0518 1.03514q0 1.69504.7893 2.65254.80223.94457 2.4714.94457.81517 0 1.66916-.23291.86693-.2329 2.14792-.85399v1.88913q-1.21629.56933-2.14792.7893-.93163.23291-2.05734.23291zm1.79856-12.84869q-1.33275 0-2.51022 1.21629-1.16453 1.21629-1.78562 3.37715h.15527q2.95015 0 4.5158-.76342 1.57859-.77635 1.57859-2.23849 0-.68578-.47875-1.13865-.46581-.45288-1.47507-.45288z"/><path d="m552.80459-466.48496q.71166 0 1.86326-.33642v1.66916q-.43994.18115-1.0869.31054-.64696.1294-1.03514.1294-1.61741 0-2.48434-.76342-.85399-.77636-.85399-2.30319 0-.85399.23291-1.94089l1.64328-7.78943h-2.22555l.18115-.94457 2.39376-1.00926 1.61741-2.95015h1.26805l-.71166 3.26069h3.54536l-.33643 1.64329h-3.53241l-1.66917 7.81531q-.2329 1.12572-.2329 1.70798 0 .7246.37524 1.11278.37523.38818 1.04807.38818z"/><path d="m566.01558-479.41128q.89281 0 1.55272.18115l-.46582 1.94089q-.68578-.16821-1.35862-.16821-1.17747 0-2.21261.77635-1.0222.77636-1.79856 2.16086-.76342 1.37156-1.12571 3.05366l-1.38451 6.49551h-2.17379l3.02779-14.18143h1.79855l-.28466 2.62667h.12939q.93163-1.22923 1.53977-1.75974.60815-.54344 1.26805-.82811.67284-.2976 1.48801-.2976z"/><path d="m575.09895-479.33365q2.45846 0 3.88178 1.46214 1.42332 1.4492 1.42332 3.99823 0 2.43258-.93163 4.59344-.93163 2.16085-2.52316 3.33833-1.59153 1.17747-3.59711 1.17747-2.48434 0-3.89472-1.46214-1.41038-1.46213-1.41038-3.99823 0-2.45846.94457-4.61931.94457-2.1738 2.54903-3.32539 1.60447-1.16454 3.5583-1.16454zm3.05366 5.16277q0-1.48802-.81517-2.4067-.80223-.93163-2.18673-.93163-1.41038 0-2.5361.95751-1.11277.9575-1.73386 2.66548-.60814 1.69504-.60814 3.77827 0 1.69504.81517 2.62666.82811.91869 2.36788.91869 1.34569 0 2.41965-.94456 1.07395-.94457 1.66916-2.67843.60814-1.7468.60814-3.98529zm1.52684-6.85781h-1.33275q-.73753-.62108-2.08322-2.44552-1.73386 1.53977-3.1313 2.44552h-1.41038v-.34936q1.8762-1.72092 2.63961-2.54903.77636-.84105 1.07396-1.34568h2.0444q.47876 1.28098 1.65623 3.04072l.54345.85399z"/><path d="m591.07894-464.97107 1.91501-8.95397q.25879-1.34568.25879-1.86325 0-.81517-.46581-1.30686-.45288-.4917-1.46214-.4917-1.15159 0-2.25143.77636-1.0869.77636-1.92795 2.21261-.82811 1.43626-1.25511 3.48066l-1.30686 6.14615h-2.1738l3.02779-14.18143h1.79855l-.28466 2.62667h.12939q1.24217-1.57859 2.39377-2.22555 1.16453-.6599 2.4067-.6599 1.64328 0 2.58785.90575.9575.89281.9575 2.51021 0 1.0222-.2976 2.32907l-1.85031 8.69518z"/><path d="m599.87763-464.97107h-2.1738l3.02779-14.18143h2.17379zm1.46213-17.80442q0-.7246.41406-1.17747.41405-.46581 1.07396-.46581 1.13865 0 1.13865 1.16453 0 .71166-.43993 1.20335-.427.49169-.99633.49169-.51757 0-.85399-.31054-.33642-.32348-.33642-.90575z"/><path d="m610.2161-464.71228q-2.51021 0-3.89471-1.3845-1.3845-1.38451-1.3845-3.90766 0-2.58785.9575-4.77459.95751-2.18673 2.63961-3.40302 1.69504-1.22923 3.80414-1.22923 1.77268 0 3.46772.6599l-.60814 1.82444q-1.55271-.65991-2.8337-.65991-1.4492 0-2.65255.99633-1.19041.98338-1.87619 2.75606-.67284 1.75974-.67284 3.83002 0 1.65622.85399 2.57491.86693.91869 2.38082.91869.93163 0 1.75974-.25879.82811-.25878 1.63035-.60814v1.85031q-1.60447.81518-3.57124.81518z"/><path d="m623.86702-479.41128q1.19041 0 2.12203.64696.93163.63403 1.4492 1.83738h.14233l.86693-2.22556h1.64329l-3.01485 14.18143h-1.72092l.33642-2.7043h-.10351q-2.31613 2.96309-4.8781 2.96309-1.79856 0-2.82076-1.28099-1.0222-1.28099-1.0222-3.50654 0-2.69137.91869-4.99455.91868-2.30319 2.53609-3.61006 1.61741-1.30686 3.54536-1.30686zm-2.45846 12.90044q1.25511 0 2.49727-1.19041 1.24217-1.20335 2.01853-3.11836.77635-1.92795.77635-3.8559 0-1.33275-.72459-2.12204-.7246-.7893-1.90208-.7893-1.34568 0-2.51021 1.11278-1.1516 1.11278-1.8115 3.01485-.6599 1.90207-.6599 4.01117 0 1.47507.60815 2.21261.60814.7246 1.70798.7246z"/></g><g stroke-linecap="round" stroke-linejoin="round" transform="matrix(.09976701 0 0 .09976701 -6.355894 -7.26979)"><path d="m82.0398 330.3706 52.905-238.6698h329.2097l-52.905 238.6698z" fill="none" stroke="#c5c7c8" stroke-width="5.6693"/><path d="m77.8434 325.6736 52.905-238.6698h329.2097l-52.905 238.6698z" fill="#fbfafb" fill-rule="evenodd" stroke="#1b1918" stroke-width="7.05616"/><path d="m282.0728 199.4494 19.4278-81.8465-158.5273 84.7729 18.3512-79.8823h-15.3879l3.445-16.3029h291.5779l-21.5552 93.2588z" fill="none" stroke="#c5c7c8" stroke-width="5.6693"/><path d="m278.5686 195.4446 19.4278-81.8465-158.5273 84.773 18.3512-79.8823h-15.3879l3.445-16.3029h291.5779l-21.5552 93.2587z" fill="#d9dadb" fill-rule="evenodd" stroke="#565757" stroke-width="7.05616"/><path d="m394.2717 309.5649h-289.6146l3.4427-16.2094h13.9717l18.172-78.1033 118.2637 85.1309 19.6518-82.2044h137.6676z" fill="none" stroke="#b4ccd6" stroke-width="5.6693"/><path d="m390.2669 305.5601h-289.6146l3.4427-16.2094h13.9717l18.172-78.1033 118.2637 85.131 19.6518-82.2045h137.6677z" fill="#acf" fill-rule="evenodd" stroke="#008bd0" stroke-width="7.05616"/></g></svg>