<svg height="646.2829" viewBox="0 0 1024 646.28292" width="1024" xmlns="http://www.w3.org/2000/svg" xmlns:xlink="http://www.w3.org/1999/xlink"><linearGradient id="a" gradientTransform="matrix(1.0290585 .1255944 0 1.0429593 -885.09834 2835.6859)" gradientUnits="userSpaceOnUse" x1="1170.2649" x2="1549.4739" y1="-2428.7693" y2="-2361.1851"><stop offset="0" stop-opacity=".288889"/><stop offset="1" stop-opacity="0"/></linearGradient><linearGradient id="b" gradientTransform="matrix(.54401523 .33097183 -.33104078 .54390201 -402.24461 -491.49184)" gradientUnits="userSpaceOnUse" x1="1140.178" x2="1176.9996" xlink:href="#c" y1="383.30737" y2="387.75702"/><linearGradient id="c"><stop offset="0" stop-color="#fff6d4"/><stop offset="1" stop-color="#ffa743"/></linearGradient><linearGradient id="d" gradientTransform="matrix(.63682068 0 0 .63668806 -655.43673 -145.44787)" gradientUnits="userSpaceOnUse" x1="1190.7889" x2="1285.5714" xlink:href="#e" y1="407.13068" y2="407.13068"/><linearGradient id="e"><stop offset="0" stop-color="#31301f"/><stop offset="1" stop-color="#000417"/></linearGradient><linearGradient id="f" gradientTransform="matrix(.63682068 0 0 .63668806 -655.43673 1049.9214)" gradientUnits="userSpaceOnUse" x1="1330.5081" x2="1342.2886" xlink:href="#c" y1="-1485.2084" y2="-1530.9526"/><linearGradient id="g" gradientTransform="matrix(.63682068 0 0 .63668806 -655.43673 -145.58858)" gradientUnits="userSpaceOnUse" x1="1289.8214" x2="1360.6978" xlink:href="#h" y1="320.63718" y2="317.37106"/><linearGradient id="h"><stop offset="0" stop-color="#fff6d4"/><stop offset="1" stop-color="#ffb25a"/></linearGradient><linearGradient id="i" gradientTransform="matrix(-.0813689 .63146934 -.63160083 -.08135196 576.79547 -538.94777)" gradientUnits="userSpaceOnUse" x1="1190.7288" x2="1164.8413" xlink:href="#h" y1="388.81326" y2="388.47171"/><linearGradient id="j" gradientTransform="matrix(.63682068 0 0 .63668806 -655.43673 -145.44787)" gradientUnits="userSpaceOnUse" x1="1384.6793" x2="1420.8658" xlink:href="#e" y1="407.58383" y2="407.58383"/><linearGradient id="k" gradientTransform="matrix(.54722731 0 0 .88784777 -328.67813 -589.00456)" gradientUnits="userSpaceOnUse" x1="1176.8881" x2="1160.7505" xlink:href="#h" y1="385.95596" y2="386.23999"/><linearGradient id="l" gradientTransform="matrix(.63682068 0 0 .63668806 -655.43673 1049.9214)" gradientUnits="userSpaceOnUse" x1="1343.821" x2="1407.3564" xlink:href="#m" y1="-1241.8676" y2="-1265.3818"/><linearGradient id="m"><stop offset="0" stop-color="#001686"/><stop offset="1" stop-color="#000b42"/></linearGradient><linearGradient id="n" gradientTransform="matrix(-.59312625 .23177461 .23182289 .59300271 872.02127 -422.94535)" gradientUnits="userSpaceOnUse" x1="1305.8933" x2="1293.0314" y1="500.04712" y2="493.44324"><stop offset="0" stop-color="#000832"/><stop offset="1" stop-color="#001686"/></linearGradient><linearGradient id="o" gradientTransform="matrix(.54722731 0 0 .88784777 -332.53671 -541.09385)" gradientUnits="userSpaceOnUse" x1="1176.8881" x2="1160.7505" xlink:href="#h" y1="385.95596" y2="386.23999"/><linearGradient id="p" gradientTransform="matrix(.63682068 0 0 .63668806 -655.43673 1049.9214)" gradientUnits="userSpaceOnUse" x1="1263.9237" x2="1337.1201" xlink:href="#m" y1="-1269.1346" y2="-1260.562"/><linearGradient id="q" gradientTransform="matrix(.63682068 0 0 .63668806 -655.4773 -143.36794)" gradientUnits="userSpaceOnUse" x1="1330.5652" x2="1342.9425" y1="460.30298" y2="371.88126"><stop offset="0" stop-color="#d2d8ff"/><stop offset="1" stop-color="#eff2ff"/></linearGradient><linearGradient id="r" gradientTransform="matrix(.63682068 0 0 .63668806 -655.43673 -145.44787)" gradientUnits="userSpaceOnUse" x1="1332.595" x2="1384.7522" xlink:href="#e" y1="427.76169" y2="436.47131"/><linearGradient id="s" gradientTransform="matrix(.63682068 0 0 .63668806 -655.43673 -145.44787)" gradientUnits="userSpaceOnUse" x1="1305.8933" x2="1298.2223" y1="500.04712" y2="491.11987"><stop offset="0" stop-color="#070740"/><stop offset="1" stop-color="#07073b"/></linearGradient><linearGradient id="t" gradientTransform="matrix(.63682068 0 0 .63668806 -655.43673 -145.44787)" gradientUnits="userSpaceOnUse" x1="1269.394" x2="1329.0656" xlink:href="#e" y1="423.13184" y2="423.13184"/><linearGradient id="u" gradientTransform="matrix(.63682068 0 0 .63668806 -660.61518 -131.99681)" gradientUnits="userSpaceOnUse" x1="1324.5603" x2="1320.2244" xlink:href="#v" y1="424.90076" y2="424.90076"/><linearGradient id="v"><stop offset="0" stop-color="#282828"/><stop offset="1" stop-color="#000417"/></linearGradient><linearGradient id="w" gradientTransform="matrix(.63682068 0 0 .63668806 -660.61518 -131.99681)" gradientUnits="userSpaceOnUse" x1="1320.2244" x2="1324.5603" xlink:href="#x" y1="424.90076" y2="424.90076"/><linearGradient id="x"><stop offset="0" stop-color="#c7c7c7"/><stop offset="1" stop-color="#6e6e6e"/></linearGradient><linearGradient id="y" gradientTransform="matrix(.63682068 0 0 .63668806 -660.93533 -147.71613)" gradientUnits="userSpaceOnUse" x1="1324.5603" x2="1320.2244" xlink:href="#v" y1="424.90076" y2="424.90076"/><linearGradient id="z" gradientTransform="matrix(.63682068 0 0 .63668806 -660.93533 -147.71613)" gradientUnits="userSpaceOnUse" x1="1320.2244" x2="1324.5603" xlink:href="#x" y1="424.90076" y2="424.90076"/><linearGradient id="A" gradientTransform="matrix(.63682068 0 0 .63668806 -661.10541 -163.43545)" gradientUnits="userSpaceOnUse" x1="1324.5603" x2="1320.2244" xlink:href="#v" y1="424.90076" y2="424.90076"/><linearGradient id="B" gradientTransform="matrix(.63682068 0 0 .63668806 -661.10541 -163.43545)" gradientUnits="userSpaceOnUse" x1="1320.2244" x2="1324.5603" xlink:href="#x" y1="424.90076" y2="424.90076"/><linearGradient id="C" gradientTransform="matrix(.63682068 0 0 .63668806 -660.75584 -116.27748)" gradientUnits="userSpaceOnUse" x1="1320.2245" x2="1324.5603" xlink:href="#v" y1="424.90076" y2="424.90076"/><linearGradient id="D" gradientTransform="matrix(.63682068 0 0 .63668806 -660.61518 -145.44787)" gradientUnits="userSpaceOnUse" x1="1320.0035" x2="1324.3394" xlink:href="#x" y1="470.71658" y2="470.71658"/><linearGradient id="E" gradientTransform="matrix(.63682068 0 0 .63668806 -655.43673 -145.36828)" gradientUnits="userSpaceOnUse" x1="1292.438" x2="1329.75" xlink:href="#e" y1="723.28125" y2="723.28125"/><linearGradient id="F" gradientTransform="matrix(.63682068 0 0 .63668806 -612.21251 -139.79726)" gradientUnits="userSpaceOnUse" x1="1291.9342" x2="1308.9272" y1="373.12817" y2="373.12817"><stop offset="0" stop-color="#cecfd3"/><stop offset="1" stop-color="#eff2ff"/></linearGradient><linearGradient id="G" gradientTransform="matrix(.63682068 0 0 .63668806 -612.21251 -139.79726)" gradientUnits="userSpaceOnUse" x1="1300.6154" x2="1296.1641" y1="377.76025" y2="374.22266"><stop offset="0" stop-color="#b5b6bd"/><stop offset="1" stop-color="#eff2ff"/></linearGradient><linearGradient id="H" gradientTransform="matrix(.61512155 .16478701 -.16482132 .61499344 -655.43673 -145.44787)" gradientUnits="userSpaceOnUse" x1="1448.062" x2="1403.7003" xlink:href="#e" y1="46.104511" y2="24.678267"/><linearGradient id="I" gradientTransform="matrix(.56017384 0 0 .28730037 -517.60712 -6.340513)" gradientUnits="userSpaceOnUse" x1="1300.0385" x2="1323.7174" xlink:href="#e" y1="352.74701" y2="427.98849"/><linearGradient id="J" gradientTransform="matrix(.63682068 0 0 .63668806 -655.43673 -145.44787)" gradientUnits="userSpaceOnUse" x1="1306.2776" x2="1362.3224" xlink:href="#K" y1="294.10513" y2="294.10513"/><linearGradient id="K"><stop offset="0" stop-color="#140f0e"/><stop offset="1" stop-color="#141212"/></linearGradient><linearGradient id="L" gradientTransform="matrix(.63682068 0 0 .63668806 -607.79317 -141.14538)" gradientUnits="userSpaceOnUse" x1="1292.438" x2="1329.75" xlink:href="#e" y1="723.28125" y2="723.28125"/><linearGradient id="M" gradientTransform="matrix(.50894839 0 0 .5088851 -374.81536 -290.34573)" gradientUnits="userSpaceOnUse" x1="772.9093" x2="777.94299" xlink:href="#N" y1="1277.3118" y2="1283.2579"/><linearGradient id="N"><stop offset="0" stop-color="#ffef8e"/><stop offset="1" stop-color="#ffd443"/></linearGradient><linearGradient id="O" gradientTransform="matrix(.21893942 0 0 .2189122 -166.08217 91.479701)" gradientUnits="userSpaceOnUse" x1="846.62341" x2="850.49878" xlink:href="#v" y1="1233.3478" y2="1236.613"/><linearGradient id="P" gradientTransform="matrix(.50894839 0 0 .5088851 -333.44355 -264.5373)" gradientUnits="userSpaceOnUse" x1="772.9093" x2="777.94299" xlink:href="#N" y1="1277.3118" y2="1283.2579"/><linearGradient id="Q" gradientTransform="matrix(.21893942 0 0 .2189122 -124.71035 117.28811)" gradientUnits="userSpaceOnUse" x1="846.62341" x2="850.49878" xlink:href="#v" y1="1233.3478" y2="1236.613"/><linearGradient id="R" gradientUnits="userSpaceOnUse" x1="193.566234" x2="193.76418" xlink:href="#c" y1="60.456876" y2="56.836878"/><linearGradient id="S" gradientTransform="matrix(1.0308418 .10994012 -.30641665 1.0385113 -1382.4913 622.16812)" gradientUnits="userSpaceOnUse" x1="1311.7388" x2="1317.7806" xlink:href="#T" y1="-685.2663" y2="-685.2663"/><linearGradient id="T"><stop offset="0" stop-color="#0b0600"/><stop offset="1" stop-color="#272727"/></linearGradient><linearGradient id="U" gradientTransform="matrix(-.63668806 0 0 .63668806 1032.3929 490.36791)" gradientUnits="userSpaceOnUse" x1="1334.1437" x2="1335.228" xlink:href="#c" y1="-675.85028" y2="-683.14905"/><linearGradient id="V" gradientTransform="matrix(-1.0366376 -.03038741 .18405489 1.0705972 1683.2562 828.96422)" gradientUnits="userSpaceOnUse" x1="1311.7388" x2="1317.7806" xlink:href="#T" y1="-685.2663" y2="-685.2663"/><radialGradient id="W" cx="181.49637" cy="59.239146" gradientUnits="userSpaceOnUse" r=".914343" xlink:href="#K"/><radialGradient id="X" cx="193.043" cy="59.618806" gradientUnits="userSpaceOnUse" r=".914343" xlink:href="#K"/><linearGradient id="Y" gradientUnits="userSpaceOnUse" x1="-358.697101" x2="695.979423" y1="440.530061" y2="567.71685"><stop offset="0" stop-opacity=".130045"/><stop offset="1" stop-opacity="0"/></linearGradient><g transform="matrix(.99218774 0 0 .99218774 298.360701 18.957436)"><path d="m406.61299 454.79352-703.29142 48.48687 974.12399 124.95302 49.87576-3.49205v-129.05969z" fill="url(#Y)"/><path d="m727.32104 548.73861c.00008 15.94906-26.51519 39.07982-65.15161 48.3908-15.91366 3.83499-62.4744-.40779-92.01519-8.35595-42.17498-11.34772-118.05579-32.66289-118.05568-55.18079.00012-22.51791 52.85539-34.32127 118.05568-26.36374 65.20041 7.95758 157.16667 18.99178 157.1668 41.50968z" fill="url(#a)" opacity=".98"/><g transform="matrix(1.6381008 0 0 1.6381008 189.31073 9.619501)"><path d="m-297.38266 262.97119h430.35251v17.936544h-430.35251z" fill="#005e8f" transform="matrix(.99763176 -.06878126 0 1 0 0)"/><path d="m-279.64573 18.539036 395.26795-27.2515228v264.1756368l-395.26795 27.25154z" fill="#fff" stroke="#005e8f" stroke-linecap="square" stroke-width="11.8783"/><g fill="#008bd0" transform="matrix(.63682071 -.0439053 0 .63668807 -653.822931 1056.601802)"><path d="m755.71522-1619.701 239.10576 2.1466-1.24397 138.5625-224.73739-2.0176-14.36837-.129z" opacity=".24" transform="matrix(1.023196 -.00918591 .00918591 1.023196 -130.12269 114.9942)"/><path d="m840.13518-1419.233c-11.123-10.064-10.4783-28.8289-21.0987-39.4008-5.3547-5.3301-14.0649-6.1726-20.1095-10.7411-11.6189-8.7816-15.567-30.1571-30.1905-31.3864-12.4595-1.0476-19.743 15.0538-30.0016 22.0571-6.2886 4.2931-11.829 10.6128-19.317 12.2212-6.3074 1.3549-13.2472-5.1814-19.1777-2.6798-9.98789 4.2131-11.47595 21.2301-18.67219 30.9058-5.2545 7.065-10.47678 12.6559-17.75027 19.631-5.90911 5.6667-22.30676 11.193-22.30676 11.193h217.57229s-13.61537-6.9767-18.94807-11.8017z"/></g><path d="m1050.0482-1621.5467 239.1057 2.1466-1.2439 138.5625-239.1058-2.1466z" fill="#008bd0" opacity=".234" transform="matrix(.6515924 -.05077229 .00584978 .65105338 -740.808914 1138.738311)"/><g transform="matrix(.63682071 -.0439053 0 .63668807 -657.94409 1181.9189)"><path d="m1050.0482-1621.5467 239.1057 2.1466-1.2439 138.5625-239.1058-2.1466z" fill="#008bd0" opacity=".24" transform="matrix(1.023196 -.00918591 .00918591 1.023196 -130.12269 114.9942)"/><g fill="none" stroke-width="18.932"><path d="m1071.5895-1439.9113a47.373112 47.373112 0 0 1 -58.4697-15.5468 47.373112 47.373112 0 0 1 4.4936-60.3342 47.373112 47.373112 0 0 1 60.1277-6.7139" stroke="#008bd0"/><path d="m1098.8132-1477.7487a47.373112 47.373112 0 0 1 -36.3007 40.9593" stroke="#00a1f4"/><path d="m1067.8393-1527.4649a47.373112 47.373112 0 0 1 30.5131 52.9081" stroke="#4ec3ff"/></g></g><g fill="#008bd0"><path d="m-253.7444 164.75827 155.812057-10.74239v90.27473l-146.448997 10.09691-9.36306.64549z" opacity=".24"/><g transform="matrix(.99763176 -.06878126 0 1 0 0)"><path d="m-235.85063 211.74608h67.063019v12.896389h-67.063019z"/><path d="m-235.85063 185.95338h55.248806v12.896389h-55.248806z"/><path d="m-235.85063 160.16068h79.919655v12.896389h-79.919655z"/></g><g transform="matrix(0 -1 .99763176 -.06878126 0 0)"><path d="m-102.53339 31.237253h47.9865v12.929696h-47.9865z"/><path d="m-102.53339 5.377956h39.532921v12.929696h-39.532921z"/><path d="m-102.53339-20.481524h57.185982v12.929696h-57.185982z"/></g><rect height="75.233406" rx="3.184103" ry="3.18344" width="9.978181" x="189.75797" y="83.556221"/></g><path d="m188.70026 63.195575-1.43505 4.530162" fill="#6c6c6c" stroke="#4b4b4b" stroke-width="1.91006"/><path d="m94.718479 96.844265c1.746863 1.008348 1.928713 1.390407 1.030845 2.540538-.883455 1.131737-2.225228 2.072797-1.906118 3.303407.63887 2.46396 2.025113 3.3913 6.549494 3.92648.11093.0132.23125.0161.35316.0173l7.56814 4.6048 3.31026-5.43797-6.54222-3.98054v-.003c-.13115-.0889-.27606-.17663-.43525-.26364 0-.001 0-.003-.007-.004-.76797-.42652-.72797-1.830699-2.20101-2.784261-1.78419-1.154971-4.6647-2.835483-9.042941-4.339926-1.192842-.409874-1.391754.956012-.605252 1.410118.763015.431923 1.398491.706915 1.927269 1.009914z" fill="url(#b)"/><path d="m153.69036 88.374091c-3.94396 6.829829-5.66122 36.323029-6.20803 36.924789-9.77257-8.33015-28.53557-18.53163-39.14542-23.04661-3.76219 1.51423-5.52602 5.00187-5.45476 7.09479l47.11516 30.76569c4.58322 3.78605 9.92866-2.41863 10.5894-6.11932l6.03212-33.79244c1.29598-7.258827-8.83654-18.912849-12.92847-11.826899z" fill="url(#d)"/><path d="m190.38684 78.847901s1.00991 1.678756.57582 2.363958c-.42441.670115-2.33118.479363-2.33118.479363l-3.29758 8.743383 27.94416-1.021246-2.64338-4.57053s-2.13362-.205962-2.81985-.774977c-4.52748-3.754422-1.36956-16.404269-1.36956-16.404269z" fill="url(#f)"/><path d="m176.59113 52.019776c-1.7491 9.809733 6.27031 26.794106 13.25192 26.794106.64941 0 2.20453.227812 2.95997.02021 7.17387-1.971742 17.51941-13.099369 18.21584-22.356289.68067-9.04953-3.95927-22.336096-15.56322-22.336096-11.60371 0-17.34377 9.348216-18.86451 17.878081z" fill="url(#g)"/><path d="m234.70529 159.53814-.88759 9.31199c-.0994 1.04147-1.11796 1.53049-1.58855 2.87314-.1569.44754-.66012 1.75035-.58117 2.67755.0756.88678.71393 1.42657 1.38487.69172.22885 1.4553-1.38836 3.66777-.23943 4.76939 1.56256 1.49812 5.54543 1.36073 6.46652-.59826.81896-1.74175 1.39421-3.66171 1.10453-5.96304-.0946-.75168-.54832-2.21375-.31733-3.36764.6137-3.06599 2.24705-9.42117 2.24705-9.42117z" fill="url(#i)"/><path d="m239.43806 90.947433-10.69446 12.744667s7.12965 20.78121 7.9593 31.9562l-4.35945 32.78606 9.09966.95255 7.07329-35.41826c-.82814-15.69666-5.21632-37.839729-9.07834-43.021217z" fill="url(#j)"/><path d="m304.46396-249.90192h10.944548v8.878478h-10.944548z" fill="url(#k)" transform="matrix(-.03741215 .99929992 -.99989912 -.01420401 0 0)"/><path d="m171.23003 165.00651c1.76771 52.39331-.46426 85.888 8.24684 140.88463l13.86154 1.68682s1.52156-27.17847.52705-40.71472c-.62434-8.49752-4.37343-16.72168-4.0626-25.23635.49485-13.54893 9.37588-39.57889 9.37588-39.57889s9.45833 27.73171 13.31927 41.85415c2.57699 9.42611 5.00289 23.13954 7.81686 35.65818 3.95308 17.58537 7.95593 33.05168 7.95593 33.05168 4.24562 1.81379 8.08257 2.19707 11.72963 1.91649 0 0 1.35272-16.32238.66318-24.4443-1.01951-12.01036-4.14942-23.76793-7.05922-35.46519-1.08224-4.35035-2.86145-8.51271-3.86036-12.88294-4.3009-18.81807-4.82984-38.41705-9.1268-57.18598-2.16485-9.45577-7.33279-19.28668-7.33279-19.28668-6.48931-.43772-12.78024 2.16372-19.21213 1.53996-7.75887-.75257-15.41912-1.4803-22.84228-1.79686z" fill="url(#l)"/><path d="m214.35706 167.43705c-.16147.0791-.32272.15831-.48267.23005-2.09088 1.45463-3.39533-1.68673-4.33897-.0869 0 0 3.90105 11.98391 9.6524 11.84077-1.60212-4.96509-3.61621-9.44614-4.83076-11.98392z" fill="url(#n)" opacity=".376"/><path d="m300.60535-201.9912h10.944548v8.878478h-10.944548z" fill="url(#o)" transform="matrix(-.03741215 .99929992 -.99989912 -.01420401 0 0)"/><path d="m171.22979 165.00594c1.7677 52.39332-.46352 87.96754 8.24758 142.96416 6.12985 2.33102 9.69288 1.22637 13.86078 1.68748 0 0 1.52201-29.25773.5275-42.79396-.62434-8.49751-4.37324-16.72156-4.0624-25.23624.49489-13.54891 9.37573-39.57912 9.37573-39.57912l-12.48384-35.93806c-5.23416-.47526-10.4075-.88856-15.46535-1.10426z" fill="url(#p)"/><path d="m188.04657 83.715414c3.36902 5.848788 11.68971 6.672165 21.65783 2.727622l-11.42593 80.581984-23.66894-1.17741z" fill="url(#q)"/><path d="m207.93994 82.306543c-.12585 7.151656-5.20358 15.344596-6.80541 23.263807-4.207 20.79815-6.35778 46.36441-7.27754 63.24074 7.36126.58149 17.59475.77478 23.84313 2.39906-4.70729-15.72468-3.70279-41.60709 9.16966-64.18631 4.60338-8.074666 9.58163-8.454162 12.64774-16.076205-6.8558-5.115324-20.44672-7.402809-31.57758-8.641092z" fill="url(#r)"/><path d="m172.59796 165.10419c-.44924-.0221-.92058-.0791-1.36817-.0982.15666 4.64181.18313 8.60559.28728 13.00858l.0217.13057c1.02163-.007 4.74396-4.90369 6.19906-11.29002.13042-.57236-2.66365-1.15705-5.14071-1.7509z" fill="url(#s)" opacity=".376"/><path d="m153.69036 88.374091c-6.19484 11.652089 8.81337 25.139889 11.79961 37.392749 2.53652 10.40807.31873 31.13661-.0452 39.85044 5.55364 1.47722 13.49147 3.11858 18.88302 3.42864 1.40542-19.71008-3.65007-64.23275 5.53185-88.079127-17.24717-1.298932-30.73871-2.807242-36.16929 7.407298z" fill="url(#t)"/><g stroke-linecap="square" stroke-linejoin="round" stroke-width=".358493"><ellipse cx="181.5116" cy="138.53238" fill="url(#u)" rx="1.201316" ry="1.201066" stroke="url(#w)"/><ellipse cx="181.19153" cy="122.81306" fill="url(#y)" rx="1.201316" ry="1.201066" stroke="url(#z)"/><ellipse cx="181.02148" cy="107.09378" fill="url(#A)" rx="1.201316" ry="1.201066" stroke="url(#B)"/><ellipse cx="181.371" cy="154.25172" fill="url(#C)" rx="1.201316" ry="1.201066" stroke="url(#D)"/></g><path d="m191.15041 312.54348s1.91683 5.17629.18577 5.51756c-13.05377 2.57331-21.85318 1.41503-23.4663-.1978-1.56441-1.564.55292-4.09479.56081-4.11965 0 0 8.50538-.15401 11.7679-2.48368.15256-.109.28828-.48267.28828-.48267 3.46329.90021 6.35773 3.39331 10.66364 1.76621z" fill="url(#E)"/><path d="m167.35663 317.24032c.12393.20214.30007.40942.51373.62299 1.61312 1.6128 10.41164 2.77102 23.46539.1978.38201-.0753.59028-.38292.69393-.80457-13.12202 2.51291-22.21474 1.55515-24.67305-.0168z" fill-opacity=".404444"/><path d="m211.27391 102.92734c2.38655-1.10635 2.59665-2.5885 3.41557-5.025466 2.10883 2.446106 5.58879 2.546176 5.64671 4.406436z" fill="url(#F)"/><path d="m214.68948 97.901874c-.66082 1.966576-.52678 2.490786-2.14597 4.108016v.004l3.0505.62229c1.2215-2.56451-1.64543-2.57102-.90453-4.734127z" fill="url(#G)"/><path d="m210.55897 101.81451c4.09162 2.06159 7.63473 1.61667 10.9872.30144-.36394 3.49942-1.40504 5.90034-2.4009 7.62469-2.65065 1.42966-8.40969 1.95794-9.68204-1.12459-.68584-1.66164 1.47978-6.4817 1.09574-6.80154z" fill="url(#H)"/><path d="m209.71804 101.17191c1.64709.48355 5.98435 2.16114 12.05777.31834l.1078.92945c-2.22185 1.84999-8.78037 2.12971-11.98882-.0229z" fill="url(#I)"/><path d="m179.8371 38.373641c2.69958-2.995715 8.04838-5.396957 10.69713-5.652289-.31904.219631.23559.410423.28607.39534 2.21897-.941148 5.1415-.77452 8.03671.0501.0654.01877.0693.129199.13307.14845.0652.01973.15305-.06473.19805-.05118 5.08916 1.538767 10.0058 5.067158 10.76453 8.140445 3.35332 6.787535.90244 22.702426-.62325 22.702426-1.25931-.0789-2.95658.02433-4.0946-.914521-.57072-.470907-1.00086-1.203977-1.16442-2.353687.72574-1.494372.83474-4.57374.24492-6.852764-.62198-2.403919-1.04991-3.920412-2.6436-4.832876-2.41368-1.088591-5.46525.368018-8.17291.137814-2.70745-.230219-6.53489-.419266-7.95783-1.200526 0 0 1.42944-2.315999 1.43115-2.279249.11262 2.364615-8.79051 2.514785-11.25195 2.806311 0 0 1.65323-7.509832 4.11696-10.243829z" fill="url(#J)"/><path d="m238.7938 316.76641s1.91692 5.17629.18577 5.51757c-13.05377 2.57331-21.85318 1.41499-23.46641-.19781-1.56434-1.56403.55303-4.09479.56092-4.11965 0 0 8.5054-.15401 11.7679-2.48367.15256-.10901.28831-.48267.28831-.48267 3.46326.9002 6.3577 3.3933 10.66351 1.76621z" fill="url(#L)"/><path d="m215.00012 321.46323c.12392.20214.30007.40945.51361.62301 1.61324 1.61281 10.41176 2.77102 23.46553.19781.38201-.0753.59026-.38295.69386-.80458-13.12207 2.51291-22.21469 1.55515-24.673-.0168z" fill-opacity=".404444"/><g fill="none" stroke-linecap="square"><path d="m18.996689 360.52838h1.145134v1.144992h-1.145134z" stroke="url(#M)" stroke-width=".30383" transform="matrix(.89365976 -.44874518 .44889441 .89358481 0 0)"/><path d="m19.37364 361.46695h.415868v.415816h-.415868z" stroke="url(#O)" stroke-width=".110339" transform="matrix(.89365976 -.44874518 .44889441 .89358481 0 0)"/><path d="m19.37364 361.46695h.415868v.415816h-.415868z" stroke="url(#O)" stroke-width=".110339" transform="matrix(.89365976 -.44874518 .44889441 .89358481 0 0)"/><path d="m60.368538 386.33679h1.145134v1.144992h-1.145134z" stroke="url(#P)" stroke-width=".30383" transform="matrix(.89365976 -.44874518 .44889441 .89358481 0 0)"/><g stroke="url(#Q)" stroke-width=".110339"><path d="m60.745434 387.27533h.415868v.415816h-.415868z" transform="matrix(.89365976 -.44874518 .44889441 .89358481 0 0)"/><path d="m60.745434 387.27533h.415868v.415816h-.415868z" transform="matrix(.89365976 -.44874518 .44889441 .89358481 0 0)"/></g></g><path d="m185.08272 72.274236c.81119 1.297552 2.09343 1.858137 3.37502 1.8422 1.75529-.0219 3.76697-.833958 4.55824-2.63727-1.34194.650613-4.94554 1.36485-7.93326.79507z" fill="#fff"/><path d="m191.49443 59.443119c-.10131-.02642.47973-1.890548 2.43826-1.839143 2.08667.05474 2.638 1.392824 2.638 1.392824-1.38584-.58602-3.41738-.863515-5.05641.505983z" fill="url(#R)"/><path d="m196.60117 59.49925c-.10756.610042-1.74262.769253-2.82434.748916-.88812.000019-2.38535-.278716-2.26445-.844579.17133-.803786 1.39746-1.444225 2.80276-1.417808 1.40523.02642 2.42871.704023 2.28603 1.513471z" fill="#fff"/><path d="m178.54324 55.723594c1.79444-1.572028 4.05131-2.056591 7.01917-.930939l.15569 1.041883c-2.53586-1.073648-5.03532-.629088-7.17484-.110934z" fill="url(#S)"/><path d="m185.08763 59.231254c.10131-.02642-.53604-2.073443-2.49455-2.022038-2.08669.05475-2.63799 1.392825-2.63799 1.392825 1.38581-.586019 3.47363-.680618 5.11267.688879z" fill="url(#U)"/><path d="m179.94387 59.063152c.0705.615414 1.69309.872912 2.77406.917822.88653.05354 2.39783-.134397 2.31125-.706525-.12272-.812664-1.30782-1.52585-2.71216-1.584202-1.40429-.05833-2.46673.556326-2.37315 1.372905z" fill="#fff"/><path d="m199.38451 56.634796c-1.56956-1.835031-4.66926-2.919266-7.90257-2.02878l-.27529 1.138092c2.58979-1.020962 6.08679-.09495 8.17786.890688z" fill="url(#V)"/><path d="m181.49582 58.324636a.91434328.91434328 0 0 0 -.91276.91524.91434328.91434328 0 0 0 .097.407882c.40964.142481.91994.228509 1.41765.279792a.91434328.91434328 0 0 0 .31336-.687674.91434328.91434328 0 0 0 -.91522-.91524z" fill="url(#W)" opacity=".732"/><path d="m193.04329 58.703913a.91434328.91434328 0 0 0 -.91404.915238.91434328.91434328 0 0 0 .0958.404151c.45613.143059 1.03481.214023 1.48603.220112a.91434328.91434328 0 0 0 .24748-.624254.91434328.91434328 0 0 0 -.91525-.915238z" fill="url(#X)" opacity=".756"/></g></g></svg>