<svg height="256" viewBox="0 0 67.733333 67.733335" width="256" xmlns="http://www.w3.org/2000/svg"><circle cx="33.866636" cy="33.866667" fill="#f2f2f2" r="20.391749" stroke-width=".243874"/><path d="m869.60103 489.96179c-.45378-.01-.91049.01-1.36831.0527-2.74691.25721-5.52398 1.44211-7.78166 3.69493l-47.84807 47.74595c.35477.21424.6891.46758.99071.76537 1.21719 1.18897 1.74202 2.9059 1.74202 4.45642 0 .21613-.0351.43445-.0604.65267l49.45384-49.34858c1.55468-1.55132 3.06801-2.05759 4.72194-1.99125.23628.01.47569.0308.71821.0627 1.94029.25145 4.07395 1.37736 5.73017 3.03242 1.65626 1.65506 2.78246 3.78654 3.03443 5.72487.25195 1.93823-.15754 3.65436-1.92694 5.42002l-40.47708 40.39108h7.53446 1.02381l36.19698-36.11926c3.00589-2.99949 4.11035-6.92339 3.64948-10.46884-.46088-3.54535-2.2734-6.73989-4.75308-9.2178-2.47968-2.47781-5.67801-4.29251-9.23172-4.75362-.44421-.0577-.89506-.0915-1.34885-.0995zm-60.55993 56.61991c.002.0348.006.0219.006.0955 0 .0457-.002.0358-.004.0527.0269 0 .037-.01.14599-.01.0742 0 .0538.00099.0954 0-.00007-.0259-.002-.01-.002-.0448 0-.0736.00084-.0517 0-.0935-.0417-.001-.0204 0-.0934 0-.10442 0-.1056 0-.14793 0zm-5.03336 3.45006-.58976.58862h.98487c-.14878-.1854-.2688-.3887-.39511-.58862zm-.68123.67992-1.77706 1.77362 1.77706.80625zm0 3.95911-3.45485 8.02893 3.45485-3.44628zm25.51715 5.10522c-1.03625 0-1.25517.18709-1.44422.39238-.18631.21086-.46129.70838-.46129 1.98349 0 1.12412.23209 1.50019.43015 1.71145.20954.21514.46416.40402 1.47536.40402 1.08099 0 1.31406-.20748 1.43643-.33798.12237-.13049.39706-.56783.39706-1.82414 0-1.23423-.26621-1.73095-.46129-1.95235l-.0194-.0209-.0175-.0219c-.13248-.15596-.27697-.3341-1.33522-.3341zm-35.6812 1.08007-.37954.37696c.26566.11886.49451.22777.96151.4079h.002c2.01537.77809 3.57747 1.49621 4.86403 2.31758l.86031-.85667-2.5634-1.05878c-1.45692-.60106-2.68671-.9632-3.74485-1.18699zm24.69967 8.39216-2.8826 2.87517v7.39942c.27696-.44659.45902-.95126.81553-1.34036l.0155-.0179.0136-.0159c.45729-.48438 1.04463-.81599 1.5902-1.19673-.39006-.87587-.6754-1.80356-.6754-2.77212 0-1.55341.51016-3.17286 1.51429-4.40391.0165-.0199.0457-.0308.0623-.0507-.14674-.16351-.3017-.31947-.45351-.47792zm-33.59077.47792-1.66806 1.66679c2.56945 1.13865 4.8517 1.68132 6.8435 1.71146l.79608-.79451c-.67517-.32763-1.51216-.70191-2.63541-1.13646-1.23462-.47732-2.3424-.94689-3.33611-1.44728zm-6.31603 10.80681-1.72255.81987c-1.58096.75204-3.21135 1.29759-4.87376 1.61816-.14083.0269-.28908.0448-.4321.0696l-31.29598 31.22968-13.04469 31.35411 33.77372-10.45919 52.32477-52.21202h-8.56022l-46.98582 46.88539-20.01082 6.19692 7.6318-18.3423 35.82133-35.74628c-.32356-.13397-.64237-.27491-.95179-.42938l-1.67389-.83528z" fill="#0089d0" transform="matrix(.24387413 0 0 .24387413 -159.95867 -104.72603)"/><g fill="none" stroke="#0089d0" stroke-width="6.99004" transform="matrix(.24387413 0 0 .24387413 -159.95867 -104.72603)"><path d="m860.65368 497.77807c3.52566 8.32432 9.9454 12.82262 16.55545 16.52004"/><path d="m741.86875 616.73449c12.23912-.6837 15.74841 6.67355 16.55545 16.51995"/><path d="m702.74196 648.3106h183.78107"/><path d="m851.26443 507.84985c3.52565 8.32433 9.94548 12.82263 16.55544 16.52005"/></g><path d="m810.44922 1530.7363c-1.01999 0-1.80938.2708-2.36719.8125-.54187.5418-.8125 1.3146-.8125 2.3184 0 .9561.27063 1.7118.8125 2.2695.55781.5417 1.3472.8125 2.36719.8125.98811 0 1.75305-.2708 2.29492-.8125.55781-.5577.83594-1.3134.83594-2.2695 0-1.0038-.27813-1.7766-.83594-2.3184-.54187-.5417-1.30681-.8125-2.29492-.8125zm-90.2207 1.625v34.9434h9.77734c6.02431 0 10.6384-1.5211 13.8418-4.5645 3.2034-3.0593 4.80468-7.474 4.80468-13.2422 0-5.4334-1.54683-9.6489-4.63867-12.6445s-7.41834-4.4922-12.98047-4.4922zm5.71289 4.7793h4.94921c7.82523 0 11.73633 4.1835 11.73633 12.5489 0 8.5406-4.20618 12.8105-12.62109 12.8105h-4.06445zm40.13867 3.252c-3.76121 0-6.7176 1.2333-8.86914 3.7031s-3.22852 5.8636-3.22852 10.1816c0 4.2066 1.15589 7.5139 3.4668 9.92 2.32685 2.39 5.54637 3.5859 9.6582 3.5859 1.80092 0 3.4022-.1354 4.80469-.4062 1.40248-.271 2.78954-.7335 4.16016-1.3868v-4.5664c-1.54592.6852-2.99689 1.1797-4.35157 1.4824-1.33873.2868-2.78775.4297-4.34961.4297-2.37466 0-4.21658-.6844-5.52343-2.0547-1.30686-1.3862-2.0004-3.3623-2.08008-5.9277h17.61914v-3.0351c0-3.7127-1.01111-6.6289-3.03516-8.7481-2.02403-2.1192-4.78121-3.1777-8.27148-3.1777zm26.20117 0c-3.13965 0-5.6262.6279-7.45898 1.8867-1.81686 1.2428-2.72657 2.9971-2.72657 5.2598 0 1.8802.53377 3.4088 1.60157 4.5879 1.08374 1.1791 3.14933 2.3579 6.19335 3.5371 1.56186.6055 2.7797 1.147 3.65626 1.625.87655.478 1.50617.9405 1.88867 1.3867.38249.4462.57422 1.0046.57422 1.6738 0 2.0873-1.7291 3.1309-5.1875 3.1309-2.67748 0-5.56997-.7183-8.67774-2.1524v4.8535c2.1356 1.0676 4.96418 1.6016 8.48633 1.6016 3.50621 0 6.19948-.6863 8.08008-2.0566 1.8806-1.3863 2.82031-3.3699 2.82031-5.9512 0-1.2747-.23868-2.3652-.7168-3.2734-.47811-.9242-1.2111-1.7384-2.19922-2.4395-.98811-.7011-2.57439-1.4738-4.75781-2.3184-2.59778-1.0038-4.28743-1.7916-5.06836-2.3652-.76499-.5736-1.14648-1.2749-1.14648-2.1035 0-1.689 1.48292-2.5332 4.44726-2.5332 1.94436 0 4.34254.5884 7.19532 1.7676l1.8164-4.2305c-2.77308-1.2588-5.71252-1.8867-8.82031-1.8867zm37.9375 0c-3.34684 0-5.92924.7878-7.74609 2.3652-1.80092 1.5775-2.70118 3.7998-2.70118 6.668 0 1.7845.4229 3.3471 1.26758 4.6855.86062 1.3226 1.97705 2.2777 3.34766 2.8672-1.09967.6692-1.92852 1.3461-2.48633 2.0313s-.83789 1.5218-.83789 2.5097c0 .7808.24063 1.531.71875 2.2481.49406.7011 1.11423 1.2106 1.86328 1.5293-1.84873.4302-3.29024 1.1955-4.32617 2.2949-1.01999 1.1154-1.53125 2.486-1.53125 4.1113 0 2.3582.94916 4.1745 2.8457 5.4492 1.89654 1.2748 4.64621 1.9122 8.24805 1.9122 4.66963 0 8.2387-.8142 10.70898-2.4395 2.47029-1.6252 3.70508-3.9341 3.70508-6.9297 0-2.3423-.75548-4.136-2.26953-5.3789-1.51405-1.2428-3.72996-1.8633-6.64648-1.8633h-4.61329c-1.51404 0-2.55905-.1523-3.13281-.4551-.5578-.3027-.83593-.7558-.83593-1.3613-.00001-1.0038.60517-1.8819 1.8164-2.6308.68531.1275 1.45024.1914 2.29492.1914 3.29902 0 5.88893-.7803 7.76953-2.3418 1.88061-1.5616 2.82032-3.7051 2.82032-6.4297 0-.9083-.13531-1.7674-.40625-2.5801-.27093-.8126-.61297-1.499-1.02735-2.0566l4.51758-.836v-3.084h-9.15625c-.41437-.1115-1.03454-.2149-1.86328-.3105-.8128-.1115-1.5947-.166-2.34375-.166zm32.00977 0c-1.78499 0-3.41072.3422-4.87696 1.0273-1.46622.6852-2.59766 1.6572-3.39453 2.916h-.28711l-.78711-3.4668h-4.40039v26.4356h5.61914v-13.1699c0-3.2984.54877-5.6486 1.64844-7.0508s2.83822-2.1035 5.21289-2.1035c1.78498 0 3.08368.5019 3.89649 1.5058.82873 1.0038 1.24218 2.5249 1.24218 4.5645v16.2539h5.64258v-17.2324c0-6.4533-3.17257-9.6797-9.51562-9.6797zm-54.625.4765v26.4356h5.61914v-26.4356zm22.56836 3.1309c1.64153 0 2.85938.47 3.65624 1.4102.8128.9241 1.22071 2.2479 1.22071 3.9687 0 3.4736-1.62575 5.2109-4.87695 5.2109-1.59374 0-2.82103-.4475-3.68165-1.3398-.84468-.8923-1.26757-2.1671-1.26757-3.8242 0-1.7687.41539-3.1149 1.24414-4.0391.84468-.9242 2.07947-1.3867 3.70508-1.3867zm-64.0918.6465c1.78498 0 3.18704.5659 4.20703 1.6973 1.01993 1.1153 1.54619 2.7642 1.57812 4.9472h-12.00195c.20718-2.167.84431-3.8159 1.91211-4.9472 1.08374-1.1314 2.51971-1.6973 4.30469-1.6973zm61.98828 22.5625h4.25391c2.23122 0 3.7536.2387 4.5664.7168.82875.4939 1.24414 1.3136 1.24414 2.4609 0 1.45-.74993 2.6139-2.24804 3.4903-1.49811.8763-3.77793 1.3144-6.83789 1.3144-1.97623 0-3.51361-.3271-4.61329-.9805-1.08374-.6533-1.625-1.5839-1.625-2.7949 0-1.2906.46986-2.3191 1.41016-3.084.95625-.7489 2.23994-1.123 3.84961-1.123z" fill="#0089d0" transform="matrix(.24303298 0 0 .24256366 -159.58429 -343.46612)"/></svg>