<svg height="320.98965" viewBox="0 0 135.46666 84.928515" width="512" xmlns="http://www.w3.org/2000/svg"><g fill="#fff" transform="matrix(.37667172 0 0 .37667172 -90.824706 -69.647393)"><path d="m573.9441 280.2499c-49.7483-5.1318-99.8266 12.1487-136.7338 45.6353 31.0855-20.5875 80.9497-39.3514 136.7338-34.7013zm-146.6438 38.2219c23.5585-27.4626 72.6113-54.0277 115.4673-60.0146v-18.2812c-46.1999 8.1491-91.3379 38.0702-115.4673 78.2958zm-11.8571-1.449c19.3792-35.9457 48.3887-65.0522 80.7748-81.782v-37.568c-36.0024 22.2804-73.0319 78.5811-80.7748 119.35zm-14.0542 6.4453v-135.7563l72.4555.0783c-35.0821 22.4845-64.6259 79.5151-72.4555 135.678zm-63.6132-26.8375v-85.0767l48.9983-.3137v104.5497c-15.8231-8.4358-32.4639-14.7442-48.9983-19.1593zm-55.8599-7.7276v-37.6171l42.3177.0827v43.2444c-14.5647-3.3989-28.9122-5.2418-42.3177-5.71z"/><g fill-rule="evenodd"><path d="m590.6653 308.7445c-50.5625-13.4539-111.5815 4.4685-148.2545 28.8995 53.9063-6.8355 115.0587-9.9459 155.545-.2566zm-339.4082 0c50.7895-13.4539 112.0825 4.4685 148.92 28.8995-54.1482-6.8355-115.5752-9.9459-156.2431-.2566z"/><path d="m281.2648 406.272v-39.3488c.073-8.4317 5.6449-12.7959 11.3319-12.8044h31.2993c-.0693 3.3126-2.2216 5.483-5.122 5.6563h-24.6924v17.3239h19.4739v4.7212h-19.4739v24.4518h-4.9801zm249.6638-25.0004v21.6446h8.1615c5.4657 0 9.4669-.8045 11.9706-2.3969 2.5204-1.6018 3.7731-4.1263 3.7731-7.5886 0-4.1941-1.4665-7.2915-4.3901-9.3203-2.9281-2.031-7.3879-2.3388-13.3627-2.3388zm0-23.7977v19.2429h6.3463c5.4118 0 9.3261-.8007 11.7762-2.3833 2.4506-1.5834 3.6661-4.1142 3.6661-7.6029 0-3.355-1.3572-5.2638-4.0542-6.8606-2.6965-1.5977-6.8593-2.3961-12.464-2.3961zm11.6174 48.7981h-24.3981v-43.1235-9.0297h20.3791c4.3358 0 7.9168.1533 10.7537.4647 2.8368.3112 5.0374.8245 6.575 1.4522 2.7998 1.1427 4.9873 2.6807 6.5936 4.6996 1.6021 2.0148 2.397 4.2209 2.397 6.6441 0 2.9167-1.0249 5.3215-3.0501 7.2301-2.0286 1.9119-4.9887 3.2489-8.8663 4.0078 4.6361.9321 8.1991 2.5632 10.6652 4.9128 2.452 2.3365 3.6836 5.2597 3.6836 8.7738 0 4.7407-2.0265 8.2481-6.0632 10.5329-4.0543 2.2941-10.2779 3.4352-18.6695 3.4352zm-103.9003 0v-13.1584-29.0213c-.0553-6.2446 4.5929-9.9591 9.3879-9.9735h13.2308c8.5667 0 15.0562 1.293 19.4437 3.8605 4.3887 2.568 6.5755 6.3779 6.5755 11.3842 0 3.754-1.5529 6.6917-4.6717 8.8547-3.12 2.1636-7.5439 3.3549-13.2925 3.5947l18.282 24.4591h-14.3682l-18.5279-26.4441c7.263-.3588 12.3925-1.3883 15.3726-3.0611 2.9959-1.6814 4.4961-4.2745 4.4961-7.7892 0-3.8757-1.4822-6.752-4.4426-8.6552-2.9614-1.9045-7.4226-2.8485-13.4165-2.8485h-5.2527v40.1038c.0128 5.8238-5.0158 8.6871-8.2512 8.6943zm-85.2984-52.1365h5.7863c4.2426-.008 7.0455 3.9205 7.0298 9.3365v22.1216c0 6.1287 1.1314 10.4174 3.4017 12.8221 2.2711 2.4056 6.1177 3.6096 11.5125 3.6096 5.4121 0 9.2371-1.2009 11.4935-3.6096 2.2548-2.409 3.3842-6.6833 3.3842-12.8221v-31.4748h6.2703v3.2467c-.1024.7955-.1174 1.7772-.1174 3.0602v26.9256c0 6.7339-2.0274 11.8051-6.064 15.1657-4.0521 3.3728-10.1366 5.0463-18.2638 5.0463-3.6138 0-7.0883-.4904-10.401-1.4782-3.3316-.9937-6.0624-2.3544-8.1981-4.0598-2.0944-1.6732-3.5974-3.5715-4.4948-5.713-.8981-2.1409-1.3392-5.1394-1.3392-8.961z"/></g></g></svg>