<svg height="619.50604" viewBox="0 0 135.46667 163.91098" width="512" xmlns="http://www.w3.org/2000/svg"><g fill="#fff" transform="translate(-6.969326 -44.988127)"><path d="m84.121434 63.579382c0 .992675-.827543 1.819269-1.820218 1.819269h-14.886303c-.992675 0-1.820228-.826594-1.820228-1.819269v-14.888211c0-.991721.827553-1.81831 1.820228-1.81831h14.886303c.992675 0 1.820218.826589 1.820218 1.81831z"/><path d="m106.28727 63.579382c0 .992675-.82753 1.819269-1.82116 1.819269h-14.886321c-.993624 0-1.819264-.826594-1.819264-1.819269v-14.888211c0-.991721.82564-1.81831 1.819264-1.81831h14.886321c.99363 0 1.82116.826589 1.82116 1.81831z"/><path d="m106.28727 107.91119c0 .99172-.82753 1.81926-1.82116 1.81926h-14.886321c-.993624 0-1.819264-.82754-1.819264-1.81926v-14.887258c0-.993629.82564-1.820222 1.819264-1.820222h14.886321c.99363 0 1.82116.826593 1.82116 1.820222z"/><path d="m61.955954 85.746192c0 .990767-.828497 1.817361-1.819264 1.817361h-14.88917c-.991721 0-1.819269-.826594-1.819269-1.817361v-14.889165c0-.992675.827548-1.819269 1.819269-1.819269h14.88917c.990767 0 1.819264.826594 1.819264 1.819269z"/><path d="m84.121434 85.746192c0 .990767-.827543 1.817361-1.820218 1.817361h-14.886303c-.992675 0-1.820228-.826594-1.820228-1.817361v-14.889165c0-.992675.827553-1.819269 1.820228-1.819269h14.886303c.992675 0 1.820218.826594 1.820218 1.819269z"/><path d="m61.955954 107.91119c0 .99172-.828497 1.81926-1.819264 1.81926h-14.88917c-.991721 0-1.819269-.82754-1.819269-1.81926v-14.887258c0-.993629.827548-1.820222 1.819269-1.820222h14.88917c.990767 0 1.819264.826593 1.819264 1.820222z"/><path d="m84.121434 107.91119c0 .99172-.827543 1.81926-1.820218 1.81926h-14.886303c-.992675 0-1.820228-.82754-1.820228-1.81926v-14.887258c0-.993629.827553-1.820222 1.820228-1.820222h14.886303c.992675 0 1.820218.826593 1.820218 1.820222z"/><path d="m61.955954 130.07714c0 .99268-.828497 1.81927-1.819264 1.81927h-14.88917c-.991721 0-1.819269-.82659-1.819269-1.81927v-14.88725c0-.99268.827548-1.81927 1.819269-1.81927h14.88917c.990767 0 1.819264.82659 1.819264 1.81927z"/><path d="m84.121434 130.07714c0 .99268-.827543 1.81927-1.820218 1.81927h-14.886303c-.992675 0-1.820228-.82659-1.820228-1.81927v-14.88725c0-.99268.827553-1.81927 1.820228-1.81927h14.886303c.992675 0 1.820218.82659 1.820218 1.81927z"/><path d="m62.947675 56.13547c0 5.624836-4.46704 10.089963-10.089968 10.089963-5.623883 0-10.091872-4.465127-10.091872-10.089963 0-5.623883 4.467989-10.08901 10.091872-10.08901 5.45876 0 10.089968 4.465127 10.089968 10.08901"/><path d="m13.656029 199.70678c-.859046-.30641-1.506194-.58989-1.921399-.84188-.403749-.2453-.692963-.51638-.86-.80654-.167035-.28823-.251983-.66719-.251983-1.1263 0-.62137.222399-1.09194.678645-1.44033.461021-.3503 1.113895-.5288 1.942398-.5288 1.065216 0 2.180066.24054 3.314961.71493l.115498.0487.58606-1.63313-.102136-.0447c-1.174986-.51255-2.478826-.77218-3.876206-.77218-1.351567 0-2.455917.32832-3.281554.97836-.8351837.65669-1.2580245 1.55011-1.2580245 2.65731 0 1.04804.2911188 1.91185.8647716 2.56664.5669699.64715 1.5205119 1.21316 2.8329419 1.68278.918224.32548 1.610232.62138 2.056936.87718.436206.25007.750233.52306.931587.81323.181356.28824.273942.66528.273942 1.12344 0 .69773-.253897 1.22557-.774096 1.615-.523063.39232-1.321021.59084-2.37192.59084-.650965 0-1.317203-.0697-1.981532-.20715-.6662362-.13838-1.2876125-.32832-1.8488564-.56505l-.165127-.0706v1.81926l.067761.0315c.9039073.4324 2.2058384.65097 3.8704774.65097 1.546282 0 2.791898-.35507 3.700577-1.05472.917269-.70633 1.383063-1.70281 1.383063-2.96275 0-.98026-.288257-1.78873-.857136-2.40723-.562201-.60904-1.594964-1.18269-3.069659-1.70862"/><path d="m25.984382 202.51709v.81896c0 .93445-.272048 1.66845-.808457 2.18388-.537383.51543-1.29239.77601-2.242109.77601-.590833 0-1.054716-.14031-1.378292-.41901-.321678-.27778-.478178-.67483-.478178-1.21603 0-.69201.254845-1.18739.778867-1.51382.536429-.33315 1.434605-.52498 2.667816-.56888zm-1.971034-5.72411c-.622332 0-1.254204.0821-1.87749.24247-.621378.16035-1.200758.38465-1.721908.66719l-.09352.0515.5746 1.42793.115498-.0563c1.077628-.52307 2.055983-.78842 2.906437-.78842.737825 0 1.27807.1833 1.606416.54693.331218.36654.499187.94972.499187 1.73622v.53166l-1.659866.0534c-3.440954.10408-5.184815 1.26088-5.184815 3.43713 0 1.01463.309245 1.81069.921088 2.36619.609919.5517 1.457512.83137 2.519866.83137.789367 0 1.45942-.12123 1.992028-.35887.500151-.22242 1.006995-.64143 1.508106-1.24467l.29874 1.41266h1.3907v-7.24843c0-1.24848-.316907-2.17339-.941132-2.74704-.621378-.57079-1.581601-.86096-2.853941-.86096"/><path d="m35.89939 196.77428c-.734009 0-1.409791.14604-2.009216.43621-.542148.26058-.981217.62423-1.308609 1.08239l-.239571-1.32866h-1.5081v10.68557h1.824039v-5.60002c0-1.32388.247234-2.2822.734962-2.84821.482035-.56029 1.260887-.84473 2.315604-.84473.788413 0 1.373517.19852 1.736228.58989.364609.39515.549786 1.00984.549786 1.82498v6.87809h1.824044v-6.9344c0-1.36207-.33406-2.37096-.991721-2.99903-.656697-.62519-1.641735-.94208-2.927436-.94208"/><path d="m47.126826 206.23533c-.251039.0401-.517338.0601-.792229.0601-.49061 0-.863821-.15179-1.142532-.46484-.277783-.3131-.418095-.77313-.418095-1.36875v-6.02953h3.035297v-1.46802h-3.035272v-2.4206h-1.12535l-.67769 2.26312-1.519554.66527v.96023h1.498555v6.0954c0 2.1982 1.0614 3.31306 3.155559 3.31306.270121 0 .57079-.0279.921088-.0831.341723-.0553.608017-.12793.791275-.21476l.06775-.0325v-1.44606l-.152694.0447c-.147011.0431-.350299.0859-.606104.12595"/><path d="m55.762429 202.51709v.81896c0 .93445-.272048 1.66749-.807503 2.18388-.538338.51543-1.29239.77601-2.242109.77601-.591788 0-1.055671-.14031-1.379247-.41901-.321677-.27778-.478228-.67483-.478228-1.21603 0-.69201.254845-1.18739.778867-1.51382.537383-.33315 1.435559-.52498 2.667816-.56888zm-1.97008-5.72411c-.623286 0-1.255158.0821-1.878444.24247-.621378.16035-1.200758.38465-1.721908.66719l-.09352.0515.574601 1.42793.115497-.0563c1.077629-.52307 2.055983-.78842 2.906438-.78842.737824 0 1.27807.1833 1.606415.54693.332183.36654.500151.94972.500151 1.73622v.53166l-1.66082.0534c-3.440954.10408-5.184814 1.26088-5.184814 3.43713 0 1.01463.309245 1.81069.921088 2.36619.609919.5517 1.457512.83137 2.52082.83137.789367 0 1.458466-.12123 1.991074-.35887.499187-.22242 1.006036-.64143 1.507146-1.24467l.299705 1.41266h1.389756v-7.24843c0-1.24945-.315943-2.17339-.941132-2.74704-.620424-.5708-1.579693-.86097-2.852033-.86097"/><path d="m72.027122 194.96322c1.033718 0 2.083659.24627 3.118332.73304l.105957.0487.793183-1.60356-.107835-.0525c-1.106265-.53928-2.414878-.81322-3.890516-.81322-1.389751 0-2.615324.30066-3.645216.89341-1.030862.59369-1.830733 1.44987-2.376697 2.54754-.543113 1.09194-.818962 2.38051-.818962 3.82752 0 2.31275.573661 4.12534 1.70569 5.38717 1.13489 1.26662 2.76613 1.909 4.848836 1.909 1.42506 0 2.643945-.18518 3.622309-.55074l.07734-.0284v-1.66082l-.151781.0421c-1.232256.34553-2.343286.5202-3.300652.5202-1.540557 0-2.742254-.48772-3.570766-1.45083-.833273-.96691-1.255163-2.36333-1.255163-4.14919 0-1.73336.438139-3.11547 1.302894-4.11006.859995-.98886 2.052162-1.48901 3.54308-1.48901"/><path d="m84.051471 202.51709v.81896c0 .93445-.272048 1.66845-.808468 2.18388-.538322.51543-1.292379.77601-2.242103.77601-.591788 0-1.055671-.14031-1.378283-.41901-.322642-.27778-.479193-.67483-.479193-1.21603 0-.69201.254846-1.18739.778873-1.51382.537383-.33315 1.43461-.52498 2.667821-.56888zm-1.97104-5.72411c-.622316 0-1.254198.0821-1.877484.24247-.621378.16035-1.200758.38465-1.721908.66719l-.09358.0515.573646 1.42793.115447-.0563c1.078577-.52307 2.056942-.78842 2.907391-.78842.736871 0 1.278065.1833 1.606411.54693.331218.36654.499237.95068.499237 1.73622v.53166l-1.659876.0534c-3.440949.10408-5.185763 1.26088-5.185763 3.43713 0 1.01463.310209 1.81069.922041 2.36619.609925.5517 1.457512.83137 2.519856.83137.788418 0 1.458471-.12123 1.992039-.35887.499187-.22242 1.006036-.64143 1.507151-1.24467l.298741 1.41266h1.3907v-7.24843c0-1.24848-.316908-2.17244-.940173-2.74704-.622332-.57079-1.581606-.86096-2.853952-.86096"/><path d="m93.192853 206.23533c-.252004.0401-.518293.0601-.792234.0601-.491575 0-.864775-.15179-1.142528-.46484-.277732-.3131-.419008-.77313-.419008-1.36875v-6.02954h3.036256v-1.46802h-3.036256v-2.4206h-1.124391l-.677685 2.26312-1.519559.66527v.96023h1.49856v6.0954c0 2.1982 1.06139 3.31306 3.155549 3.31306.269156 0 .570789-.0279.921098-.0831.342636-.0553.608006-.12793.791265-.21572l.0678-.0315v-1.44606l-.152745.0447c-.147924.0431-.351263.0859-.606098.12595"/><path d="m101.82797 202.51709v.81896c0 .93445-.27205 1.66845-.80941 2.18388-.53642.51543-1.291434.77601-2.241158.77601-.591788 0-1.055671-.14031-1.379236-.41901-.321678-.27778-.478229-.67483-.478229-1.21603 0-.69201.254846-1.18739.778873-1.51382.537383-.33315 1.435564-.52498 2.66782-.56888zm-1.971036-5.72411c-.622317 0-1.254194.0821-1.87748.24247-.621377.16035-1.199809.38465-1.721908.66719l-.09358.0515.573646 1.42793.115447-.0563c1.078583-.52307 2.056942-.78842 2.907392-.78842.736869 0 1.278069.1833 1.606409.54693.33122.36654.49919.95068.49919 1.73622v.53166l-1.65988.0534c-3.440937.10408-5.185751 1.26088-5.185751 3.43713 0 1.01463.310209 1.81069.922036 2.36619.609925.5517 1.457512.83137 2.519861.83137.788418 0 1.459436-.12123 1.992034-.35887.50015-.22242 1.00604-.64143 1.50716-1.24467l.29873 1.41266h1.39071v-7.24843c0-1.24848-.3169-2.17244-.94018-2.74704-.62233-.57079-1.58159-.86096-2.853948-.86096"/><path d="m111.57061 196.77428c-.67674 0-1.30576.19283-1.87081.57365-.50305.33786-.94591.81037-1.31816 1.40597l-.16797-1.78968h-1.53578v10.68557h1.82308v-5.72409c0-.98887.29397-1.825.87241-2.48552.57556-.65574 1.27522-.9879 2.08271-.9879.32071 0 .69773.0467 1.12058.13935l.12407.0274.25581-1.70569-.11078-.0228c-.37795-.0773-.80655-.11641-1.2752-.11641"/><path d="m114.66002 207.64951h1.82307v-10.68462h-1.82307z"/><path d="m115.58053 193.08592c-.29783 0-.55075.0964-.75024.2854-.20232.18994-.30447.48777-.30447.88196 0 .38749.10123.68341.30259.88099.19949.19664.45337.2959.75214.2959.28636 0 .53548-.0983.74069-.29493.20902-.19664.31402-.49351.31402-.88195 0-.38942-.10596-.68343-.31498-.87815-.20522-.19187-.4553-.2892-.73974-.2892"/><path d="m124.66971 196.77428c-.73305 0-1.40883.14604-2.00826.43621-.54312.26058-.98217.62424-1.30957 1.0824l-.23957-1.32866h-1.50713v10.68557h1.82308v-5.60002c0-1.32388.24723-2.2822.73496-2.84821.48295-.56029 1.26184-.84473 2.3156-.84473.78937 0 1.37352.19852 1.73623.58989.36557.39515.55074 1.00984.55074 1.82498v6.87809h1.82309v-6.9344c0-1.36207-.3331-2.37001-.99173-2.99903-.65573-.62519-1.64077-.94208-2.92743-.94208"/><path d="m137.63089 202.51709v.81896c0 .93445-.27205 1.66845-.80942 2.18388-.53641.51543-1.29143.77601-2.24115.77601-.59179 0-1.05568-.14031-1.37924-.41901-.32168-.27778-.47823-.67483-.47823-1.21603 0-.69201.25485-1.18739.77887-1.51382.53738-.33315 1.43556-.52498 2.66782-.56888zm.88291-4.86315c-.62233-.57078-1.5816-.86096-2.85395-.86096-.62232 0-1.2542.0821-1.87748.24247-.62138.16035-1.19981.38465-1.72191.66719l-.0936.0515.57365 1.42793.11545-.0563c1.07857-.52307 2.05694-.78842 2.90738-.78842.73688 0 1.27807.1833 1.60642.54693.33122.36654.49919.95068.49919 1.73622v.53166l-1.65989.0534c-3.44094.10408-5.18575 1.26088-5.18575 3.43713 0 1.01463.31021 1.81069.92204 2.36619.60992.5517 1.45751.83137 2.51985.83137.78842 0 1.45944-.12123 1.99204-.35887.50015-.22242 1.00604-.64143 1.50715-1.24467l.29874 1.41266h1.39071v-7.24843c0-1.24848-.31691-2.17244-.94018-2.74704"/><path d="m8.0276597 144.80653h3.9000653v18.36352h-3.9000653z"/><path d="m32.964605 163.17033h-4.957651l-8.002482-13.89267h-.112656c.159393 2.45496.238607 4.20455.238607 5.25068v8.64199h-3.484823v-18.36352h4.919464l7.99008 13.75427h.08779c-.126001-2.38719-.188977-4.07474-.188977-5.06265v-8.69162h3.510633z"/><path d="m48.453191 158.07067c0 1.65795-.597512 2.96371-1.793495 3.9182-1.19503.95449-2.857758 1.4327-4.98819 1.4327-1.963397 0-3.699626-.36841-5.209634-1.10531v-3.61754c1.241796.55266 2.291743.94209 3.151743 1.1683.86.22623 1.646505.33883 2.359509.33883.85523 0 1.511922-.1632 1.969127-.48964.45722-.32645.686281-.81228.686281-1.45752 0-.35983-.101187-.68056-.302597-.96117-.20141-.28063-.497309-.54979-.886728-.80942-.390388-.25962-1.185479-.67386-2.384324-1.2437-1.124396-.52782-1.967213-1.03371-2.529416-1.5205-.562193-.48487-1.010807-1.04995-1.34679-1.69519-.335024-.64428-.502079-1.39833-.502079-2.26024 0-1.62455.550744-2.90167 1.654137-3.83135 1.102443-.92968 2.626772-1.39452 4.573941-1.39452.955447 0 1.867949.11266 2.736535.3398.867637.22526 1.775364.54406 2.724134.95449l-1.258979 3.02671c-.981222-.40185-1.792547-.68246-2.433964-.8409-.642376-.15939-1.273294-.23861-1.893718-.23861-.738778 0-1.304798.17086-1.699001.51448-.394194.3436-.590834.79127-.590834 1.34392 0 .34269.07921.64333.238607.89723.159392.25677.413274.50304.76169.74259.347457.23861 1.172117.6672 2.472139 1.28666 1.719046.82087 2.897847 1.64365 3.535448 2.46833.637606.82564.956407 1.8355.956407 3.03339"/><path d="m58.869699 163.17033h-3.900072v-15.12302h-4.994868v-3.2405h13.890766v3.2405h-4.995826z"/><path d="m66.696651 144.80653h3.900062v18.36352h-3.900062z"/><path d="m82.323829 163.17033h-3.901021v-15.12302h-4.994873v-3.2405h13.890767v3.2405h-4.994873z"/><path d="m105.18742 144.80653v11.88251c0 1.35633-.30356 2.54563-.91154 3.5679-.60802 1.0213-1.48806 1.80399-2.63632 2.34806-1.15017.545-2.509362.81704-4.076653.81704-2.366192 0-4.202644-.60515-5.511242-1.81545-1.308614-1.21029-1.962443-2.86539-1.962443-4.96815v-11.83191h3.888608v11.24108c0 1.41647.285395 2.45496.85523 3.11548.568881.66147 1.513824.99267 2.83008.99267 1.275193 0 2.200107-.33315 2.77375-.99841.57462-.66624.86382-1.71044.86382-3.13455v-11.21627z"/><path d="m116.86319 163.17033h-3.90007v-15.12302h-4.99582v-3.2405h13.89171v3.2405h-4.99582z"/><path d="m127.95174 153.96366c0 2.0512.39135 3.59653 1.17116 4.63408.77887 1.03848 1.94621 1.55773 3.49727 1.55773 3.11261 0 4.66748-2.06362 4.66748-6.19181 0-4.13679-1.54724-6.20517-4.64172-6.20517-1.55296 0-2.72221.52115-3.51062 1.56346-.78842 1.0423-1.18357 2.5905-1.18357 4.64171m13.42592 0c0 3.04007-.75501 5.37572-2.26503 7.00885-1.50999 1.63314-3.67383 2.44923-6.49246 2.44923-2.81767 0-4.98152-.81609-6.49153-2.44923-1.51001-1.63313-2.26501-3.97738-2.26501-7.03366 0-3.05726.75692-5.391 2.27074-7.00313 1.51383-1.61215 3.68341-2.41774 6.51156-2.41774 2.82627 0 4.98916.81132 6.4858 2.43586 1.49665 1.62456 2.24593 3.96212 2.24593 7.00982"/><path d="m24.673764 185.24208h-3.838024v-18.36352h10.544306v3.19087h-6.706282v4.7343h6.241445v3.17847h-6.241445z"/><path d="m45.681052 185.24208h-10.594895v-18.36352h10.594895v3.19087h-6.693874v4.03083h6.228083v3.19088h-6.228083v4.73525h6.693874z"/><path d="m60.729239 175.9851c0-3.94492-1.744814-5.91596-5.234449-5.91596h-2.076027v11.95696h1.673227c3.757847 0 5.637249-2.01303 5.637249-6.041m4.050874-.10017c0 3.02288-.860949 5.33753-2.585719 6.94585-1.723816 1.60736-4.213143 2.41105-7.467018 2.41105h-5.209634v-18.36352h5.775648c3.002845 0 5.335637.79128 6.995503 2.37383 1.660815 1.58254 2.49122 3.79316 2.49122 6.63279"/><path d="m79.186213 185.24208h-10.593941v-18.36352h10.593941v3.19087h-6.693879v4.03083h6.229042v3.19088h-6.229042v4.73525h6.693879z"/><path d="m86.925249 175.02975h1.258025c1.232256 0 2.142844-.20522 2.729852-.61564.587018-.40947.881958-1.05473.881958-1.93381 0-.87051-.300669-1.48997-.901038-1.85841-.60038-.36938-1.528151-.55265-2.78713-.55265h-1.181667zm0 3.16511v7.04703h-3.900062v-18.36353h5.359487c2.499826 0 4.349634.45432 5.548474 1.36302 1.200759.90868 1.79923 2.28793 1.79923 4.13869 0 1.07953-.298792 2.04071-.893411 2.88258-.594645.84187-1.439376 1.50046-2.529407 1.97771 2.768034 4.12914 4.572987 6.796 5.411984 8.00153h-4.32959l-4.391637-7.04703z"/><path d="m109.03517 177.60517c-1.23225-3.9602-1.92809-6.2004-2.0827-6.71965-.15463-.51924-.26632-.93062-.33315-1.2313-.27585 1.07191-1.06808 3.72158-2.37669 7.95095zm2.26501 7.63691-1.33247-4.37064h-6.70819l-1.33248 4.37064h-4.202639l6.491529-18.43894h4.76865l6.51729 18.43894z"/><path d="m117.93698 185.24208v-18.36352h3.90007v15.14783h7.46033v3.21569z"/></g></svg>