<svg height="256" viewBox="0 0 67.733333 67.733335" width="256" xmlns="http://www.w3.org/2000/svg"><circle cx="33.866636" cy="33.866667" fill="#f2f2f2" r="20.391749" stroke-width=".243874"/><g transform="matrix(.24335145 0 0 .24335145 -242.31753 -104.4727)"><path d="m1218.3382 488.60313-6.6835 20.78163-15.0356 5.34274-9.1119-13.07566 6.6801-20.77059-13.1894 7.77172-6.1902 18.29118 17.7641 21.81733 27.3928-9.07368 5.4107-16.82351z" fill="none" stroke="#0089d0" stroke-linecap="square" stroke-width="6.98991"/><path d="m1184.4936 521.59947-9.3115 28.94522c2.109.48587 3.9598 1.43266 5.3487 2.97025.014.0149.025.0318.039.0467l9.6853-30.11471zm12.2175 3.91246-9.697 30.1515c.2026-.26865.3989-.54197.621-.7964 1.9202-2.20011 4.4829-3.63108 7.3729-4.29131l7.4663-23.21637zm-25.126 36.22031-2.3862 7.41693-2.3454-.75173v6.34263l.4963.15934 4.4806 1.43564v-12.61743c0-.92162-.1164-1.55361-.2453-1.98538zm12.1202 4.21742-.2238.69942v13.41771l1.851.5925 1.8237.58474-15.0046 46.65415-21.6284-6.92738 12.2292-38.02506h-6.3569l-13.4845 41.93166 33.1528 10.61654 17.1068-53.197c-1.9698-.74318-3.727-1.85229-5.1813-3.34324l-.01-.01-.01-.01c-2.9132-3.02734-4.2976-7.22198-4.2976-11.95889 0-.34812.02-.68599.033-1.02765z" fill="#0089d0"/><path d="m1077.8101 478.71396-2.9333.74597-51.1821 13.03895 14.7906 57.83594c2.2764.37428 4.3149 1.28197 5.9228 2.64203.2726-.22439.5495-.44221.8331-.65278l-14.1834-55.46594 42.3826-10.79716 16.9687 66.35252c.9842.68381 1.8792 1.4999 2.6276 2.47294 2.3798 3.073 3.3926 7.1262 3.3926 11.85008 0 2.25512-.2439 4.35597-.7513 6.27858l1.2067 4.71861v-24.42863zm-29.5753 85.31249c-.08.57171-.1403 1.20449-.1403 1.96986v13.93064 3.01879h-1.269l21.7918 85.21352 54.1135-13.78492-18.265-71.42085h-6.2458l17.1496 67.0616-42.3846 10.79707-19.9116-77.86443v-.01z" fill="#0089d0"/><path d="m1086.4827 620.29747 23.2003-5.91012" fill="none" stroke="#0089d0" stroke-width="6.99124"/><path d="m1091.3077 639.16498 23.2003-5.91012" fill="none" stroke="#0089d0" stroke-width="6.99124"/><path d="m1094.4595 554.85729-1.2262.31271c1.1889 1.61895 2.0139 3.4974 2.5264 5.59288l.1966-.0507zm-12.9415 5.89395c-1.6199.0003-2.1248.33122-2.4992.79839-.32.41416-.7582 1.6482-.8467 3.69295l6.172-1.57161c-.1955-.89079-.4619-1.54167-.7357-1.93485l-.012-.0159-.01-.0139c-.519-.76486-.8146-.95553-2.067-.95573zm15.3667 13.5867-1.7634.44878c-.5336 1.40859-1.2391 2.69921-2.1352 3.85228v.01c-2.3848 3.08523-6.0852 4.78276-10.1095 4.78276-1.6707 0-3.2526-.3516-4.7395-.90143v2.82066l18.7476-4.77689z" fill="#0089d0"/><g fill="none" stroke="#0089d0" stroke-width="6.99124"><path d="m1073.6967 603.45799 31.3887-7.99606"/><path d="m1057.5329 507.09252 23.2003-5.91013"/><path d="m1062.3578 525.96 23.2004-5.91009"/></g><path d="m1089.6346 535.99116-31.3889 7.99568 1.4978 5.8539 31.3889-7.99568z" fill="#0089d0"/></g><g fill="#0089d0"><path d="m3.1167593 36.705162v-8.645789h1.4133676v8.645789z"/><path d="m12.020161 36.705162h-1.395627v-4.033124q0-.751037-.283856-1.117685-.283856-.372561-.8870508-.372561-.8042594 0-1.1827345.526317-.3725613.520403-.3725613 1.73862v3.258433h-1.3897129v-6.540521h1.0881156l.1951512.857482h.070964q.2720289-.46718.7865184-.721468.5204031-.254288 1.1413387-.254288 1.5079866 0 1.9988216 1.028979h.09462q.28977-.484921.816087-.75695.526317-.272029 1.206389-.272029 1.170907 0 1.703138.591367.538144.591368.538144 1.80367v4.263758h-1.389713v-4.033124q0-.751037-.28977-1.117685-.283856-.372561-.887051-.372561-.810173 0-1.188648.508576-.372561.502662-.372561 1.549382z"/><path d="m21.248815 36.823435q-1.241872 0-1.927857-.892964h-.08279q.08279.827914.08279 1.005324v2.678893h-1.389713v-9.450047h1.123597q.04731.183323.195151.875223h.07097q.650503-.993497 1.951511-.993497 1.22413 0 1.904203.887051.685986.887051.685986 2.489656 0 1.602605-.697814 2.501483-.691899.898878-1.916029.898878zm-.33708-5.641643q-.827914 0-1.212302.484921-.378475.484921-.378475 1.549382v.206979q0 1.194562.378475 1.732706.378475.53223 1.235957.53223.721468 0 1.11177-.591367.390303-.591367.390303-1.685396 0-1.099943-.390303-1.661742-.384388-.567713-1.135425-.567713z"/><path d="m26.710458 36.705162h-1.389713v-9.201674h1.389713z"/><path d="m31.397412 36.823435q-1.525727 0-2.389123-.887051-.857483-.892964-.857483-2.454173 0-1.602606.798346-2.519225.798346-.916619 2.193973-.916619 1.295094 0 2.04613.786519.751036.786518.751036 2.164403v.751037h-4.358376q.02957.952101.51449 1.46659.484921.508576 1.366058.508576.57954 0 1.076288-.106446.502662-.11236 1.076288-.366647v1.129511q-.508575.24246-1.028978.342993-.520404.100532-1.188649.100532zm-.254287-5.724434q-.662332 0-1.064461.41987-.396216.419871-.473094 1.224131h2.968663q-.01183-.810173-.390302-1.224131-.378475-.41987-1.040806-.41987z"/><path d="m40.874442 36.705162h-1.395627v-4.033124q0-.751037-.283856-1.117685-.283856-.372561-.887051-.372561-.804259 0-1.182734.526317-.372562.520403-.372562 1.73862v3.258433h-1.389712v-6.540521h1.088115l.195151.857482h.07096q.272029-.46718.786519-.721468.520403-.254288 1.141339-.254288 1.507986 0 1.998821 1.028979h.09462q.28977-.484921.816087-.75695.526317-.272029 1.206389-.272029 1.170907 0 1.703138.591367.538144.591368.538144 1.80367v4.263758h-1.389713v-4.033124q0-.751037-.28977-1.117685-.283856-.372561-.887051-.372561-.810173 0-1.188648.508576-.372561.502662-.372561 1.549382z"/><path d="m49.641826 36.823435q-1.525728 0-2.389124-.887051-.857482-.892964-.857482-2.454173 0-1.602606.798346-2.519225.798345-.916619 2.193972-.916619 1.295094 0 2.04613.786519.751037.786518.751037 2.164403v.751037h-4.358377q.02957.952101.51449 1.46659.484921.508576 1.366058.508576.57954 0 1.076289-.106446.502662-.11236 1.076288-.366647v1.129511q-.508576.24246-1.028979.342993-.520403.100532-1.188648.100532zm-.254288-5.724434q-.662331 0-1.064461.41987-.396216.419871-.473094 1.224131h2.968664q-.01183-.810173-.390303-1.224131-.378475-.41987-1.040806-.41987z"/><path d="m59.361318 36.705162h-1.395627v-4.021297q0-.75695-.307511-1.129512-.301597-.372561-.963928-.372561-.881138 0-1.289181.520403-.408043.520403-.408043 1.744534v3.258433h-1.389713v-6.540521h1.088115l.195152.857482h.07096q.295683-.46718.839741-.721468.544058-.254288 1.206389-.254288 2.353642 0 2.353642 2.395037z"/><path d="m63.575177 35.699838q.508576 0 1.017152-.15967v1.04672q-.230634.100533-.597281.165583-.360734.07096-.751037.07096-1.975166 0-1.975166-2.081612v-3.524549h-.892965v-.615022l.958015-.508576.473094-1.383799h.857482v1.454764h1.862807v1.052633h-1.862807v3.500894q0 .502662.248375.745123.254288.236547.662331.236547z"/></g></svg>