<svg height="136.85089" viewBox="0 0 270.93332 36.208466" width="1024" xmlns="http://www.w3.org/2000/svg"><g fill="#fff" transform="matrix(.82855999 0 0 .82855999 -678.360842 2322.562704)"><path d="m846.16919-2801.8543c-2.5167.688-4.65394 1.6886-6.5423 2.865v37.4341c.0105 0 .0211 0 .0316.01 1.79575.1579 4.29784-.037 6.51068.075zm-9.81321 5.1479c-1.90849.7359-4.67869.7161-6.5423 1.2437v34.6459c2.18503-.057 4.36455-.4881 6.5423-.6888zm-9.81369 8.4467c-1.90296 1.2129-4.00602 2.1057-6.54231 2.4355v24.6031c2.12453.527 4.33394.5468 6.54231.4918z"/><g transform="matrix(1.00000001 0 0 1 745.707894 -2873.425906)"><path d="m128.87695 85.158203v19.029297h4.71289c5.27969 0 7.33985-1.6996 7.33985-5.458984 0-2.317431-.97847-3.786277-3.19336-4.6875 1.46801-.823976 2.11133-2.05976 2.11133-3.939454 0-3.270152-1.8798-4.943359-6.51563-4.943359zm1.90625 1.724609h2.29102c3.83743 0 4.8418.928663 4.8418 3.246094 0 2.394679-1.23652 3.216797-4.81641 3.216797h-2.31641zm0 8.189454h2.26563c3.37385 0 5.94922.206371 5.94922 3.759765 0 2.755169-1.72629 3.628909-5.61524 3.628909h-2.59961z"/><path d="m346.8125 84.861328c-5.45822 0-9.50195 4.068895-9.50195 9.550781 0 5.357862 4.14197 9.425781 9.625 9.425781 3.72151 0 6.55077-1.73649 8.38672-5.134765h-2.03516c-1.93519 2.430885-3.69551 3.447265-6.375 3.447265-4.24252 0-7.74219-3.521249-7.74219-7.812499 0-4.415275 3.35023-7.789063 7.7168-7.789063 2.58025 0 4.73775.942751 6.30078 3.398438h2.06055c-1.41418-3.150225-4.63961-5.085938-8.43555-5.085938zm42.24219 0c-5.25974 0-9.70117 4.291946-9.70117 9.376953 0 5.333057 4.31738 9.599609 9.70117 9.599609 5.30935 0 9.67578-4.292335 9.67578-9.476562 0-5.233837-4.36643-9.5-9.67578-9.5zm-31.51172.322266v18.332026h4.9375c7.17011 0 10.54492-3.820064 10.54492-9.103511 0-3.447883-1.43886-6.176743-4.16797-7.789062-1.7367-1.041807-3.67154-1.439453-6.99609-1.439453zm17.72851 0v18.332026h1.83594v-18.332026zm13.78321 1.365234c4.26733 0 7.81445 3.54664 7.81445 7.837891 0 4.24164-3.54712 7.763671-7.81445 7.763671-4.31696 0-7.83985-3.52242-7.83985-7.863281 0-4.19203 3.59732-7.738281 7.83985-7.738281zm-29.67578.296875h2.55664c2.77873 0 4.51493.348039 5.90429 1.191406 2.10886 1.265051 3.32422 3.572241 3.32422 6.300782 0 2.406076-.94182 4.514636-2.6289 5.878909-1.4638 1.16583-3.34949 1.63672-6.59961 1.63672h-2.55664z"/><path d="m180.00391 90.146484c-.009 0-.0168.0019-.0254.002-.24719.000863-.48983.01176-.72852.03516-.2304.02258-.45805.05494-.67969.09766-3.38239.631067-5.77929 3.476105-5.77929 7.115234 0 4.052642 3.16754 7.158202 7.30468 7.158202 2.80034 0 4.98905-1.34535 6.36524-3.89258l.24804-.45899h-.52148-1.47852-.14648l-.0977.11719c-1.02583 1.28859-1.92447 1.98213-3.08984 2.25196-.12243.0272-.25104.0439-.37891.0625-.0774.0116-.15047.0288-.23047.0371-.21998.0227-.4489.0352-.6875.0352-.18338 0-.36382-.01-.54296-.0273-2.66012-.2781-4.77149-2.57479-4.77149-5.337889 0-3.050491 2.2828-5.349609 5.29492-5.349609 1.79878 0 3.2331.619102 4.31836 2.324218l.0879.144532h2.14844l-.19726-.4375c-.94994-2.116174-2.97491-3.507157-5.39649-3.8125-.25049-.03259-.5103-.04084-.76953-.04883-.083-.0025-.16242-.01563-.24609-.01563zm116.46679 0c-.24783 0-.49188.01216-.73242.03516-.001.000118-.003-.000119-.004 0-.23906.02218-.47373.05841-.70508.101562-3.41484.636914-5.93555 3.502249-5.93555 7.042969 0 4.061185 3.33107 7.228515 7.55859 7.228515 4.0717 0 7.03818-3.15509 7.2461-6.669921l.0215-.330078h-.33008c.00004-.000649-.00003-.0013 0-.002h-9.04882v.002h-.31055v1.828124h7.18945c-.55814 1.535955-2.05606 2.915645-3.95312 3.248045-.28525.0444-.5747.0762-.8711.0762-.20258 0-.40276-.0106-.59961-.0293-.001-.00012-.003.00013-.004 0-.17824-.0171-.35257-.0444-.52539-.0762-2.54386-.48959-4.40039-2.61241-4.40039-5.240229 0-3.043467 2.38732-5.367187 5.51171-5.367187 1.96023 0 3.57349.881369 4.43555 2.402343l.0879.158204h2.13282l-.16602-.425782c-.82576-2.122864-2.97535-3.589093-5.5293-3.912109-.34845-.04585-.70562-.07031-1.06836-.07031zm-151.3457.234375v13.941411h.3125 7.58984v-1.83204h-.30859-5.63477v-4.296871h5.74805v-1.828125h-.3125v-.002h-5.43555v-4.15039h5.94336v-1.832032h-.30859-7.28125zm12.19336 0v13.941411h.3125 1.64258v-11.011723l7.45312 11.011723h1.81055v-13.941411h-.30859-1.33399-.3125v10.343751l-6.98633-10.343751h-.16406-1.80273zm33.23633 0v13.941411h.30859 1.64649v-6.255864h6.28125v6.255864h1.95507v-13.941411h-.31054-1.33399-.31054v5.857422h-6.28125v-5.857422h-.3125-1.33399zm14.84179 0v13.941411h.31055 1.64258v-10.63477l4.47656 10.63477h1.56641l4.49414-10.63477v10.63477h1.95312v-13.941411h-.30859-2.07422-.20508l-4.625 10.855471-4.64257-10.855471h-.20508-2.07422zm23.74219 0-5.97851 13.941411h.4707 1.60937l1.94727-4.486332h5.78906l1.93164 4.486332h2.13672l-6-13.941411h-.20508-1.49609zm11.22071 0v13.941411h.3125 1.64257v-12.109379h1.56446c1.52298 0 2.58468.206898 3.22656.628906.64188.421818.93164 1.039691.93164 2.083984 0 1.143768-.25887 1.749944-.94336 2.154297-.51336.303122-1.31996.479855-2.4707.548828-.38358.02299-.80376.0332-1.26563.0332h-.62109l4.95117 6.660164h2.4375l-3.875-5.169929c1.07282-.195532 2.04895-.502693 2.66992-1.144532.72465-.749286 1.09375-1.784995 1.09375-3.02539 0-1.445419-.42461-2.638257-1.41797-3.429688-.75026-.597895-1.79518-.959645-3.17773-1.101562-.0006-.000062-.001.000062-.002 0-.4426-.04682-.92457-.07031-1.44727-.07031h-3.29687zm13.4746 0v13.941411h.31055 1.64258v-3.8418l1.41406-1.734376 4.28711 5.576176h2.46094l-5.49805-7.138676 5.51758-6.802735h-.65039-1.67774-.14843l-5.70508 7.089844v-7.089844h-.31055-1.33398zm13.1836 0v13.941411h.31054 1.64258v-13.941411h-.31054-1.33399zm6.60351 0v13.941411h.3125 1.64258v-11.011723l7.45508 11.011723h1.80859v-13.941411h-.31054-1.33399-.31054v10.343751l-6.98633-10.343751h-.16406-1.80274zm-43.52343 2.625 2.09179 4.998047h-4.23047z"/><path d="m317.85156 79.734375c-3.38845 0-5.9707 2.280719-5.9707 5.232422 0 1.677104.83837 3.087182 3.25391 5.669922-2.68393 1.77773-5.03321 3.856132-5.03321 7.076172 0 3.857339 3.42356 6.474609 7.61719 6.474609 2.85167 0 5.33414-1.20818 7.21289-3.2207l2.75 2.88476h3.01953l-4.46094-4.628904c1.27487-2.046066 2.01138-4.562049 2.04493-7.3125h-1.94532c0 2.180235-.53558 4.193651-1.4414 5.904297l-6.67774-6.976562c2.85167-1.878357 5.20118-3.6558 5.20118-6.40625 0-2.783993-2.45026-4.697266-5.57032-4.697266zm0 1.777344c2.01295 0 3.45703 1.24214 3.45703 2.986328 0 1.911898-1.77965 3.254198-4.39648 4.964844-2.38198-2.515656-2.91797-3.489154-2.91797-4.5625 0-1.844815 1.64318-3.388672 3.85742-3.388672zm-1.4082 10.5 7.21289 7.613281c-1.47616 1.6771-3.45534 2.7168-5.70313 2.7168-2.78457 0-5.63671-1.57531-5.63671-4.56055 0-2.41503 1.77852-4.12597 4.12695-5.769531z"/></g></g></svg>