<svg height="256" viewBox="0 0 67.733333 67.733335" width="256" xmlns="http://www.w3.org/2000/svg"><circle cx="33.866636" cy="33.866667" fill="#f2f2f2" r="20.391749" stroke-width=".243874"/><g fill="#0089d0"><path d="m1461.5781 1463.7012-.6953 8.9707 1.7539 7.709-9.7129 4.0234-4.209-6.6914-6.8359-5.8516-21.0801 21.0801 5.8516 6.8359 6.6914 4.209-4.0234 9.7129-7.709-1.7539-8.9707.6953v26.8125c2.3086-1.3791 5.0378-2.0976 7.959-2.0976 4.1042 0 7.8403 1.3672 10.4668 4.1172 2.6361 2.7601 3.8769 6.5817 3.8769 10.8457v4.957l.3086-.1934v-17.2382l-2.2812-5.5079-11.8086 2.6875-2.4493-.1914v-18.5703l2.4493-.1894 11.8086 2.6855 7.9453-19.1816-10.25-6.4492-1.5977-1.8653 13.1328-13.1328 1.8653 1.5977 6.4492 10.25 19.1836-7.9473-2.6875-11.8066.1894-2.4493h18.5723l.1894 2.4493-2.6875 11.8066 19.1817 7.9473 6.4492-10.25 1.8672-1.5977 13.1308 13.1328-1.5976 1.8653-10.2481 6.4492 7.9454 19.1816 2.498-.5683 9.3086-2.1172 2.4492.1894v18.5703l-2.4492.1914-11.8066-2.6875-1.2715 3.0684c3.6452.2351 6.9354 1.5794 9.3125 4.0684.3451.3614.6632.7441.9609 1.1406l2.3555.5351 8.9726-.6953v-29.8125l-8.9726-.6953-7.7071 1.7539-4.0234-9.7129 6.6895-4.209 5.8535-6.8359-21.0801-21.0801-6.8359 5.8516-4.211 6.6914-9.7129-4.0234 1.7539-7.709-.6953-8.9707zm14.9063 41.7676c-12.1575 0-22.0781 9.9206-22.0782 22.0781 0 3.8135.9763 7.4067 2.6915 10.5429l.7031.1524-.094.8867c.2273.3667.4672.7241.7149 1.0762l.4043-.211c1.6835-.8789 3.5087-1.5281 5.4433-1.9629.033-.01.065-.012.098-.019-2.4188-2.8021-3.8867-6.4504-3.8867-10.4648 0-8.8754 7.1285-16.0039 16.0039-16.0039 8.8753 0 16.0058 7.1285 16.0058 16.0039 0 1.5316-.226 3.0062-.623 4.4062h5.1327v3.7227c1.004-2.5189 1.5625-5.2599 1.5625-8.1289 0-12.1575-9.9207-22.0781-22.0781-22.0781zm5.1894 37.2167c-.1149.039-.2256.086-.3418.1231.1177.2136.2353.4273.3418.6484zm-6.2968 1.17c.01.01.01.02.018.029.01.01.011.01.021.014zm42.1796 3.8281c-.9558 0-1.4141.2074-1.8418.5703h3.629c-.3789-.3675-.7778-.5703-1.7872-.5703zm-48.0254.047c-.5756 0-1.1254.049-1.6601.1386.3584.1529.7221.2957 1.0898.4297.2517-.016.4986-.035.7598-.043l1.3086-.041c-.01-.013-.021-.1404-.031-.1484l-.02-.021-.019-.023c-.056-.06-.2866-.291-1.4278-.291zm13.2481.4316c.014.179.056.346.096.5137.5041-.1532.9981-.326 1.4863-.5137zm-58.7598 10.2285-1.6133 1.8828c1.1574-.029 2.2292-.1305 3.1817-.3339 1.1153-.2503 2.3773-.674 3.7695-1.2911l.5821-.2578zm95.7813 0 2.5039 1.5762.014.016c.076-.015.1572-.027.2324-.043 1.1152-.2503 2.3773-.674 3.7695-1.2911l.582-.2578zm10.8066 1.9356v3.3906l1.5645-1.5645zm-80.0937 2.7929-3.5723 5.6758v1.5469h-.9726l-1.9043 3.0254-1.8653 1.5976-4.623-4.623h-2.3262v-2.3242l-1.623-1.6231v1.5117l-1.7305.8243c-1.0733.5116-2.1698.9205-3.2832 1.2363l13.2656 13.2676 6.8359-5.8535 4.209-6.6895 9.7129 4.0215-1.7539 7.709.6953 8.9726h29.8125l.6953-8.9726-1.7539-7.709 9.7129-4.0215 4.211 6.6895 6.8359 5.8535 12.8691-12.8711c-1.6331.3133-3.4121.457-5.3554.457-1.1731 0-2.3146-.093-3.4121-.2773l-4.4219 4.4218-1.8672-1.5976-4.0977-6.5117v1.9609l-1.8242.793c-.9288.4046-1.9299.6647-3.0605.8672-1.1691.2284-2.3735.3437-3.6035.3437-2.7128 0-5.2566-.6694-7.2051-2.1758l-5.8399 2.42 2.6875 11.8066-.1894 2.4492h-18.5723l-.1894-2.4492 2.6875-11.8066-1.0684-.4434c-.8973.1279-1.8301.1992-2.8164.1992-3.1443 0-6.082-.9242-8.1953-2.9453l-.01-.01-.01-.01c-.7776-.7518-1.3994-1.6269-1.8789-2.5879zm-73.9785 1.2461-19.0723 11.0118 9.2344 9.2011-3.8106 6.5977-12.582-3.3946v26.3243l12.582-3.3965 3.8106 6.5976-9.2344 9.2012 22.7969 13.1621 3.3515-12.5957h7.6192l3.3515 12.5957 22.795-13.1621-9.2325-9.2012 3.8086-6.5976 12.5821 3.3965v-26.3243l-12.5821 3.3946-3.8086-6.5977 9.2325-9.2011-14.9102-8.6094c-2.3876 2.6123-5.7926 4.0527-9.4824 4.0527-.231 0-.456-.022-.6836-.035l-1.0703 4.0253h-3.0039v6.0743h7.6718l2.5118-9.4453 9.0644 5.2343-6.9238 6.8965 8.4765 14.6856 2.2539-.6075 7.1836-1.9394v10.4668l-9.4375-2.5469-8.4765 14.6856 6.9238 6.9003-9.0644 5.2305-2.5118-9.4453h-16.955l-2.5118 9.4453-9.0644-5.2305 6.9238-6.9003-8.4785-14.6856-9.4375 2.5469v-10.4668l9.4375 2.5469 8.4785-14.6856-6.9238-6.8965 9.0644-5.2343.1036.3886zm10.8847 21.9239c-8.0569 0-14.6523 6.5973-14.6523 14.6543 0 8.0569 6.5954 14.6523 14.6523 14.6523 8.057 0 14.6543-6.5954 14.6543-14.6523 0-8.057-6.5973-14.6543-14.6543-14.6543zm0 6.0742c4.7749 0 8.5801 3.8052 8.5801 8.5801s-3.8052 8.58-8.5801 8.58c-4.7748 0-8.5801-3.8051-8.5801-8.58s3.8053-8.5801 8.5801-8.5801z" transform="matrix(.2425137 0 0 .2425137 -313.99218 -343.39261)"/><path d="m1356.3594 531.8105c-5.2753 0-9.3387 1.5456-12.1914 4.6368-2.8369 3.0912-4.2559 7.5209-4.2559 13.289s1.4115 10.2224 4.2324 13.3614c2.8369 3.123 6.8927 4.6855 12.168 4.6855 5.2115 0 9.2354-1.5775 12.0723-4.7324 2.8527-3.155 4.2793-7.5772 4.2793-13.2656 0-5.7044-1.4191-10.1267-4.2559-13.2657s-6.8533-4.709-12.0488-4.709zm134.1367 3.1797-1.9121 5.5938-3.8731 2.0547v2.4863h3.6094v14.2441c0 5.6088 2.6613 8.4141 7.9844 8.4141 1.0519 0 2.0649-.096 3.0371-.2871.9881-.1753 1.7925-.3991 2.4141-.6699v-4.2305c-1.3707.4302-2.7408.6445-4.1114.6445-1.0996 0-1.9924-.3177-2.6777-.955-.6694-.6533-1.0039-1.6574-1.0039-3.0118v-14.1484h7.5293v-4.2559h-7.5293v-5.8789zm-134.1367 1.7207c3.3946 0 5.9451 1.1075 7.6504 3.3223 1.7212 2.2148 2.582 5.4657 2.582 9.752 0 4.3499-.8683 7.6233-2.6055 9.8222-1.7212 2.1989-4.2792 3.2988-7.6738 3.2988-3.4106 0-5.9855-1.1074-7.7227-3.3222-1.7371-2.2308-2.6054-5.4967-2.6054-9.7988 0-4.2863.8683-7.5372 2.6054-9.752 1.7531-2.2148 4.3431-3.3223 7.7696-3.3223zm36.7207 3.6817c-3.5062 0-6.1375 1.3367-7.8906 4.0136h-.2872c-.3984-1.8641-.6596-3.0431-.7871-3.5371h-4.5429v38.1954h5.6172v-10.8282c0-.478-.1109-1.8317-.334-4.0625h.334c1.8487 2.4061 4.448 3.6094 7.7949 3.6094 3.299 0 5.8794-1.2108 7.7441-3.6328 1.8806-2.422 2.8223-5.7932 2.8223-10.1113 0-4.3182-.9247-7.6724-2.7735-10.0625-1.8327-2.3901-4.3982-3.584-7.6972-3.584zm27.5156 0c-3.7612 0-6.7176 1.2333-8.8691 3.7031-2.1516 2.4698-3.2286 5.8635-3.2286 10.1816 0 4.2066 1.1559 7.5139 3.4668 9.92 2.3269 2.3901 5.5464 3.5859 9.6582 3.5859 1.801 0 3.4022-.1354 4.8047-.4062 1.4025-.2709 2.7896-.7335 4.1602-1.3868v-4.5664c-1.5459.6852-2.9969 1.1797-4.3516 1.4824-1.3387.287-2.7877.4297-4.3496.4297-2.3746 0-4.2166-.6843-5.5234-2.0547-1.3069-1.3861-2.0004-3.3623-2.0801-5.9277h17.6191v-3.0351c0-3.7127-1.0111-6.6289-3.0351-8.7481-2.0241-2.1192-4.7812-3.1777-8.2715-3.1777zm31.1016 0c-1.6256 0-3.148.4606-4.5664 1.3847-1.4025.9242-2.5415 2.1766-3.418 3.7539h-.2871l-.7422-4.6621h-4.3984v26.4356h5.6171v-13.8145c0-2.3423.6936-4.2469 2.0801-5.7129 1.4025-1.4659 3.2275-2.1992 5.4746-2.1992.8606 0 1.6895.096 2.4864.2871l.5507-5.2343c-.7331-.1594-1.6653-.2383-2.7968-.2383zm18.0722 0c-1.514 0-3.1228.1993-4.8281.5976-1.7053.3825-3.2766.9464-4.7109 1.6953l1.8183 4.0157c1.1475-.5418 2.3429-1.0118 3.586-1.4102 1.2431-.3983 2.5419-.5976 3.8964-.5976 1.6576 0 2.8754.423 3.6563 1.2675.7969.8286 1.1953 2.0864 1.1953 3.7754v1.4102l-4.5664.1445c-4.1437.1275-7.226.8833-9.25 2.2695-2.024 1.3863-3.0371 3.4433-3.0371 6.168 0 2.5654.7255 4.549 2.1758 5.9512 1.4662 1.4022 3.4979 2.1035 6.0957 2.1035 2.024 0 3.6817-.2877 4.9726-.8613 1.291-.5896 2.5747-1.6895 3.8496-3.2989h.1915l1.123 3.6817h4.0156v-17.8067c0-3.139-.8608-5.4422-2.582-6.9082-1.7053-1.4659-4.2388-2.1972-7.6016-2.1972zm47.7871 0c-3.7612 0-6.7176 1.2333-8.8691 3.7031s-3.2266 5.8635-3.2266 10.1816c0 4.2066 1.1559 7.5139 3.4668 9.92 2.3269 2.3901 5.5464 3.5859 9.6582 3.5859 1.801 0 3.4022-.1354 4.8047-.4062 1.4025-.2709 2.7896-.7335 4.1602-1.3868v-4.5664c-1.5459.6852-2.9969 1.1797-4.3516 1.4824-1.3387.287-2.7897.4297-4.3515.4297-2.3747 0-4.2147-.6843-5.5215-2.0547-1.3069-1.3861-2.0004-3.3623-2.0801-5.9277h17.6191v-3.0351c0-3.7127-1.013-6.6289-3.0371-8.7481-2.024-2.1192-4.7812-3.1777-8.2715-3.1777zm-96.9609 4.2539c1.785 0 3.187.5659 4.207 1.6973 1.02 1.1152 1.5463 2.7643 1.5782 4.9472h-12.002c.2072-2.167.8443-3.8159 1.9121-4.9472 1.0838-1.1315 2.5197-1.6973 4.3047-1.6973zm96.9609 0c1.785 0 3.189.5659 4.209 1.6973 1.02 1.1152 1.5463 2.7643 1.5782 4.9472h-12.002c.2072-2.167.8443-3.8159 1.9121-4.9472 1.0837-1.1315 2.5178-1.6973 4.3027-1.6973zm-125.9355.334c2.024 0 3.5539.7652 4.5898 2.2949 1.0519 1.5137 1.5782 3.7531 1.5782 6.7168 0 2.9478-.5263 5.2171-1.5782 6.8105-1.0518 1.5934-2.5497 2.3907-4.4941 2.3907-2.3109 0-3.9761-.7164-4.9961-2.1504-1.02-1.45-1.5312-3.7853-1.5312-7.0039v-.836c0-2.8681.5112-4.9551 1.5312-6.2617 1.0359-1.3066 2.6692-1.9609 4.9004-1.9609zm82.7148 9.705v2.293c0 2.0555-.6221 3.6575-1.8652 4.8047-1.2272 1.1313-2.8604 1.6973-4.9004 1.6973-1.4025 0-2.455-.3197-3.1562-.9571-.7013-.6533-1.0508-1.5689-1.0508-2.748 0-1.6253.5977-2.8286 1.7929-3.6094 1.2114-.7967 3.1396-1.2423 5.7852-1.3379z" transform="matrix(.2425137 0 0 .2425137 -313.99218 -100.87891)"/></g></svg>